<?xml version="1.0" encoding="iso-8859-1"?>
<!-- Generator: Adobe Illustrator 19.0.0, SVG Export Plug-In . SVG Version: 6.00 Build 0)  -->
<svg xmlns="http://www.w3.org/2000/svg" xmlns:xlink="http://www.w3.org/1999/xlink" version="1.1" id="Layer_1" x="0px" y="0px" viewBox="0 0 488.46 488.46" style="enable-background:new 0 0 488.46 488.46;" xml:space="preserve" width="512" height="512">
<g>
	<path style="fill:#FFCD76;" d="M300.93,113.89v21.37h-113.4v-21.37c0-21.85,12.37-40.8,30.48-50.27v-37.4   C218.01,11.74,229.75,0,244.23,0s26.22,11.74,26.22,26.22v37.4C288.56,73.09,300.93,92.04,300.93,113.89z"/>
	<path style="fill:#F8A73D;" d="M300.93,113.89v21.37h-56.7V0c14.48,0,26.22,11.74,26.22,26.22v37.4   C288.56,73.09,300.93,92.04,300.93,113.89z"/>
	<path style="fill:#C2E5E6;" d="M351.99,240.19v226.45c0,12.05-9.77,21.82-21.81,21.82h-171.9c-12.04,0-21.81-9.77-21.81-21.82   V240.19c0-20.84,11.83-38.93,29.15-47.89c7.41-3.85,15.83-6.02,24.76-6.02h107.7c8.93,0,17.35,2.17,24.76,6.02   C340.16,201.26,351.99,219.35,351.99,240.19z"/>
	<path style="fill:#98D5D2;" d="M351.99,240.19v226.45c0,12.05-9.77,21.82-21.81,21.82h-85.95V186.28h53.85   c8.93,0,17.35,2.17,24.76,6.02C340.16,201.26,351.99,219.35,351.99,240.19z"/>
	<path style="fill:#4B90BF;" d="M330.61,144.27v34.94c0,8.24-6.68,14.91-14.91,14.91H172.76c-8.23,0-14.91-6.67-14.91-14.91v-34.94   c0-8.23,6.68-14.91,14.91-14.91H315.7C323.93,129.36,330.61,136.04,330.61,144.27z"/>
	<path style="fill:#2E77A6;" d="M330.61,144.27v34.94c0,8.24-6.68,14.91-14.91,14.91h-71.47v-64.76h71.47   C323.93,129.36,330.61,136.04,330.61,144.27z"/>
	<path style="fill:#2E77A6;" d="M351.99,271.03v30h-60.33c-8.29,0-15-6.72-15-15c0-8.29,6.71-15,15-15H351.99z"/>
	<path style="fill:#2E77A6;" d="M351.99,331.35v30h-60.33c-8.29,0-15-6.72-15-15c0-8.29,6.71-15,15-15H351.99z"/>
	<path style="fill:#2E77A6;" d="M351.99,391.67v30h-60.33c-8.29,0-15-6.72-15-15c0-8.29,6.71-15,15-15H351.99z"/>
</g>















</svg>
