<?xml version="1.0" encoding="iso-8859-1"?>
<!-- Generator: Adobe Illustrator 19.0.0, SVG Export Plug-In . SVG Version: 6.00 Build 0)  -->
<svg xmlns="http://www.w3.org/2000/svg" xmlns:xlink="http://www.w3.org/1999/xlink" version="1.1" id="Layer_1" x="0px" y="0px" viewBox="0 0 495.333 495.333" style="enable-background:new 0 0 495.333 495.333;" xml:space="preserve" width="512" height="512">
<g>
	<path style="fill:#FF919A;" d="M468.217,251.637v27.08c0,71.47-57.93,129.4-129.39,129.4h-168.05   c-71.46,0-129.39-57.93-129.39-129.4v-27.08c0-88.26,71.55-159.81,159.81-159.81h107.21   C396.667,91.827,468.217,163.377,468.217,251.637z"/>
	<path style="fill:#F06570;" d="M468.217,251.637v27.08c0,71.47-57.93,129.4-129.39,129.4h-91.16V91.827h60.74   C396.667,91.827,468.217,163.377,468.217,251.637z"/>
	<path style="fill:#F06570;" d="M375.837,380.057c0,42.36-34.34,76.7-76.7,76.7h-102.94c-21.18,0-40.35-8.59-54.23-22.47   s-22.47-33.05-22.47-54.23c0-42.36,34.34-76.7,76.7-76.7h102.94c21.18,0,40.35,8.59,54.23,22.47   C367.247,339.707,375.837,358.877,375.837,380.057z"/>
	<path style="fill:#ED484B;" d="M375.837,380.057c0,42.36-34.34,76.7-76.7,76.7h-51.47v-153.4h51.47c21.18,0,40.35,8.59,54.23,22.47   C367.247,339.707,375.837,358.877,375.837,380.057z"/>
	<path style="fill:#F06570;" d="M13.005,204.743l48.146-11.111c44.907-10.363,82.148-41.58,100.194-83.987l0,0   c11.579-27.211-5.43-58.071-34.62-62.811l-45.356-7.365C40.886,32.895,3.866,63.457,2.654,104.455l-2.649,89.629   C-0.201,201.038,6.226,206.307,13.005,204.743z"/>
	<path style="fill:#ED484B;" d="M482.328,204.743l-48.147-11.111c-44.907-10.363-82.148-41.58-100.194-83.987l0,0   c-11.579-27.211,5.43-58.071,34.62-62.811l45.356-7.365c40.485-6.574,77.505,23.988,78.717,64.986l2.649,89.629   C495.534,201.038,489.107,206.307,482.328,204.743z"/>
	<path style="fill:#D92E2F;" d="M190.279,357.334c-8.284,0-15,6.716-15,15v15.054c0,8.284,6.716,15,15,15s15-6.716,15-15v-15.054   C205.279,364.05,198.564,357.334,190.279,357.334z"/>
	<path style="fill:#BC2127;" d="M305.054,357.334c-8.284,0-15,6.716-15,15v15.054c0,8.284,6.716,15,15,15s15-6.716,15-15v-15.054   C320.054,364.05,313.338,357.334,305.054,357.334z"/>
	<path style="fill:#D92E2F;" d="M142.816,208.568c-8.796,0-15.927,7.131-15.927,15.927v22.828c0,8.796,7.131,15.927,15.927,15.927   s15.927-7.131,15.927-15.927v-22.828C158.743,215.698,151.612,208.568,142.816,208.568z"/>
	<path style="fill:#BC2127;" d="M352.517,208.568c-8.796,0-15.927,7.131-15.927,15.927v22.828c0,8.796,7.131,15.927,15.927,15.927   c8.796,0,15.927-7.131,15.927-15.927v-22.828C368.444,215.698,361.313,208.568,352.517,208.568z"/>
</g>















</svg>
