<?xml version="1.0" encoding="iso-8859-1"?>
<!-- Generator: Adobe Illustrator 19.0.0, SVG Export Plug-In . SVG Version: 6.00 Build 0)  -->
<svg xmlns="http://www.w3.org/2000/svg" xmlns:xlink="http://www.w3.org/1999/xlink" version="1.1" id="Layer_1" x="0px" y="0px" viewBox="0 0 489 489" style="enable-background:new 0 0 489 489;" xml:space="preserve" width="512" height="512">
<g>
	<path style="fill:#F8A73D;" d="M472.273,489h-321.34c-8.62,0-15.47-7.25-14.97-15.86l17.57-304.38   c0.46-7.93,7.03-14.13,14.98-14.13h286.19c7.95,0,14.51,6.2,14.97,14.13l17.58,304.38C487.743,481.75,480.903,489,472.273,489z"/>
	<path style="fill:#F38531;" d="M472.273,489h-161.47V154.63h143.9c7.95,0,14.51,6.2,14.97,14.13l17.58,304.38   C487.743,481.75,480.903,489,472.273,489z"/>
	<path style="fill:#4B90BF;" d="M398.523,195.44c0.12,8.29-6.49,15.1-14.78,15.23h-0.22c-8.18,0-14.88-6.57-15-14.78l-1.61-108.75   v-0.22c0-31.12-25.1-56.48-56.11-56.91c-0.27-0.01-0.54-0.01-0.81-0.01c-31.35,0-56.86,25.48-56.92,56.81l1.61,108.63   c0.13,8.29-6.49,15.1-14.77,15.23c-8.26,0.14-15.1-6.5-15.22-14.78l-1.62-108.75v-0.22c0-47.93,38.99-86.92,86.92-86.92   c0.27,0,0.54,0,0.81,0.01c47.52,0.43,86.05,39.19,86.11,86.79L398.523,195.44z"/>
	<path style="fill:#2E77A6;" d="M398.523,195.44c0.12,8.29-6.49,15.1-14.78,15.23h-0.22c-8.18,0-14.88-6.57-15-14.78l-1.61-108.75   v-0.22c0-31.12-25.1-56.48-56.11-56.91v-30c47.52,0.43,86.05,39.19,86.11,86.79L398.523,195.44z"/>
	<path style="fill:#4B90BF;" d="M16.722,261H96.02c8.284,0,15-6.716,15-15s-6.716-15-15-15H16.722c-8.284,0-15,6.716-15,15   S8.438,261,16.722,261z"/>
	<path style="fill:#4B90BF;" d="M96.02,305.417H47.471c-8.284,0-15,6.716-15,15s6.716,15,15,15H96.02c8.284,0,15-6.716,15-15   S104.305,305.417,96.02,305.417z"/>
	<path style="fill:#4B90BF;" d="M96.02,379.834H16.722c-8.284,0-15,6.716-15,15s6.716,15,15,15H96.02c8.284,0,15-6.716,15-15   S104.305,379.834,96.02,379.834z"/>
</g>















</svg>
