<?xml version="1.0" encoding="iso-8859-1"?>
<!-- Generator: Adobe Illustrator 19.0.0, SVG Export Plug-In . SVG Version: 6.00 Build 0)  -->
<svg xmlns="http://www.w3.org/2000/svg" xmlns:xlink="http://www.w3.org/1999/xlink" version="1.1" id="Layer_1" x="0px" y="0px" viewBox="0 0 496.667 496.667" style="enable-background:new 0 0 496.667 496.667;" xml:space="preserve" width="512" height="512">
<g>
	<path style="fill:#F8A73D;" d="M474.013,332.377c-9.292,9.961-19.42,19.204-30.323,27.598   c-26.393,20.32-57.299,35.651-91.671,44.251C218.06,437.74,82.543,356.462,49.029,222.503   c-10.535-42.107-9.697-84.395,0.557-123.625c8.821-33.74,56.818-32.36,63.844,1.797c0.714,3.49,1.513,6.986,2.386,10.474   c33.481,133.826,169.175,215.21,302.99,181.723c2.552-0.638,5.077-1.308,7.589-2.03c5.573-1.573,11.054-3.329,16.427-5.255   C471.308,275.364,494.642,310.244,474.013,332.377z"/>
	<path style="fill:#F38531;" d="M474.013,332.377c-9.292,9.961-19.42,19.204-30.323,27.598l-17.296-69.133   c5.573-1.573,11.054-3.329,16.427-5.255C471.308,275.364,494.642,310.244,474.013,332.377z"/>
	<path style="fill:#FFCD76;" d="M431.162,453.377c-12.343,7.999-25.374,15.026-38.995,20.962   c-32.971,14.368-69.362,22.328-107.62,22.328c-149.102,0-269.754-120.652-269.754-269.754c0-46.867,11.96-90.943,32.981-129.348   c18.082-33.03,67.996-19.007,66.404,18.613c-0.167,3.843-0.246,7.715-0.246,11.596c0,148.955,120.809,269.763,269.754,269.754   c2.84,0,5.661-0.039,8.481-0.138c6.25-0.187,12.451-0.59,18.584-1.199C443.27,392.948,458.571,435.599,431.162,453.377z"/>
	<path style="fill:#F8A73D;" d="M431.162,453.377c-12.343,7.999-25.374,15.026-38.995,20.962V397.39   c6.25-0.187,12.451-0.59,18.584-1.199C443.27,392.948,458.571,435.599,431.162,453.377z"/>
	<path style="fill:#F38531;" d="M114.678,117.954l-70.132-7.373c-6.03-0.634-10.255-6.254-9.187-12.223L51.412,8.604   c0.958-5.357,5.87-9.08,11.287-8.554l75.566,7.332c6.309,0.612,10.622,6.658,9.147,12.823l-21.488,89.795   C124.704,115.098,119.892,118.502,114.678,117.954z"/>
</g>















</svg>
