<?xml version="1.0" encoding="iso-8859-1"?>
<!-- Generator: Adobe Illustrator 19.0.0, SVG Export Plug-In . SVG Version: 6.00 Build 0)  -->
<svg xmlns="http://www.w3.org/2000/svg" xmlns:xlink="http://www.w3.org/1999/xlink" version="1.1" id="Layer_1" x="0px" y="0px" viewBox="0 0 484.76 484.76" style="enable-background:new 0 0 484.76 484.76;" xml:space="preserve" width="512" height="512">
<g>
	<path style="fill:#C2E5E6;" d="M382.284,43.2h-53.78V19.49c0-10.76-8.72-19.49-19.49-19.49H91.004   c-10.78,0-16.87,12.38-10.29,20.92l28.12,36.54c1.75,2.27,2.7,5.06,2.7,7.92v117.94c0,45.18,9.64,85.81,36.05,125.65h144.87   c16.47-24.83,26.44-50.01,31.6-76.51h10.32c53.04,0,96.19-43.15,96.19-96.18V91.49C430.564,64.86,408.904,43.2,382.284,43.2z    M400.564,136.28c0,36.49-29.69,66.18-66.19,66.18h-6.49c0.42-6.29,0.62-12.66,0.62-19.14V73.2h53.78   c10.08,0,18.28,8.2,18.28,18.29V136.28z"/>
	<path style="fill:#98D5D2;" d="M382.284,43.2h-53.78V19.49c0-10.76-8.72-19.49-19.49-19.49h-90.91v308.97h74.35   c16.47-24.83,26.44-50.01,31.6-76.51h10.32c53.04,0,96.19-43.15,96.19-96.18V91.49C430.564,64.86,408.904,43.2,382.284,43.2z    M400.564,136.28c0,36.49-29.69,66.18-66.19,66.18h-6.49c0.42-6.29,0.62-12.66,0.62-19.14V73.2h53.78   c10.08,0,18.28,8.2,18.28,18.29V136.28z"/>
	<path style="fill:#4B90BF;" d="M251.664,208.31c0,8.28-6.72,15-15,15h-37.12c-8.28,0-15-6.72-15-15c0-8.29,6.72-15,15-15h37.12   C244.944,193.31,251.664,200.02,251.664,208.31z"/>
	<path style="fill:#2E77A6;" d="M236.664,193.31h-18.56v30h18.56c8.28,0,15-6.72,15-15   C251.664,200.02,244.944,193.31,236.664,193.31z"/>
	<path style="fill:#A8D384;" d="M367.314,484.76H68.884c-8.81,0-15.64-7.71-14.58-16.46l5.67-46.8l8.55-70.65   c3.78-29.15,28.61-50.97,58.01-50.97h183.14c29.39,0,54.22,21.82,58,50.97l8.56,70.65l5.67,46.8   C382.964,477.05,376.134,484.76,367.314,484.76z"/>
	<path style="fill:#80C469;" d="M367.314,484.76h-149.21V299.88h91.57c29.39,0,54.22,21.82,58,50.97l8.56,70.65l5.67,46.8   C382.964,477.05,376.134,484.76,367.314,484.76z"/>
	<path style="fill:#4B90BF;" d="M149.997,342.985c-8.284,0-15,6.716-15,15v12.479c0,8.284,6.716,15,15,15s15-6.716,15-15v-12.479   C164.997,349.701,158.281,342.985,149.997,342.985z"/>
	<path style="fill:#4B90BF;" d="M233.104,357.99v12.47c0,8.29-6.72,15-15,15c-8.29,0-15-6.71-15-15v-12.47c0-8.29,6.71-15,15-15   C226.384,342.99,233.104,349.7,233.104,357.99z"/>
	<path style="fill:#2E77A6;" d="M233.104,357.99v12.47c0,8.29-6.72,15-15,15v-42.47C226.384,342.99,233.104,349.7,233.104,357.99z"/>
	<path style="fill:#2E77A6;" d="M286.204,342.985c-8.284,0-15,6.716-15,15v12.479c0,8.284,6.716,15,15,15s15-6.716,15-15v-12.479   C301.204,349.701,294.488,342.985,286.204,342.985z"/>
	<path style="fill:#4B90BF;" d="M367.314,484.76H68.884c-8.81,0-15.64-7.71-14.58-16.46l5.67-46.8h316.26l5.67,46.8   C382.964,477.05,376.134,484.76,367.314,484.76z"/>
	<path style="fill:#2E77A6;" d="M367.314,484.76h-149.21V421.5h158.13l5.67,46.8C382.964,477.05,376.134,484.76,367.314,484.76z"/>
	<path style="fill:#4B90BF;" d="M251.664,85.16c0,8.29-6.72,15-15,15h-37.12c-8.28,0-15-6.71-15-15c0-8.28,6.72-15,15-15h37.12   C244.944,70.16,251.664,76.88,251.664,85.16z"/>
	<path style="fill:#2E77A6;" d="M251.664,85.16c0-8.28-6.72-15-15-15h-18.56v30h18.56C244.944,100.16,251.664,93.45,251.664,85.16z"/>
	<path style="fill:#4B90BF;" d="M251.664,146.73c0,8.29-6.72,15-15,15h-37.12c-8.28,0-15-6.71-15-15c0-8.28,6.72-15,15-15h37.12   C244.944,131.73,251.664,138.45,251.664,146.73z"/>
	<path style="fill:#2E77A6;" d="M236.664,131.73h-18.56v30h18.56c8.28,0,15-6.71,15-15   C251.664,138.45,244.944,131.73,236.664,131.73z"/>
</g>















</svg>
