<?xml version="1.0" encoding="iso-8859-1"?>
<!-- Generator: Adobe Illustrator 19.0.0, SVG Export Plug-In . SVG Version: 6.00 Build 0)  -->
<svg xmlns="http://www.w3.org/2000/svg" xmlns:xlink="http://www.w3.org/1999/xlink" version="1.1" id="Layer_1" x="0px" y="0px" viewBox="0 0 494 494" style="enable-background:new 0 0 494 494;" xml:space="preserve" width="512" height="512">
<g>
	<path style="fill:#F8A73D;" d="M477.56,159.48c0,37.21-18.43,72.95-52.09,101.33V449c0,24.81-20.18,45-45,45H113.53   c-24.82,0-45-20.19-45-45V260.81c-33.66-28.38-52.09-64.12-52.09-101.33C16.44,69,121.92,0,247,0   C355.21,0,477.56,58.13,477.56,159.48z"/>
	<path style="fill:#F38531;" d="M477.56,159.48c0,37.21-18.43,72.95-52.09,101.33V449c0,24.81-20.18,45-45,45H247V0   C355.21,0,477.56,58.13,477.56,159.48z"/>
	<path style="fill:#FFE6B9;" d="M440.07,159.48c0,27.48-15.42,54.62-43.42,76.43c-5.48,4.27-8.67,10.81-8.67,17.75V449   c0,4.14-3.37,7.5-7.5,7.5H113.52c-4.12,0-7.5-3.36-7.5-7.5V253.66c0-6.94-3.19-13.48-8.66-17.75c-28-21.81-43.43-48.95-43.43-76.43   C53.93,92.912,141.575,37.5,247,37.5C345.205,37.5,440.07,88.566,440.07,159.48z"/>
	<path style="fill:#FFCD76;" d="M440.07,159.48c0,27.48-15.42,54.62-43.42,76.43c-5.48,4.27-8.67,10.81-8.67,17.75V449   c0,4.14-3.37,7.5-7.5,7.5H247v-419C345.205,37.5,440.07,88.566,440.07,159.48z"/>
	<path style="fill:#F8A73D;" d="M184,232.214c-8.284,0-15,6.716-15,15v13c0,8.284,6.716,15,15,15s15-6.716,15-15v-13   C199,238.929,192.284,232.214,184,232.214z"/>
	<path style="fill:#F8A73D;" d="M262,97.74v10.57c0,8.28-6.72,15-15,15s-15-6.72-15-15V97.74c0-8.28,6.72-15,15-15   S262,89.46,262,97.74z"/>
	<path style="fill:#F38531;" d="M262,97.74v10.57c0,8.28-6.72,15-15,15V82.74C255.28,82.74,262,89.46,262,97.74z"/>
	<path style="fill:#F38531;" d="M305.5,273.522c-8.284,0-15,6.716-15,15v13c0,8.284,6.716,15,15,15s15-6.716,15-15v-13   C320.5,280.238,313.784,273.522,305.5,273.522z"/>
	<path style="fill:#F38531;" d="M345.086,379.772c-8.284,0-15,6.716-15,15v13c0,8.284,6.716,15,15,15s15-6.716,15-15v-13   C360.086,386.488,353.37,379.772,345.086,379.772z"/>
	<path style="fill:#F38531;" d="M360.086,152.193c-8.284,0-15,6.716-15,15v10.563c0,8.284,6.716,15,15,15s15-6.716,15-15v-10.563   C375.086,158.908,368.37,152.193,360.086,152.193z"/>
	<path style="fill:#F8A73D;" d="M133,118c-8.284,0-15,6.716-15,15v10.563c0,8.284,6.716,15,15,15s15-6.716,15-15V133   C148,124.716,141.284,118,133,118z"/>
	<path style="fill:#F8A73D;" d="M154,370.598c-8.284,0-15,6.716-15,15v10.563c0,8.284,6.716,15,15,15s15-6.716,15-15v-10.563   C169,377.313,162.284,370.598,154,370.598z"/>
</g>















</svg>
