<?xml version="1.0" encoding="iso-8859-1"?>
<!-- Generator: Adobe Illustrator 19.0.0, SVG Export Plug-In . SVG Version: 6.00 Build 0)  -->
<svg xmlns="http://www.w3.org/2000/svg" xmlns:xlink="http://www.w3.org/1999/xlink" version="1.1" id="Layer_1" x="0px" y="0px" viewBox="0 0 494 494" style="enable-background:new 0 0 494 494;" xml:space="preserve" width="512" height="512">
<g>
	<path style="fill:#4B90BF;" d="M466.48,31.2v431.6c0,17.23-13.97,31.2-31.2,31.2H58.72c-17.23,0-31.2-13.97-31.2-31.2V31.2   C27.52,13.97,41.49,0,58.72,0h376.56C452.51,0,466.48,13.97,466.48,31.2z"/>
	<path style="fill:#2E77A6;" d="M466.48,31.2v431.6c0,17.23-13.97,31.2-31.2,31.2H247V0h188.28C452.51,0,466.48,13.97,466.48,31.2z"/>
	<path style="fill:#C2E5E6;" d="M424.83,48.89v86.8c0,8.29-6.72,15-15,15H87.28c-8.28,0-15-6.71-15-15v-86.8c0-8.29,6.72-15,15-15   h322.55C418.11,33.89,424.83,40.6,424.83,48.89z"/>
	<path style="fill:#98D5D2;" d="M424.83,48.89v86.8c0,8.29-6.72,15-15,15H247V33.89h162.83C418.11,33.89,424.83,40.6,424.83,48.89z"/>
	<rect x="102.28" y="63.89" style="fill:#F8A73D;" width="292.55" height="56.8"/>
	<rect x="247" y="63.89" style="fill:#F38531;" width="147.83" height="56.8"/>
	<path style="fill:#C2E5E6;" d="M160.813,246.557H87.284c-4.308,0-7.8,3.492-7.8,7.8v73.529c0,4.308,3.492,7.8,7.8,7.8h73.529   c4.308,0,7.8-3.492,7.8-7.8v-73.529C168.613,250.049,165.12,246.557,160.813,246.557z"/>
	<path style="fill:#C2E5E6;" d="M160.813,369.834H87.284c-4.308,0-7.8,3.492-7.8,7.8v73.529c0,4.308,3.492,7.8,7.8,7.8h73.529   c4.308,0,7.8-3.492,7.8-7.8v-73.529C168.613,373.326,165.12,369.834,160.813,369.834z"/>
	<path style="fill:#C2E5E6;" d="M293.12,254.359v73.53c0,4.3-3.49,7.8-7.8,7.8h-73.53c-4.31,0-7.8-3.5-7.8-7.8v-73.53   c0-4.31,3.49-7.8,7.8-7.8h73.53C289.63,246.559,293.12,250.049,293.12,254.359z"/>
	<path style="fill:#98D5D2;" d="M293.12,254.359v73.53c0,4.3-3.49,7.8-7.8,7.8H247v-89.13h38.32   C289.63,246.559,293.12,250.049,293.12,254.359z"/>
	<path style="fill:#C2E5E6;" d="M293.12,377.639v73.52c0,4.31-3.49,7.8-7.8,7.8h-73.53c-4.31,0-7.8-3.49-7.8-7.8v-73.52   c0-4.31,3.49-7.8,7.8-7.8h73.53C289.63,369.839,293.12,373.329,293.12,377.639z"/>
	<path style="fill:#98D5D2;" d="M293.12,377.639v73.52c0,4.31-3.49,7.8-7.8,7.8H247v-89.12h38.32   C289.63,369.839,293.12,373.329,293.12,377.639z"/>
	<path style="fill:#98D5D2;" d="M408.564,246.557h-73.528c-4.308,0-7.8,3.492-7.8,7.8v196.806c0,4.308,3.492,7.8,7.8,7.8h73.528   c4.308,0,7.8-3.492,7.8-7.8V254.357C416.364,250.049,412.872,246.557,408.564,246.557z"/>
	<path style="fill:#F8A73D;" d="M203.991,180.599H87.284c-8.284,0-15,6.716-15,15s6.716,15,15,15h116.707c8.284,0,15-6.716,15-15   S212.275,180.599,203.991,180.599z"/>
	<path style="fill:#F38531;" d="M408.564,171.564c-8.284,0-15,6.716-15,15v18.07c0,8.284,6.716,15,15,15s15-6.716,15-15v-18.07   C423.564,178.28,416.849,171.564,408.564,171.564z"/>
	<path style="fill:#F38531;" d="M365.716,171.564c-8.284,0-15,6.716-15,15v18.07c0,8.284,6.716,15,15,15s15-6.716,15-15v-18.07   C380.716,178.28,374.001,171.564,365.716,171.564z"/>
	<path style="fill:#F38531;" d="M322.868,171.564c-8.284,0-15,6.716-15,15v18.07c0,8.284,6.716,15,15,15s15-6.716,15-15v-18.07   C337.868,178.28,331.153,171.564,322.868,171.564z"/>
</g>















</svg>
