<?xml version="1.0" encoding="iso-8859-1"?>
<!-- Generator: Adobe Illustrator 19.0.0, SVG Export Plug-In . SVG Version: 6.00 Build 0)  -->
<svg xmlns="http://www.w3.org/2000/svg" xmlns:xlink="http://www.w3.org/1999/xlink" version="1.1" id="Layer_1" x="0px" y="0px" viewBox="0 0 492.002 492.002" style="enable-background:new 0 0 492.002 492.002;" xml:space="preserve" width="512" height="512">
<g>
	<g>
		<rect x="153.678" y="175.749" style="fill:#F8A73D;" width="50.791" height="194.781"/>
		<path style="fill:#F8A73D;" d="M10,368.036c-5.523,0-10,4.477-10,10v30.791c0,5.523,4.477,10,10,10h167.997v-50.791H10z"/>
		<g>
			<g>
				<rect x="267.518" y="71.222" style="fill:#FFCD76;" width="149.54" height="118.542"/>
				<rect x="267.518" y="134.393" style="fill:#F8A73D;" width="149.54" height="55.371"/>
				<path style="fill:#4B90BF;" d="M331.514,39.627V221.36c0,8.994-7.299,16.292-16.292,16.292H61.141      c-33.768,0-61.139-27.37-61.139-61.139V84.474c0-33.768,27.371-61.139,61.139-61.139h254.081      C324.215,23.335,331.514,30.633,331.514,39.627z"/>
				<path style="fill:#2E77A6;" d="M331.514,134.393v86.967c0,8.994-7.299,16.292-16.292,16.292H61.141      c-33.768,0-61.139-27.37-61.139-61.139v-42.12H331.514z"/>
				<path style="fill:#FFCD76;" d="M106.976,23.335v214.317H61.141c-33.768,0-61.139-27.382-61.139-61.149V84.484      c0-33.768,27.371-61.149,61.139-61.149H106.976z"/>
				<path style="fill:#F8A73D;" d="M106.976,134.393v103.259H61.141c-33.768,0-61.139-27.382-61.139-61.149v-42.11H106.976z"/>
				<path style="fill:#4B90BF;" d="M492.002,36.998v186.99c0,12.794-14.065,20.593-24.916,13.826l-77.029-48.051V71.222      l77.029-48.051C477.936,16.405,492.002,24.203,492.002,36.998z"/>
				<path style="fill:#2E77A6;" d="M492.002,134.393v89.596c0,12.794-14.065,20.593-24.916,13.826l-77.029-48.051v-55.371H492.002z"/>
				<path style="fill:#F8A73D;" d="M267.522,163.866h-63.053c-8.998,0-16.292,7.294-16.292,16.292s7.294,16.292,16.292,16.292      h63.053c8.998,0,16.292-7.294,16.292-16.292S276.52,163.866,267.522,163.866z"/>
			</g>
		</g>
	</g>
	<path style="fill:#4B90BF;" d="M179.074,315.538c-42.95,0-77.893,34.943-77.893,77.893s34.943,77.892,77.893,77.892   s77.892-34.942,77.892-77.892S222.024,315.538,179.074,315.538z"/>
	<g>
		<g>
			<path style="fill:#FFCD76;" d="M224.377,393.437c0,24.981-20.322,45.303-45.303,45.303s-45.314-20.322-45.314-45.303     c0-24.992,20.333-45.314,45.314-45.314S224.377,368.445,224.377,393.437z"/>
		</g>
	</g>
</g>















</svg>
