<svg height="512pt" viewBox="0 0 512 512" width="512pt" xmlns="http://www.w3.org/2000/svg"><path d="m272.484375 22.222656h231.789063v467.554688h-231.789063zm0 0" fill="#60d9fe"/><path d="m473.367188 22.222656h30.90625v467.554688h-30.90625zm0 0" fill="#40ccf7"/><path d="m505.820312 512h-234.882812c-3.414062 0-6.179688-2.765625-6.179688-6.179688v-18.542968c0-3.414063 2.765626-6.183594 6.179688-6.183594h234.882812c3.414063 0 6.179688 2.769531 6.179688 6.183594v18.542968c0 3.414063-2.765625 6.179688-6.179688 6.179688zm0 0" fill="#d1ffff"/><path d="m505.820312 30.90625h-234.882812c-3.414062 0-6.179688-2.769531-6.179688-6.183594v-18.542968c0-3.414063 2.765626-6.179688 6.179688-6.179688h234.882812c3.414063 0 6.179688 2.765625 6.179688 6.179688v18.542968c0 3.414063-2.765625 6.183594-6.179688 6.183594zm0 0" fill="#d1ffff"/><path d="m465.125 256c0-68.273438-34.128906-123.621094-76.230469-123.621094-42.105469 0-76.234375 55.347656-76.234375 123.621094s34.128906 123.621094 76.234375 123.621094c42.101563 0 76.230469-55.347656 76.230469-123.621094zm0 0" fill="#ffcd6b"/><path d="m505.820312 0h-30.90625c3.414063 0 6.179688 2.765625 6.179688 6.179688v18.542968c0 3.414063-2.765625 6.183594-6.179688 6.183594h30.90625c3.414063 0 6.179688-2.769531 6.179688-6.183594v-18.542968c0-3.414063-2.765625-6.179688-6.179688-6.179688zm0 0" fill="#bbeded"/><path d="m505.820312 481.09375h-30.90625c3.414063 0 6.179688 2.769531 6.179688 6.183594v18.542968c0 3.414063-2.765625 6.179688-6.179688 6.179688h30.90625c3.414063 0 6.179688-2.765625 6.179688-6.179688v-18.542968c0-3.414063-2.765625-6.183594-6.179688-6.183594zm0 0" fill="#bbeded"/><path d="m72.589844 116.410156h205.042968v165.070313h-205.042968zm0 0" fill="#3bd387"/><path d="m246.726562 116.410156h30.90625v165.070313h-30.90625zm0 0" fill="#37c487"/><path d="m224.996094 263.847656c0-35.84375-22.492188-64.902344-50.238282-64.902344-27.746093 0-50.242187 29.058594-50.242187 64.902344s22.496094 64.902344 50.242187 64.902344c27.746094 0 50.238282-29.058594 50.238282-64.902344zm0 0" fill="#ffcd6b"/><path d="m281.753906 126.953125h-213.285156c-3.414062 0-6.183594-2.765625-6.183594-6.179687v-18.542969c0-3.414063 2.769532-6.179688 6.183594-6.179688h213.285156c3.414063 0 6.179688 2.765625 6.179688 6.179688v18.542969c.003906 3.414062-2.765625 6.179687-6.179688 6.179687zm0 0" fill="#d1ffff"/><path d="m281.753906 96.050781h-30.902344c3.414063 0 6.179688 2.765625 6.179688 6.179688v18.542969c0 3.414062-2.765625 6.179687-6.179688 6.179687h30.902344c3.414063 0 6.183594-2.765625 6.183594-6.179687v-18.542969c0-3.414063-2.769531-6.179688-6.183594-6.179688zm0 0" fill="#bbeded"/><path d="m10.300781 293.085938h319.355469v196.765624h-319.355469zm0 0" fill="#fe5555"/><path d="m298.753906 293.085938h30.902344v196.765624h-30.902344zm0 0" fill="#e84141"/><path d="m333.777344 512h-327.597656c-3.414063 0-6.179688-2.765625-6.179688-6.179688v-18.542968c0-3.414063 2.765625-6.183594 6.179688-6.183594h327.597656c3.414062 0 6.183594 2.769531 6.183594 6.183594v18.542968c0 3.414063-2.769532 6.179688-6.183594 6.179688zm0 0" fill="#d1ffff"/><path d="m333.777344 301.84375h-327.597656c-3.414063 0-6.179688-2.769531-6.179688-6.183594v-18.542968c0-3.414063 2.765625-6.179688 6.179688-6.179688h327.597656c3.414062 0 6.183594 2.765625 6.183594 6.179688v18.542968c0 3.414063-2.769532 6.183594-6.183594 6.183594zm0 0" fill="#d1ffff"/><path d="m333.777344 481.09375h-30.902344c3.414062 0 6.179688 2.769531 6.179688 6.183594v18.542968c0 3.414063-2.765626 6.179688-6.179688 6.179688h30.902344c3.414062 0 6.183594-2.765625 6.183594-6.179688v-18.542968c0-3.414063-2.769532-6.183594-6.183594-6.183594zm0 0" fill="#bbeded"/><path d="m333.777344 270.9375h-30.902344c3.414062 0 6.179688 2.765625 6.179688 6.179688v18.542968c0 3.414063-2.765626 6.183594-6.179688 6.183594h30.902344c3.414062 0 6.183594-2.769531 6.183594-6.183594v-18.542968c0-3.414063-2.769532-6.179688-6.183594-6.179688zm0 0" fill="#bbeded"/><path d="m278.148438 390.953125c0-31.292969-48.429688-56.660156-108.167969-56.660156-59.742188 0-108.167969 25.367187-108.167969 56.660156s48.425781 56.660156 108.167969 56.660156c59.738281 0 108.167969-25.367187 108.167969-56.660156zm0 0" fill="#ffcd6b"/></svg>