<?xml version="1.0" encoding="iso-8859-1"?>
<!-- Generator: Adobe Illustrator 19.0.0, SVG Export Plug-In . SVG Version: 6.00 Build 0)  -->
<svg xmlns="http://www.w3.org/2000/svg" xmlns:xlink="http://www.w3.org/1999/xlink" version="1.1" id="Layer_1" x="0px" y="0px" viewBox="0 0 494 494" style="enable-background:new 0 0 494 494;" xml:space="preserve" width="512" height="512">
<g>
	<path style="fill:#A8D384;" d="M494,127.08v239.84c0,17.55-14.22,31.77-31.77,31.77H31.77C14.22,398.69,0,384.47,0,366.92V127.08   c0-17.55,14.22-31.77,31.77-31.77h430.46C479.78,95.31,494,109.53,494,127.08z"/>
	<path style="fill:#80C469;" d="M494,127.08v239.84c0,17.55-14.22,31.77-31.77,31.77H247V95.31h215.23   C479.78,95.31,494,109.53,494,127.08z"/>
	<rect y="165.04" style="fill:#4B90BF;" width="494" height="72.43"/>
	<rect x="247" y="165.04" style="fill:#2E77A6;" width="247" height="72.43"/>
	<path style="fill:#FFE6B9;" d="M184.519,306.13H60.616c-8.284,0-15,6.716-15,15s6.716,15,15,15h123.903c8.284,0,15-6.716,15-15   S192.803,306.13,184.519,306.13z"/>
	<path style="fill:#FFCD76;" d="M401.614,273.301c-26.373,0-47.829,21.456-47.829,47.829s21.456,47.829,47.829,47.829   s47.829-21.456,47.829-47.829S427.987,273.301,401.614,273.301z M401.614,338.959c-9.831,0-17.829-7.998-17.829-17.829   s7.998-17.829,17.829-17.829s17.829,7.998,17.829,17.829S411.445,338.959,401.614,338.959z"/>
</g>















</svg>
