<?xml version="1.0" encoding="iso-8859-1"?>
<!-- Generator: Adobe Illustrator 19.0.0, SVG Export Plug-In . SVG Version: 6.00 Build 0)  -->
<svg version="1.1" id="Capa_1" xmlns="http://www.w3.org/2000/svg" xmlns:xlink="http://www.w3.org/1999/xlink" x="0px" y="0px"
	 viewBox="0 0 512.004 512.004" style="enable-background:new 0 0 512.004 512.004;" xml:space="preserve">
<path style="fill:#FFC266;" d="M511.247,476.82H257.429V35.185h254.576L511.247,476.82z"/>
<path style="fill:#FD667B;" d="M511.247,412.824H257.429v-234.65h254.576L511.247,412.824z"/>
<path style="fill:#FFE7C3;" d="M277.317,476.82H151.326V35.185h125.991V476.82z"/>
<path style="fill:#00E890;" d="M385.269,385.147c-28.855,0-52.329-23.475-52.329-52.329h29.998
	c0,12.314,10.017,22.331,22.331,22.331c12.313,0,22.331-10.018,22.331-22.331h29.998
	C437.599,361.672,414.123,385.147,385.269,385.147z"/>
<path style="fill:#FFFFFF;" d="M341.934,295.158c-20.403-20.404-20.403-53.601,0-74.005c20.401-20.402,53.601-20.404,74.006-0.001
	l-21.211,21.212c-8.706-8.706-22.876-8.707-31.583,0c-8.706,8.707-8.706,22.874,0,31.582L341.934,295.158z"/>
<path style="fill:#6FC8F1;" d="M416.998,310.461c-13.4,0-26.801-5.101-37.002-15.302l21.211-21.212
	c8.705,8.707,22.875,8.707,31.583,0c8.706-8.707,8.706-22.874,0-31.582l21.211-21.211c20.403,20.404,20.403,53.601,0,74.005
	C443.8,305.36,430.4,310.461,416.998,310.461z"/>
<polygon style="fill:#FFDAA3;" points="277.317,35.185 151.326,35.185 175.549,72.516 257.429,72.516 "/>
<rect x="352.279" y="99.185" style="fill:#FF9900;" width="83.374" height="29.998"/>
<path style="fill:#FEA6B2;" d="M277.535,412.824H151.326v-234.65h126.585L277.535,412.824z"/>
<rect x="-12.737" y="238.175" transform="matrix(-0.4802 -0.8772 0.8772 -0.4802 -167.197 407.2673)" style="fill:#999999;" width="99.626" height="29.999"/>
<path style="fill:#FFE7C3;" d="M264.444,334.787c-22.698-48.971-71.404-80.286-125.783-80.286S35.577,285.815,12.878,334.787
	H264.444z"/>
<path style="fill:#FFD99F;" d="M137.37,334.787h127.074c-22.698-48.971-71.404-80.286-125.783-80.286
	c-0.432,0-0.86,0.019-1.291,0.023L137.37,334.787L137.37,334.787z"/>
<path style="fill:#C6E9F9;" d="M0.004,323.164v14.999c0,76.455,62.202,138.657,138.657,138.657s138.656-62.202,138.656-138.657
	v-14.999H0.004z"/>
<path style="fill:#92D6F4;" d="M138.661,323.164V476.82c76.455,0,138.656-62.202,138.656-138.657v-14.999H138.661z"/>
<g>
</g>
<g>
</g>
<g>
</g>
<g>
</g>
<g>
</g>
<g>
</g>
<g>
</g>
<g>
</g>
<g>
</g>
<g>
</g>
<g>
</g>
<g>
</g>
<g>
</g>
<g>
</g>
<g>
</g>
</svg>
