<?xml version="1.0" encoding="iso-8859-1"?>
<!-- Generator: Adobe Illustrator 19.0.0, SVG Export Plug-In . SVG Version: 6.00 Build 0)  -->
<svg xmlns="http://www.w3.org/2000/svg" xmlns:xlink="http://www.w3.org/1999/xlink" version="1.1" id="Layer_1" x="0px" y="0px" viewBox="0 0 496 496" style="enable-background:new 0 0 496 496;" xml:space="preserve" width="512" height="512">
<g>
	<path style="fill:#FFE6B9;" d="M496,201.614v158.16c0,8.244-5.881,15.47-14.025,16.758c-19.503,3.125-32.699,18.976-35.185,35.13   c-1.311,8.189-8.569,14.092-16.859,14.092H16.803C7.528,425.754,0,418.227,0,408.951V197.212c0-2.689,0.639-5.287,1.837-7.629   c0.963-1.893,2.274-3.596,3.909-5.018L131.78,74.394c4.526-3.943,10.799-5.187,16.478-3.249l336.361,114.562   c2.408,0.829,4.548,2.162,6.296,3.876C494.095,192.675,496,196.977,496,201.614z"/>
	<path style="fill:#F8A73D;" d="M496,201.614v158.16c0,8.244-5.881,15.47-14.025,16.758c-19.503,3.125-32.699,18.976-35.185,35.13   c-1.311,8.189-8.569,14.092-16.859,14.092H16.803C7.528,425.754,0,418.227,0,408.951V197.212c0-2.689,0.639-5.287,1.837-7.629   h489.077C494.095,192.675,496,196.977,496,201.614z"/>
	<circle style="fill:#F0652B;" cx="103.617" cy="339.754" r="35.006"/>
	<circle style="fill:#F0652B;" cx="232.349" cy="271.508" r="36.161"/>
	<circle style="fill:#F0652B;" cx="378.316" cy="339.754" r="36.161"/>
</g>















</svg>
