<?xml version="1.0" encoding="iso-8859-1"?>
<!-- Generator: Adobe Illustrator 19.0.0, SVG Export Plug-In . SVG Version: 6.00 Build 0)  -->
<svg xmlns="http://www.w3.org/2000/svg" xmlns:xlink="http://www.w3.org/1999/xlink" version="1.1" id="Layer_1" x="0px" y="0px" viewBox="0 0 494.667 494.667" style="enable-background:new 0 0 494.667 494.667;" xml:space="preserve" width="512" height="512">
<g>
	<path style="fill:#FFE6B9;" d="M117.831,421.001c16.85,16.85,16.85,44.177,0,61.027c-16.85,16.85-44.177,16.85-61.027,0   c-8.69-8.69-12.884-20.162-12.614-31.552c-11.389,0.27-22.862-3.924-31.552-12.614c-16.85-16.85-16.85-44.177,0-61.027   c16.85-16.851,44.177-16.851,61.027,0l183.621-183.622l44.166,44.166L117.831,421.001z"/>
	<path style="fill:#FFCD76;" d="M117.831,421.001c16.85,16.85,16.85,44.177,0,61.027c-16.85,16.85-44.177,16.85-61.027,0   c-8.69-8.69-12.884-20.162-12.614-31.552l235.18-235.18l22.083,22.083L117.831,421.001z"/>
	<path style="fill:#F8A73D;" d="M444.344,236.259c-60.217,60.217-187.535,104.29-238.876,52.94   c-51.351-51.341-7.278-178.659,52.939-238.876S409.065-17.09,460.406,34.261C511.756,85.602,504.561,176.042,444.344,236.259z"/>
	<path style="fill:#F38531;" d="M444.344,236.259c-60.217,60.217-187.535,104.29-238.876,52.94L460.406,34.261   C511.756,85.602,504.561,176.042,444.344,236.259z"/>
</g>















</svg>
