<?xml version="1.0" encoding="iso-8859-1"?>
<!-- Generator: Adobe Illustrator 19.0.0, SVG Export Plug-In . SVG Version: 6.00 Build 0)  -->
<svg xmlns="http://www.w3.org/2000/svg" xmlns:xlink="http://www.w3.org/1999/xlink" version="1.1" id="Layer_1" x="0px" y="0px" viewBox="0 0 495 495" style="enable-background:new 0 0 495 495;" xml:space="preserve" width="512" height="512">
<g>
	<path style="fill:#FFCD76;" d="M392.7,15v465c0,8.28-6.71,15-15,15H117.3c-8.29,0-15-6.72-15-15V15c0-8.28,6.71-15,15-15h260.4   C385.99,0,392.7,6.72,392.7,15z"/>
	<path style="fill:#F8A73D;" d="M392.7,15v465c0,8.28-6.71,15-15,15H247.5V0h130.2C385.99,0,392.7,6.72,392.7,15z"/>
	<path style="fill:#F06570;" d="M407.87,247.5c0,62.29-5.05,124.58-15.17,186.25H102.3C92.18,372.08,87.13,309.79,87.13,247.5   s5.05-124.58,15.17-186.25h290.4C402.82,122.92,407.87,185.21,407.87,247.5z"/>
	<path style="fill:#ED484B;" d="M407.87,247.5c0,62.29-5.05,124.58-15.17,186.25H247.5V61.25h145.2   C402.82,122.92,407.87,185.21,407.87,247.5z"/>
	<path style="fill:#FFCD76;" d="M339.47,275.48c0,37.01-41.18,81.99-91.97,81.99s-91.97-44.979-91.97-81.99s41.18-14.61,91.97-14.61   S339.47,238.47,339.47,275.48z"/>
	<path style="fill:#F8A73D;" d="M339.47,275.48c0,37.01-41.18,81.99-91.97,81.99v-96.6C298.29,260.87,339.47,238.47,339.47,275.48z"/>
	<path style="fill:#FFE6B9;" d="M339.47,211.06c0,37.01-41.18,81.99-91.97,81.99s-91.97-44.98-91.97-81.99   c0-37.01,41.18-14.62,91.97-14.62S339.47,174.05,339.47,211.06z"/>
	<path style="fill:#FFCD76;" d="M339.47,211.06c0,37.01-41.18,81.99-91.97,81.99v-96.61C298.29,196.44,339.47,174.05,339.47,211.06z   "/>
</g>















</svg>
