<svg height="512pt" viewBox="0 -96 512 512" width="512pt" xmlns="http://www.w3.org/2000/svg"><path d="m437.789062 82.398438v80.710937c0 2.269531-1.839843 4.121094-4.117187 4.121094h-330.621094c-2.269531 0-4.121093-1.851563-4.121093-4.121094v-80.710937l5.320312-21.75h158.769531l5.339844 21.75 5.320313-21.75h158.960937zm0 0" fill="#5c3525"/><path d="m151.632812 0 20.136719 82.402344h96.59375l-19.371093-79.261719c-.453126-1.84375-2.105469-3.140625-4.003907-3.140625zm0 0" fill="#663b29"/><path d="m248.992188 3.140625c-.453126-1.84375-2.105469-3.140625-4.003907-3.140625h-30.90625c1.898438 0 3.554688 1.296875 4.003907 3.140625l19.371093 79.261719h30.90625zm0 0" fill="#5c3525"/><path d="m406.886719 82.402344v80.703125c0 2.277343-1.847657 4.121093-4.121094 4.121093h30.902344c2.277343 0 4.121093-1.84375 4.121093-4.121093v-80.703125zm0 0" fill="#573223"/><path d="m215.664062 0-20.140624 82.402344h-96.589844l19.371094-79.261719c.449218-1.84375 2.101562-3.140625 4.003906-3.140625zm0 0" fill="#804d36"/><path d="m321.0625 0 20.136719 82.402344h96.589843l-19.367187-79.261719c-.453125-1.84375-2.105469-3.140625-4.003906-3.140625zm0 0" fill="#663b29"/><path d="m418.421875 3.140625c-.453125-1.84375-2.105469-3.140625-4.003906-3.140625h-30.90625c1.898437 0 3.550781 1.296875 4.003906 3.140625l19.371094 79.261719h30.902343zm0 0" fill="#5c3525"/><path d="m385.09375 0-20.140625 82.402344h-96.589844l19.371094-79.261719c.449219-1.84375 2.101563-3.140625 4-3.140625zm0 0" fill="#804d36"/><path d="m195.523438 82.402344v84.824218h-92.46875c-2.277344 0-4.121094-1.84375-4.121094-4.121093v-80.703125zm0 0" fill="#663b29"/><path d="m263.898438 320h-122.75c-2.207032 0-4-1.789062-4-4v-188.128906c0-2.210938 1.792968-4 4-4h122.75c2.207031 0 4 1.789062 4 4v188.128906c0 2.210938-1.792969 4-4 4zm0 0" fill="#de4121"/><path d="m233.460938 210.609375v109.390625h-229.460938c-2.210938 0-4-1.789062-4-4v-81l5.949219-24.390625h157.53125l5.949219 24.390625 5.949218-24.390625zm0 0" fill="#5c3525"/><path d="m284.914062 157.523438-18.894531 77.472656h-96.589843l19.371093-79.433594c.449219-1.847656 2.101563-3.148438 4.003907-3.148438h88.105468c2.671875 0 4.636719 2.511719 4.003906 5.109376zm0 0" fill="#663b29"/><path d="m52.699219 152.414062 20.140625 82.582032h96.589844l-19.371094-79.429688c-.453125-1.847656-2.105469-3.152344-4.003906-3.152344zm0 0" fill="#663b29"/><path d="m150.058594 155.566406c-.453125-1.847656-2.105469-3.152344-4.003906-3.152344h-30.90625c1.898437 0 3.550781 1.300782 4.003906 3.152344l19.371094 79.429688h30.90625zm0 0" fill="#5c3525"/><path d="m116.730469 152.414062-20.140625 82.582032h-96.589844l19.371094-79.429688c.449218-1.847656 2.105468-3.152344 4.003906-3.152344zm0 0" fill="#804d36"/><path d="m507.875 320h-279.164062v-196.128906h279.164062c2.277344 0 4.125 1.847656 4.125 4.125v187.878906c0 2.277344-1.847656 4.125-4.125 4.125zm0 0" fill="#fe5555"/><path d="m507.878906 123.871094h-30.90625c2.277344 0 4.121094 1.847656 4.121094 4.128906v187.871094c0 2.28125-1.84375 4.128906-4.121094 4.128906h30.90625c2.277344 0 4.121094-1.847656 4.121094-4.128906v-187.871094c0-2.28125-1.84375-4.128906-4.121094-4.128906zm0 0" fill="#e84141"/><path d="m397.453125 123.871094h61.8125v196.128906h-61.8125zm0 0" fill="#fff0d0"/><path d="m96.589844 234.996094v85.003906h-92.589844c-2.210938 0-4-1.789062-4-4v-81.003906zm0 0" fill="#663b29"/></svg>