<?xml version="1.0" encoding="iso-8859-1"?>
<!-- Generator: Adobe Illustrator 19.0.0, SVG Export Plug-In . SVG Version: 6.00 Build 0)  -->
<svg xmlns="http://www.w3.org/2000/svg" xmlns:xlink="http://www.w3.org/1999/xlink" version="1.1" id="Layer_1" x="0px" y="0px" viewBox="0 0 501.333 501.333" style="enable-background:new 0 0 501.333 501.333;" xml:space="preserve" width="512" height="512">
<g>
	<path style="fill:#A8D384;" d="M370.216,278.071v206.825c0,9.076-7.362,16.438-16.438,16.438H147.555   c-9.075,0-16.438-7.362-16.438-16.438V278.631c0-10.914,0.561-21.827,1.651-32.678l19.397-191.156V16.439   c0-9.076,7.362-16.438,16.438-16.438h65.626c9.075,0,16.438,7.362,16.438,16.438v38.358l13.001,151.064   c0.862,12.336,11.131,21.91,23.499,21.91h32.751C347.693,227.771,370.216,250.294,370.216,278.071z"/>
	<path style="fill:#6AC186;" d="M370.216,278.071v206.825c0,9.076-7.362,16.438-16.438,16.438H250.667V54.797l13.001,151.064   c0.862,12.336,11.131,21.91,23.499,21.91h32.751C347.693,227.771,370.216,250.294,370.216,278.071z"/>
	<path style="fill:#4B90BF;" d="M250.667,16.438v38.356h-98.498V16.438C152.168,7.36,159.528,0,168.607,0h65.622   C243.307,0,250.667,7.36,250.667,16.438z"/>
	<path style="fill:#FFE6B9;" d="M341.432,329.73v83.008c0,8.598-6.968,15.576-15.576,15.576H175.477   c-8.608,0-15.576-6.978-15.576-15.576V329.73c0-8.598,6.968-15.576,15.576-15.576h150.379   C334.464,314.154,341.432,321.132,341.432,329.73z"/>
	<path style="fill:#FFCD76;" d="M341.432,329.73v83.008c0,8.598-6.968,15.576-15.576,15.576h-75.189v-114.16h75.189   C334.464,314.154,341.432,321.132,341.432,329.73z"/>
</g>















</svg>
