<svg height="512pt" viewBox="-59 0 511 512" width="512pt" xmlns="http://www.w3.org/2000/svg"><path d="m392.5 139.746094v331.066406c0 22.746094-18.464844 41.1875-41.242188 41.1875h-154.675781v-401.667969c0-50.945312 41.355469-92.242187 92.367188-92.242187h37.335937c.082032 11.074218 3.734375 21.851562 10.429688 30.6875l45.351562 59.90625c6.769532 8.945312 10.433594 19.851562 10.433594 31.0625zm0 0" fill="#fff0d0"/><path d="m382.066406 108.683594-45.351562-59.90625c-6.695313-8.835938-10.347656-19.613282-10.429688-30.6875h-30.949218c.085937 11.074218 3.734374 21.851562 10.429687 30.6875l45.351563 59.90625c6.773437 8.945312 10.4375 19.851562 10.4375 31.0625v331.066406c0 22.746094-18.464844 41.1875-41.246094 41.1875h30.949218c22.777344 0 41.242188-18.441406 41.242188-41.1875v-331.066406c0-11.210938-3.664062-22.117188-10.433594-31.0625zm0 0" fill="#edcfb2"/><path d="m326.28125 16.113281v1.976563c0 10.980468-3.515625 21.675781-10.035156 30.523437l-44.382813 60.234375c-6.515625 8.847656-10.03125 19.542969-10.03125 30.527344v331.4375c0 22.746094 18.464844 41.1875 41.253907 41.1875h-261.34375c-22.777344 0-41.242188-18.441406-41.242188-41.1875v-331.4375c0-10.984375 3.515625-21.679688 10.035156-30.527344l44.378906-60.234375c6.523438-8.847656 10.039063-19.542969 10.039063-30.523437v-1.976563c0-8.898437 7.222656-16.113281 16.132813-16.113281h229.0625c8.910156 0 16.132812 7.214844 16.132812 16.113281zm0 0" fill="#f5b387"/><path d="m310.148438 0h-30.945313c8.910156 0 16.132813 7.214844 16.132813 16.113281v1.976563c0 10.980468-3.519532 21.675781-10.035157 30.523437l-44.382812 60.234375c-6.519531 8.847656-10.035157 19.542969-10.035157 30.527344v331.4375c0 22.746094 18.464844 41.1875 41.253907 41.1875h30.949219c-22.789063 0-41.253907-18.441406-41.253907-41.1875v-331.4375c0-10.984375 3.515625-21.679688 10.03125-30.527344l44.382813-60.234375c6.519531-8.847656 10.035156-19.542969 10.035156-30.523437v-1.976563c0-8.898437-7.222656-16.113281-16.132812-16.113281zm0 0" fill="#db9a6c"/><path d="m326.105469 130.710938c-4.140625 0-7.5 3.355468-7.5 7.5v315.234374c0 4.140626 3.359375 7.5 7.5 7.5 4.144531 0 7.5-3.359374 7.5-7.5v-315.234374c0-4.144532-3.355469-7.5-7.5-7.5zm0 0" fill="#cfb49b"/><path d="m248.007812 25.980469h-123.621093c-4.140625 0-7.5 3.359375-7.5 7.5s3.359375 7.5 7.5 7.5h123.621093c4.144532 0 7.5-3.359375 7.5-7.5s-3.355468-7.5-7.5-7.5zm0 0" fill="#fff0d0"/><path d="m.5 188.007812h261.328125v195.734376h-261.328125zm0 0" fill="#ffd659"/><path d="m230.882812 188.007812h30.945313v195.734376h-30.945313zm0 0" fill="#ffbd54"/><path d="m178.988281 286.90625c0-39.828125-23.0625-72.113281-51.511719-72.113281-28.445312 0-51.507812 32.285156-51.507812 72.113281 0 39.824219 23.0625 72.113281 51.507812 72.113281 28.449219 0 51.511719-32.289062 51.511719-72.113281zm0 0" fill="#804d36"/><path d="m127.476562 214.792969c-5.382812 0-10.574218 1.160156-15.453124 3.304687 20.898437 9.191406 36.058593 36.519532 36.058593 68.808594 0 32.285156-15.160156 59.617188-36.058593 68.804688 4.878906 2.144531 10.070312 3.304687 15.453124 3.304687 28.449219 0 51.511719-32.285156 51.511719-72.113281 0-39.824219-23.0625-72.109375-51.511719-72.109375zm0 0" fill="#663b29"/><path d="m127.476562 244.148438c-4.140624 0-7.5 3.355468-7.5 7.5v76.445312c0 4.140625 3.359376 7.5 7.5 7.5 4.144532 0 7.5-3.359375 7.5-7.5v-76.445312c0-4.144532-3.355468-7.5-7.5-7.5zm0 0" fill="#5c3525"/></svg>