<?xml version="1.0" encoding="iso-8859-1"?>
<!-- Generator: Adobe Illustrator 19.0.0, SVG Export Plug-In . SVG Version: 6.00 Build 0)  -->
<svg xmlns="http://www.w3.org/2000/svg" xmlns:xlink="http://www.w3.org/1999/xlink" version="1.1" id="Layer_1" x="0px" y="0px" viewBox="0 0 458.436 458.436" style="enable-background:new 0 0 458.436 458.436;" xml:space="preserve" width="512" height="512">
<g>
	<path style="fill:#FFCD76;" d="M417.378,328.658c-18.42,5.923-32.65,22.907-32.65,45.86c0.72,32.46-30.88,55.89-61.74,45.75   c-19.79-6.5-41.5,0.78-53.36,17.9c-18.468,26.626-57.804,27.102-76.84,0.73c-12.145-16.826-33.947-23.774-53.7-16.88   c-30.304,10.588-62.59-11.567-62.59-44.74c0-20.76-13.62-39.09-33.52-45.06c-31.115-9.359-43.601-46.666-24.44-72.85   c12.209-16.681,12.177-39.591-0.53-56.29c-19.67-25.829-7.881-63.365,23.05-73.3c18.42-5.923,32.65-22.907,32.65-45.86   c-0.72-32.46,30.88-55.89,61.74-45.75c19.734,6.482,41.481-0.745,53.36-17.9c9.758-14.069,25.683-20.979,40.41-20.21   c13.79,0.49,27.4,6.97,36.43,19.48c12.145,16.826,33.947,23.774,53.7,16.88c30.725-10.735,62.698,12.164,62.59,44.58v0.16   c0,20.76,13.62,39.09,33.52,45.06c31.115,9.359,43.601,46.666,24.44,72.85c-12.209,16.681-12.177,39.591,0.53,56.29   C460.098,281.185,448.31,318.723,417.378,328.658z"/>
	<path style="fill:#F8A73D;" d="M417.378,328.658c-18.42,5.923-32.65,22.907-32.65,45.86c0.72,32.46-30.88,55.89-61.74,45.75   c-19.79-6.5-41.5,0.78-53.36,17.9c-9.758,14.069-25.683,20.979-40.41,20.21V0.058c13.79,0.49,27.4,6.97,36.43,19.48   c12.145,16.826,33.947,23.774,53.7,16.88c30.725-10.735,62.698,12.164,62.59,44.58v0.16c0,20.76,13.62,39.09,33.52,45.06   c31.115,9.359,43.601,46.666,24.44,72.85c-12.209,16.681-12.177,39.591,0.53,56.29C460.098,281.185,448.31,318.723,417.378,328.658   z"/>
	<path style="fill:#F8A73D;" d="M244.218,118.968v6c0,8.28-6.72,15-15,15s-15-6.72-15-15v-6c0-8.29,6.72-15,15-15   S244.218,110.678,244.218,118.968z"/>
	<path style="fill:#F38531;" d="M244.218,118.968v6c0,8.28-6.72,15-15,15v-36C237.498,103.968,244.218,110.678,244.218,118.968z"/>
	<path style="fill:#F8A73D;" d="M244.218,333.468v6c0,8.29-6.72,15-15,15s-15-6.71-15-15v-6c0-8.28,6.72-15,15-15   S244.218,325.188,244.218,333.468z"/>
	<path style="fill:#F38531;" d="M244.218,333.468v6c0,8.29-6.72,15-15,15v-36C237.498,318.468,244.218,325.188,244.218,333.468z"/>
	<path style="fill:#F38531;" d="M313.543,166.106l4.243-4.243c5.858-5.857,5.858-15.355,0-21.213   c-5.857-5.857-15.355-5.857-21.213,0l-4.243,4.243c-5.858,5.857-5.858,15.355,0,21.213   C298.189,171.964,307.686,171.963,313.543,166.106z"/>
	<path style="fill:#F8A73D;" d="M144.891,292.33l-4.243,4.243c-5.857,5.858-5.857,15.356,0.001,21.214   c5.858,5.857,15.355,5.856,21.213-0.001l4.243-4.243c5.857-5.858,5.857-15.356-0.001-21.214S150.75,286.473,144.891,292.33z"/>
	<path style="fill:#F38531;" d="M339.473,214.218h-6c-8.284,0-15,6.716-15,15s6.716,15,15,15h6c8.284,0,15-6.716,15-15   S347.757,214.218,339.473,214.218z"/>
	<path style="fill:#F8A73D;" d="M124.964,214.218h-6c-8.284,0-15,6.716-15,15s6.716,15,15,15h6c8.284,0,15-6.716,15-15   S133.248,214.218,124.964,214.218z"/>
	<path style="fill:#F38531;" d="M313.543,292.33c-5.857-5.857-15.355-5.857-21.213,0c-5.858,5.857-5.858,15.355,0,21.213   l4.243,4.243c5.858,5.858,15.355,5.858,21.213,0c5.858-5.857,5.858-15.355,0-21.213L313.543,292.33z"/>
	<path style="fill:#F8A73D;" d="M161.864,140.65c-5.858-5.856-15.355-5.857-21.213-0.001c-5.858,5.857-5.859,15.355-0.001,21.214   l4.243,4.243c5.859,5.858,15.354,5.858,21.213,0.001c5.858-5.857,5.859-15.355,0.001-21.214L161.864,140.65z"/>
</g>















</svg>
