<svg height="512pt" viewBox="0 0 512 512" width="512pt" xmlns="http://www.w3.org/2000/svg"><path d="m331 0c-26.699219 0-51.898438 6-75 16.800781-23.101562 10.5-43.5 27.097657-60 45.699219-24.601562 27.597656-40.800781 63.300781-44.097656 102.300781l-1.203125 16.199219h90.300781c5.097656 0 10.199219-.601562 15-1.800781v-.300781c.902344 0 2.101562-.296876 3-.898438 2.699219-.601562 4.800781-1.5 7.199219-2.699219 3-1.203125 5.703125-2.703125 8.402343-4.5 5.699219-3.902343 10.796876-9 15-14.703125 11.699219 18.902344 14.699219 42.300782 7.199219 65.402344l-6.300781 19.5h40.5v60h30v5.097656c0 11.402344-.601562 22.203125-2.101562 31.800782l-2.996094 22.5 21.898437-6c78.296875-21 134.199219-92.398438 134.199219-173.398438 0-99.300781-81.699219-181-181-181zm0 0" fill="#ffcebf"/><path d="m512 181c0 81-55.902344 152.398438-134.199219 173.398438l-21.898437 6 2.996094-22.5c1.5-9.597657 2.101562-20.398438 2.101562-31.800782v-5.097656h-30v-60h-40.5l6.300781-19.5c7.5-23.101562 4.5-46.5-7.199219-65.402344-4.203124 5.703125-9.300781 10.800782-15 14.703125-2.699218 1.796875-5.402343 3.296875-8.402343 4.5-2.398438 1.199219-4.5 2.097657-7.199219 2.699219-.898438.601562-2.097656.898438-3 .898438v.300781c-4.800781 1.199219-9.902344 1.800781-15 1.800781h-45v-118.5c16.5-18.601562 36.898438-35.199219 60-45.699219 23.101562-10.800781 48.300781-16.800781 75-16.800781 99.300781 0 181 81.699219 181 181zm0 0" fill="#ffbd86"/><path d="m295.300781 117.101562-20.101562-17.402343-4.5 26.398437c-.300781.902344-.300781 1.199219-.601563 1.5-1.5 8.402344-6.898437 15.300782-14.097656 19.503906-4.503906 2.398438-9.601562 3.898438-15 3.898438h-105c-41.398438 0-76 33.601562-76 75v15h262l3.601562-10.5c13.199219-42 1.796876-85.5-30.300781-113.398438zm0 0" fill="#e0f4ff"/><path d="m275.199219 99.699219-4.5 26.398437c-.300781.902344-.300781 1.199219-.601563 1.5-1.5 8.402344-6.898437 15.300782-14.097656 19.503906-4.503906 2.398438-9.601562 3.898438-15 3.898438h-45v90h126l3.597656-10.5c13.203125-42 1.800782-85.5-30.296875-113.398438zm0 0" fill="#bbdcff"/><path d="m361 301h-331v-90h331zm0 0" fill="#596c76"/><path d="m196 211h165v90h-165zm0 0" fill="#465a61"/><path d="m324.128906 512h-256.257812l-9.9375-13.710938c-37.867188-56.644531-57.933594-123.8125-57.933594-192.191406v-35.097656h391v35.097656c0 12.847656-.746094 24.917969-2.226562 35.902344-5.289063 54.992188-24.609376 109.941406-55.824219 156.464844zm0 0" fill="#fdbf00"/><path d="m196 512h128.128906l8.820313-13.535156c31.214843-46.523438 50.535156-101.472656 55.824219-156.464844 1.480468-10.984375 2.226562-23.054688 2.226562-35.902344v-35.097656h-195zm0 0" fill="#ff9100"/><path d="m196 451c-33.089844 0-60-26.910156-60-60s26.910156-60 60-60 60 26.910156 60 60-26.910156 60-60 60zm0 0" fill="#e0f4ff"/><path d="m256 391c0-33.089844-26.910156-60-60-60v120c33.089844 0 60-26.910156 60-60zm0 0" fill="#bbdcff"/></svg>