<svg height="512pt" viewBox="-67 0 512 512" width="512pt" xmlns="http://www.w3.org/2000/svg"><path d="m378.179688 381.296875c-3.316407-99.734375-32.117188-208.9375-86.417969-306.609375h-205.007813c-59.625 107.25-88.515625 228.410156-86.6718748 335.660156.9726568 56.394532 46.8593748 101.652344 103.2656248 101.652344h161.816406c56.402344 0 112.296876-45.257812 113.269532-101.648438zm-77.972657-37.046875c-13.949219 2.269531-27.089843-7.199219-29.359375-21.144531l-13.945312-85.757813c-2.265625-13.945312 7.199218-27.089844 21.144531-29.359375 13.949219-2.265625 27.089844 7.199219 29.359375 21.148438l13.945312 85.757812c2.265626 13.945313-7.199218 27.089844-21.144531 29.355469zm0 0" fill="#68a1d7"/><path d="m378.179688 381.296875c-3.316407-99.734375-32.117188-208.9375-86.417969-306.609375h-45.84375c54.300781 97.671875 83.101562 206.875 86.421875 306.609375l.25 29.054687c-.972656 56.390626-56.867188 101.648438-113.269532 101.648438h45.84375c56.402344 0 112.296876-45.257812 113.269532-101.648438zm0 0" fill="#5d8fbf"/><path d="m259.164062 391.03125c-11.917968-22.785156-21.527343-46.304688-28.800781-70.566406-5.429687-18.109375-8.800781-36.777344-10.34375-55.621094l-7.914062-96.582031c-1.199219-14.640625-8.777344-26.351563-19.242188-33.660157-8.601562-6.523437-18.25-9.171874-28.84375-8.339843-9.292969.480469-18.644531 3.867187-26.742187 10.722656-28.398438 24.042969-52.167969 51.859375-70.027344 84.480469-23.0625 42.128906-29.894531 91.292968-20.011719 138.292968.632813 3.011719 1.304688 6.003907 2.015625 8.972657 11.917969 49.863281 56.445313 85.0625 107.714844 85.0625h64.011719c32.230469.003906 53.121093-34.207031 38.183593-62.761719zm0 0" fill="#ffb30f"/><path d="m259.164062 391.03125c-11.917968-22.785156-21.527343-46.304688-28.800781-70.566406-5.429687-18.109375-8.800781-36.777344-10.34375-55.621094l-7.914062-96.582031c-1.199219-14.640625-8.777344-26.351563-19.242188-33.660157-8.601562-6.523437-18.25-9.171874-28.84375-8.339843-4.933593.253906-9.878906 1.328125-14.648437 3.304687 2.925781 1.296875 5.75 2.972656 8.464844 5.035156 10.46875 7.308594 18.046874 19.019532 19.246093 33.664063l7.910157 96.582031c1.546874 18.84375 4.914062 37.507813 10.34375 55.621094 7.273437 24.261719 16.882812 47.777344 28.800781 70.5625 14.9375 28.558594-5.953125 62.765625-38.179688 62.765625h35.023438c32.230469 0 53.121093-34.210937 38.183593-62.765625zm0 0" fill="#d6960d"/><path d="m280.507812 48.507812h-182.5v-40.800781c0-4.257812 3.449219-7.707031 7.703126-7.707031h167.09375c4.253906 0 7.707031 3.449219 7.707031 7.707031v40.800781zm0 0" fill="#f94530"/><path d="m272.570312 0h-35.792968c4.382812 0 7.9375 3.554688 7.9375 7.9375v40.570312h35.792968v-40.570312c0-4.382812-3.550781-7.9375-7.9375-7.9375zm0 0" fill="#d43b29"/><path d="m292.152344 74.6875h-205.789063c-3.671875 0-6.648437-2.976562-6.648437-6.644531v-12.886719c0-3.671875 2.976562-6.648438 6.648437-6.648438h205.789063c3.671875 0 6.648437 2.976563 6.648437 6.648438v12.886719c0 3.667969-2.976562 6.644531-6.648437 6.644531zm0 0" fill="#68a1d7"/><path d="m245.359375 48.507812v26.179688h46.59375c3.78125 0 6.847656-3.066406 6.847656-6.847656v-12.484375c0-3.78125-3.066406-6.847657-6.847656-6.847657zm0 0" fill="#5d8fbf"/><g fill="#5c5c5c"><path d="m179.300781 312.824219h-94.777343c-4.265626 0-7.726563 3.457031-7.726563 7.726562 0 4.265625 3.460937 7.722657 7.726563 7.722657h94.777343c4.265625 0 7.726563-3.457032 7.726563-7.722657 0-4.269531-3.460938-7.726562-7.726563-7.726562zm0 0"/><path d="m179.300781 360.898438h-94.777343c-4.265626 0-7.726563 3.457031-7.726563 7.726562 0 4.265625 3.460937 7.726562 7.726563 7.726562h94.777343c4.265625 0 7.726563-3.460937 7.726563-7.726562 0-4.269531-3.460938-7.726562-7.726563-7.726562zm0 0"/></g></svg>