<?xml version="1.0" encoding="iso-8859-1"?>
<!-- Generator: Adobe Illustrator 19.0.0, SVG Export Plug-In . SVG Version: 6.00 Build 0)  -->
<svg xmlns="http://www.w3.org/2000/svg" xmlns:xlink="http://www.w3.org/1999/xlink" version="1.1" id="Layer_1" x="0px" y="0px" viewBox="0 0 490 490" style="enable-background:new 0 0 490 490;" xml:space="preserve" width="512" height="512">
<g>
	<path style="fill:#F8A73D;" d="M460.14,390.86c-3.34,51.29-46,91.86-98.14,91.86c-43.1,0-79.71-27.72-93-66.3   c-3.443-9.947-12.67-16.7-23.19-16.7c-0.27,0-0.54,0-0.81,0.021c-10.75,0.35-19.94,7.75-22.83,18.19   C210.68,459.49,172.59,490,127.38,490c-54.69,0-98.95-44.64-98.34-99.46c0.56-50.7,40.01-92.35,89.49-96.83   c0.22-0.02,0.43-0.04,0.65-0.06c16.48-1.37,28.92-15.74,27.39-32.21c-5.14-55.46,39.01-107.73,98.43-107.34   c57.972,0.344,99.685,47.135,98.05,101.26c-0.49,16.08,11.53,29.57,27.55,31.01C421.81,290.99,463.69,336.19,460.14,390.86z"/>
	<path style="fill:#F38531;" d="M460.14,390.86c-3.34,51.29-46,91.86-98.14,91.86c-43.1,0-79.71-27.72-93-66.3   c-3.443-9.947-12.67-16.7-23.19-16.7c-0.27,0-0.54,0-0.81,0.021V154.1c57.972,0.344,99.685,47.135,98.05,101.26   c-0.49,16.08,11.53,29.57,27.55,31.01C421.81,290.99,463.69,336.19,460.14,390.86z"/>
	<path style="fill:#F8A73D;" d="M199.636,82.325c-3.778,21.427-24.211,35.734-45.638,31.956s-35.734-24.211-31.956-45.638   C125.82,47.217,152.687-3.578,174.114,0.2S203.414,60.899,199.636,82.325z"/>
	<path style="fill:#F38531;" d="M367.958,68.644c3.778,21.427-10.529,41.86-31.956,45.638c-21.427,3.778-41.86-10.529-45.638-31.956   S294.459,3.978,315.886,0.2C337.313-3.578,364.18,47.217,367.958,68.644z"/>
	<path style="fill:#F8A73D;" d="M87.317,187.541c0,21.757-17.638,39.395-39.395,39.395S8.527,209.298,8.527,187.541   s17.638-76.446,39.395-76.446S87.317,165.784,87.317,187.541z"/>
	<path style="fill:#F38531;" d="M481.473,187.541c0,21.757-17.638,39.395-39.395,39.395s-39.395-17.638-39.395-39.395   s17.638-76.446,39.395-76.446S481.473,165.784,481.473,187.541z"/>
</g>















</svg>
