<?xml version="1.0" encoding="iso-8859-1"?>
<!-- Generator: Adobe Illustrator 19.0.0, SVG Export Plug-In . SVG Version: 6.00 Build 0)  -->
<svg xmlns="http://www.w3.org/2000/svg" xmlns:xlink="http://www.w3.org/1999/xlink" version="1.1" id="Layer_1" x="0px" y="0px" viewBox="0 0 471.34 471.34" style="enable-background:new 0 0 471.34 471.34;" xml:space="preserve" width="512" height="512">
<g>
	<path style="fill:#F8A73D;" d="M235.67,0C105.51,0,0,105.51,0,235.67s105.51,235.67,235.67,235.67s235.67-105.51,235.67-235.67   S365.83,0,235.67,0z M235.67,324.98c-49.32,0-89.31-39.99-89.31-89.31s39.99-89.31,89.31-89.31s89.31,39.99,89.31,89.31   S284.99,324.98,235.67,324.98z"/>
	<path style="fill:#F38531;" d="M471.34,235.67c0,130.16-105.51,235.67-235.67,235.67V324.98c49.32,0,89.31-39.99,89.31-89.31   s-39.99-89.31-89.31-89.31V0C365.83,0,471.34,105.51,471.34,235.67z"/>
	<path style="fill:#FFCD76;" d="M362.197,138.526c5.858,5.858,15.355,5.858,21.213,0c5.858-5.857,5.858-15.355,0-21.213l-25-25   c-5.857-5.857-15.355-5.857-21.213,0c-5.858,5.857-5.858,15.355,0,21.213L362.197,138.526z"/>
	<path style="fill:#FFE6B9;" d="M109.197,151.276c5.858,5.858,15.355,5.858,21.213,0c5.858-5.857,5.858-15.355,0-21.213l-25-25   c-5.857-5.857-15.355-5.857-21.213,0c-5.858,5.857-5.858,15.355,0,21.213L109.197,151.276z"/>
	<path style="fill:#FFE6B9;" d="M70.447,225.064l-25,25c-5.858,5.857-5.858,15.355,0,21.213c5.858,5.858,15.355,5.858,21.213,0   l25-25c5.858-5.857,5.858-15.355,0-21.213C85.803,219.206,76.305,219.206,70.447,225.064z"/>
	<path style="fill:#FFE6B9;" d="M130.41,338.564c-5.857-5.857-15.355-5.857-21.213,0c-5.858,5.857-5.858,15.355,0,21.213l25,25   c5.858,5.858,15.355,5.858,21.213,0c5.858-5.857,5.858-15.355,0-21.213L130.41,338.564z"/>
	<path style="fill:#FFE6B9;" d="M253.41,72.03l-25,25c-5.844,5.845-15.347,5.863-21.21,0c-5.86-5.86-5.86-15.36,0-21.22l25-25   c1.05-1.05,2.22-1.91,3.47-2.58c5.68-3.08,12.93-2.22,17.74,2.58C259.27,56.67,259.27,66.17,253.41,72.03z"/>
	<path style="fill:#FFCD76;" d="M253.41,72.03l-17.74,17.74V48.23c5.68-3.08,12.93-2.22,17.74,2.58   C259.27,56.67,259.27,66.17,253.41,72.03z"/>
	<path style="fill:#FFCD76;" d="M424.91,221.064c-5.857-5.857-15.355-5.857-21.213,0l-25,25c-5.858,5.857-5.858,15.355,0,21.213   c5.858,5.858,15.355,5.858,21.213,0l25-25C430.768,236.419,430.768,226.921,424.91,221.064z"/>
	<path style="fill:#FFE6B9;" d="M265.91,396.4l-25,25c-5.825,5.825-15.327,5.883-21.21,0c-5.86-5.86-5.86-15.35,0-21.21l25-25   c5.85-5.86,15.35-5.86,21.21,0S271.77,390.54,265.91,396.4z"/>
	<path style="fill:#FFCD76;" d="M265.91,396.4l-25,25c-1.54,1.54-3.33,2.67-5.24,3.4v-40.58l9.03-9.03c5.85-5.86,15.35-5.86,21.21,0   S271.77,390.54,265.91,396.4z"/>
	<path style="fill:#FFCD76;" d="M358.66,326.064c-5.857-5.857-15.355-5.857-21.213,0c-5.858,5.857-5.858,15.355,0,21.213l25,25   c5.858,5.858,15.355,5.858,21.213,0c5.858-5.857,5.858-15.355,0-21.213L358.66,326.064z"/>
</g>















</svg>
