<?xml version="1.0" encoding="iso-8859-1"?>
<!-- Generator: Adobe Illustrator 19.0.0, SVG Export Plug-In . SVG Version: 6.00 Build 0)  -->
<svg xmlns="http://www.w3.org/2000/svg" xmlns:xlink="http://www.w3.org/1999/xlink" version="1.1" id="Layer_1" x="0px" y="0px" viewBox="0 0 496 496" style="enable-background:new 0 0 496 496;" xml:space="preserve" width="512" height="512">
<g>
	<path style="fill:#F8A73D;" d="M307.88,114.639c0,41.27-26.81,74.73-59.88,74.73s-59.88-33.46-59.88-74.73   c0-41.27,26.81-74.72,59.88-74.72S307.88,73.369,307.88,114.639z"/>
	<path style="fill:#F38531;" d="M248,189.369V39.919c33.07,0,59.88,33.45,59.88,74.72C307.88,155.909,281.07,189.369,248,189.369z"/>
	<ellipse style="fill:#FFE6B9;" cx="169.891" cy="217.755" rx="59.877" ry="74.725"/>
	<ellipse style="fill:#FFCD76;" cx="325.938" cy="219.682" rx="59.877" ry="74.725"/>
	<ellipse style="fill:#F8A73D;" cx="90.891" cy="320.867" rx="59.877" ry="74.725"/>
	<path style="fill:#F8A73D;" d="M307.88,320.869c0,41.27-26.81,74.72-59.88,74.72s-59.88-33.45-59.88-74.72s26.81-74.73,59.88-74.73   S307.88,279.599,307.88,320.869z"/>
	<path style="fill:#F38531;" d="M307.88,320.869c0,41.27-26.81,74.72-59.88,74.72v-149.45   C281.07,246.139,307.88,279.599,307.88,320.869z"/>
	<ellipse style="fill:#F38531;" cx="405.109" cy="320.867" rx="59.877" ry="74.725"/>
	<path style="fill:#C2E5E6;" d="M137.12,456.081H54.972c-7.945,0-14.607-5.999-15.437-13.9l-8.522-81.136h130.066l-8.522,81.136   C151.727,450.082,145.065,456.081,137.12,456.081z"/>
	<path style="fill:#C2E5E6;" d="M313.03,361.049l-8.52,81.13c-0.83,7.9-7.49,13.9-15.44,13.9h-82.14c-7.95,0-14.61-6-15.44-13.9   l-8.52-81.13H313.03z"/>
	<path style="fill:#98D5D2;" d="M313.03,361.049l-8.52,81.13c-0.83,7.9-7.49,13.9-15.44,13.9H248v-95.03H313.03z"/>
	<path style="fill:#98D5D2;" d="M441.028,456.081H358.88c-7.945,0-14.607-5.999-15.437-13.9l-8.522-81.136h130.066l-8.522,81.136   C455.634,450.082,448.972,456.081,441.028,456.081z"/>
	<path style="fill:#6AA5D5;" d="M496,355.609c0,13.67-11.08,24.74-24.74,24.74H24.74c-13.66,0-24.74-11.07-24.74-24.74   c0-6.83,2.77-13.01,7.25-17.49c4.47-4.48,10.66-7.25,17.49-7.25h446.52C484.92,330.869,496,341.949,496,355.609z"/>
	<path style="fill:#4B90BF;" d="M496,355.609c0,13.67-11.08,24.74-24.74,24.74H248v-49.48h223.26   C484.92,330.869,496,341.949,496,355.609z"/>
</g>















</svg>
