<?xml version="1.0" encoding="iso-8859-1"?>
<!-- Generator: Adobe Illustrator 19.0.0, SVG Export Plug-In . SVG Version: 6.00 Build 0)  -->
<svg xmlns="http://www.w3.org/2000/svg" xmlns:xlink="http://www.w3.org/1999/xlink" version="1.1" id="Layer_1" x="0px" y="0px" viewBox="0 0 492.318 492.318" style="enable-background:new 0 0 492.318 492.318;" xml:space="preserve" width="512" height="512">
<g>
	<path style="fill:#FFE6B9;" d="M311.246,4.394c-5.857-5.857-15.355-5.857-21.213,0l-52.83,52.83   c-5.858,5.857-5.858,15.355,0,21.213c5.858,5.858,15.355,5.858,21.213,0l52.83-52.83C317.105,19.75,317.105,10.251,311.246,4.394z"/>
	<path style="fill:#FFE6B9;" d="M363.509,56.657c-5.856-5.858-15.354-5.858-21.213,0l-52.831,52.83   c-5.858,5.857-5.858,15.355,0,21.213c5.856,5.858,15.354,5.859,21.213,0l52.831-52.83   C369.367,72.012,369.367,62.514,363.509,56.657z"/>
	<path style="fill:#4B90BF;" d="M243.831,124.071c-5.857-5.857-15.355-5.857-21.213,0L4.394,342.295   c-5.858,5.857-5.858,15.355,0,21.213c5.858,5.858,15.355,5.858,21.213,0l218.224-218.224   C249.689,139.427,249.689,129.929,243.831,124.071z"/>
	<path style="fill:#F38531;" d="M184.535,183.367L184.535,183.367c-27.993-27.993-27.993-73.379,0-101.373l40.08-40.08   c5.858-5.858,15.355-5.858,21.213,0l80.16,80.16c5.858,5.858,5.858,15.355,0,21.213l-40.08,40.08   C257.914,211.361,212.528,211.361,184.535,183.367z"/>
	<path style="fill:#C2E5E6;" d="M181.071,487.924c5.857,5.857,15.355,5.857,21.213,0l52.83-52.83c5.858-5.857,5.858-15.355,0-21.213   c-5.858-5.858-15.355-5.858-21.213,0l-52.83,52.83C175.213,472.568,175.213,482.066,181.071,487.924z"/>
	<path style="fill:#C2E5E6;" d="M128.809,435.661c5.856,5.858,15.354,5.858,21.213,0l52.831-52.83   c5.858-5.857,5.858-15.355,0-21.213c-5.856-5.858-15.354-5.859-21.213,0l-52.831,52.83   C122.95,420.305,122.95,429.803,128.809,435.661z"/>
	<path style="fill:#F8A73D;" d="M248.487,368.246c5.857,5.857,15.355,5.857,21.213,0l218.224-218.224   c5.858-5.857,5.858-15.355,0-21.213c-5.858-5.858-15.355-5.858-21.213,0L248.487,347.034   C242.628,352.891,242.628,362.389,248.487,368.246z"/>
	<path style="fill:#4B90BF;" d="M307.783,308.95L307.783,308.95c27.993,27.993,27.993,73.38,0,101.373l-40.08,40.08   c-5.858,5.858-15.355,5.858-21.213,0l-80.16-80.16c-5.858-5.858-5.858-15.355,0-21.213l40.08-40.08   C234.403,280.957,279.789,280.957,307.783,308.95z"/>
</g>















</svg>
