<?xml version="1.0" encoding="iso-8859-1"?>
<!-- Generator: Adobe Illustrator 19.0.0, SVG Export Plug-In . SVG Version: 6.00 Build 0)  -->
<svg xmlns="http://www.w3.org/2000/svg" xmlns:xlink="http://www.w3.org/1999/xlink" version="1.1" id="Layer_1" x="0px" y="0px" viewBox="0 0 494 494" style="enable-background:new 0 0 494 494;" xml:space="preserve" width="512" height="512">
<g>
	<path style="fill:#FFE6B9;" d="M254.962,28.015c-6.494-0.849-12.256,4.216-12.256,10.765v103.055h93.679v-20.936   C336.385,73.291,300.886,34.018,254.962,28.015z"/>
	<path style="fill:#FFCD76;" d="M242.706,352.165V455.22c0,6.549,5.762,11.613,12.256,10.765   c45.924-6.002,81.423-45.275,81.423-92.884v-20.936H242.706z"/>
	<path style="fill:#FFE6B9;" d="M124.55,222.97v48.06c0,43.09-34.93,78.01-78.01,78.01H15c-8.28,0-15-6.71-15-15v-9.03   C0,281.93,34.93,247,78.01,247C34.93,247,0,212.07,0,168.99v-9.03c0-8.29,6.72-15,15-15h31.54   C89.62,144.96,124.55,179.88,124.55,222.97z"/>
	<path style="fill:#FFCD76;" d="M124.55,247v24.03c0,43.09-34.93,78.01-78.01,78.01H15c-8.28,0-15-6.71-15-15v-9.03   C0,281.93,34.93,247,78.01,247H124.55z"/>
	<path style="fill:#F8A73D;" d="M494,247c0,65.53-68.19,119.75-157.62,131.04c-11.24,1.42-22.82,2.16-34.64,2.16   c-106.18,0-192.26-59.64-192.26-133.2c0-73.57,86.08-133.2,192.26-133.2c11.82,0,23.4,0.74,34.64,2.17   C425.88,127.25,494,181.51,494,247z"/>
	<path style="fill:#F38531;" d="M494,247c0,65.53-68.19,119.75-157.62,131.04c-11.24,1.42-22.82,2.16-34.64,2.16   c-106.18,0-192.26-59.64-192.26-133.2H494z"/>
	<path style="fill:#FFE6B9;" d="M494,247c0,65.53-68.19,119.75-157.62,131.04V115.97C425.88,127.25,494,181.51,494,247z"/>
	<path style="fill:#FFCD76;" d="M494,247c0,65.53-68.19,119.75-157.62,131.04V247H494z"/>
	<path style="fill:#F8A73D;" d="M429.69,236.72v20.56c0,8.98-7.28,16.27-16.27,16.27c-8.98,0-16.27-7.29-16.27-16.27v-20.56   c0-8.99,7.29-16.27,16.27-16.27C422.41,220.45,429.69,227.73,429.69,236.72z"/>
	<path style="fill:#F38531;" d="M429.69,247v10.28c0,8.98-7.28,16.27-16.27,16.27c-8.98,0-16.27-7.29-16.27-16.27V247H429.69z"/>
	<path style="fill:#FFE6B9;" d="M214.34,270.07c0,8.99-7.29,16.27-16.28,16.27c-22.31,0-40.62-17.4-42.09-39.34   c-0.06-0.94-0.09-1.89-0.09-2.84c0-23.26,18.92-42.19,42.18-42.19c8.99,0,16.28,7.28,16.28,16.27s-7.29,16.27-16.28,16.27   c-5.31,0-9.64,4.33-9.64,9.65c0,0.99,0.15,1.94,0.42,2.84c1.22,3.93,4.89,6.8,9.22,6.8C207.05,253.8,214.34,261.09,214.34,270.07z"/>
	<path style="fill:#FFCD76;" d="M214.34,270.07c0,8.99-7.29,16.27-16.28,16.27c-22.31,0-40.62-17.4-42.09-39.34h32.87   c1.22,3.93,4.89,6.8,9.22,6.8C207.05,253.8,214.34,261.09,214.34,270.07z"/>
	<path style="fill:#FFE6B9;" d="M276.69,202.1c-5.319,0-9.647-4.327-9.647-9.646s4.328-9.647,9.647-9.647   c8.986,0,16.27-7.285,16.27-16.27s-7.285-16.27-16.27-16.27c-23.262,0-42.187,18.925-42.187,42.187s18.925,42.187,42.187,42.187   c8.986,0,16.27-7.285,16.27-16.27S285.676,202.1,276.69,202.1z"/>
	<path style="fill:#FFCD76;" d="M273.074,286.214c8.986,0,16.27-7.285,16.27-16.27c0-8.986-7.285-16.27-16.27-16.27   c-23.262,0-42.187,18.925-42.187,42.187c0,23.262,18.925,42.187,42.187,42.187c8.986,0,16.27-7.285,16.27-16.27   s-7.285-16.27-16.27-16.27c-5.319,0-9.647-4.328-9.647-9.647C263.428,290.541,267.755,286.214,273.074,286.214z"/>
</g>















</svg>
