<svg height="511pt" viewBox="0 -45 511.99993 511" width="511pt" xmlns="http://www.w3.org/2000/svg"><path d="m306.5625 421.5h-251.460938c-30.382812 0-55.101562-24.671875-55.101562-55v-183.914062c0-100.371094 81.117188-182.085938 180.832031-182.085938 99.910157 0 180.828125 80.699219 180.828125 180.5v185.5c0 30.328125-24.714844 55-55.097656 55zm0 0" fill="#eee"/><path d="m180.328125.5v421h126.234375c30.382812 0 55.097656-24.667969 55.097656-55v-185.5c0-99.023438-79.945312-180.5-181.332031-180.5zm0 0" fill="#dedede"/><path d="m308.667969 53.339844c-89.054688-88.851563-238.527344-61.773438-291.632813 52.160156h328.140625c-8.847656-19.15625-21.113281-36.800781-36.507812-52.160156zm0 0" fill="#ddd"/><path d="m345.171875 105.5h-164.84375v-104.988281c75.175781-.5468752 137.195313 45.105469 164.84375 104.988281zm0 0" fill="#cecece"/><path d="m485.949219 141.78125c-69.816407-135.472656-244.136719-161.046875-347.074219-53.007812-54.417969 57.125-63.386719 116.589843-64.085938 180.269531l.007813-.011719c0 .324219-.011719.644531-.011719.96875 0 57.898438 47.269532 105 105.371094 105 58.105469 0 105.371094-47.101562 105.371094-105 0-57.894531-47.265625-105-105.371094-105-24.691406 0-47.421875 8.511719-65.40625 22.738281 24.847656-79.007812 95.621094-136.15625 178.828125-136.15625 148.492187 0 255.757813 179.964844 138.003906 344.398438-4.820312 6.742187-3.257812 16.109375 3.484375 20.929687 6.804688 4.820313 16.160156 3.230469 20.96875-3.488281 66.074219-92.261719 70.417969-193.046875 29.914063-271.640625zm-305.792969 53.21875c41.53125 0 75.316406 33.648438 75.316406 75 0 41.355469-33.785156 75-75.316406 75-41.527344 0-75.316406-33.644531-75.316406-75 0-41.351562 33.789062-75 75.316406-75zm0 0" fill="#1fc0f4"/><path d="m180.15625 314.5c24.617188 0 44.640625-19.960938 44.640625-44.5 0-24.535156-20.023437-44.5-44.640625-44.5-24.613281 0-44.636719 19.964844-44.636719 44.5 0 24.539062 20.023438 44.5 44.636719 44.5zm0-59c8.042969 0 14.585938 6.507812 14.585938 14.5 0 7.996094-6.542969 14.5-14.585938 14.5-8.039062 0-14.582031-6.503906-14.582031-14.5 0-7.992188 6.542969-14.5 14.582031-14.5zm0 0" fill="#1fc0f4"/><g fill="#1ba6ef"><path d="m456.035156 413.421875c-4.808594 6.71875-14.167968 8.308594-20.96875 3.488281-6.742187-4.816406-8.304687-14.1875-3.484375-20.929687 117.753907-164.425781 10.496094-344.398438-138.003906-344.398438-42.46875 0-81.710937 14.890625-113.246094 39.980469v-36.992188c103.347657-65.789062 244.523438-31.335937 305.617188 87.210938 40.503906 78.601562 36.15625 179.378906-29.914063 271.640625zm0 0"/><path d="m180.328125 165v30c41.449219.09375 75.148437 33.703125 75.148437 75 0 41.300781-33.699218 74.910156-75.148437 75v30c58.019531-.089844 105.203125-47.15625 105.203125-105 0-57.839844-47.183594-104.90625-105.203125-105zm0 0"/><path d="m180.328125 225.5v30c7.96875.09375 14.417969 6.5625 14.417969 14.5 0 7.941406-6.449219 14.410156-14.417969 14.5v30c24.535156-.089844 44.472656-20.019531 44.472656-44.5 0-24.476562-19.9375-44.40625-44.472656-44.5zm0 0"/></g></svg>