<?xml version="1.0" encoding="iso-8859-1"?>
<!-- Generator: Adobe Illustrator 19.0.0, SVG Export Plug-In . SVG Version: 6.00 Build 0)  -->
<svg xmlns="http://www.w3.org/2000/svg" xmlns:xlink="http://www.w3.org/1999/xlink" version="1.1" id="Layer_1" x="0px" y="0px" viewBox="0 0 474 474" style="enable-background:new 0 0 474 474;" xml:space="preserve" width="512" height="512">
<g>
	<path style="fill:#F8A73D;" d="M391.618,15v72.34H82.378V15c0-8.28,6.72-15,15-15h279.24C384.898,0,391.618,6.72,391.618,15z"/>
	<path style="fill:#F38531;" d="M391.618,15v72.34h-154.62V0h139.62C384.898,0,391.618,6.72,391.618,15z"/>
	<path style="fill:#A8D384;" d="M407.768,269.7c0,63.05-4.58,127.07-14.18,191.51c-1.1,7.35-7.41,12.79-14.85,12.79H95.258   c-7.44,0-13.75-5.45-14.85-12.81c-18.89-126.87-19.56-260.52,1.97-395.84h309.24C402.188,131.79,407.768,200.16,407.768,269.7z"/>
	<path style="fill:#6AC186;" d="M407.768,269.7c0,63.05-4.58,127.07-14.18,191.51c-1.1,7.35-7.41,12.79-14.85,12.79h-141.74V65.35   h154.62C402.188,131.79,407.768,200.16,407.768,269.7z"/>
	<path style="fill:#FFCD76;" d="M288.203,385.506h-51.204v0c0-35.514,28.789-64.303,64.303-64.303h40.278   c6.26,0,10.984,5.689,9.838,11.843C345.86,362.889,319.687,385.506,288.203,385.506z"/>
	<path style="fill:#FFE6B9;" d="M172.695,321.203h-40.278c-6.26,0-10.984,5.689-9.838,11.843c5.557,29.843,31.73,52.46,63.214,52.46   h51.204v0C236.998,349.993,208.209,321.203,172.695,321.203z"/>
	<path style="fill:#FFCD76;" d="M285.329,291.695h-48.331v0c0-33.521,27.174-60.695,60.695-60.695h37.342   c6.26,0,11.049,5.701,9.834,11.842C339.362,270.682,314.813,291.695,285.329,291.695z"/>
	<path style="fill:#FFE6B9;" d="M176.303,231h-37.342c-6.26,0-11.049,5.701-9.834,11.842c5.507,27.84,30.056,48.853,59.54,48.853   h48.331v0C236.998,258.174,209.824,231,176.303,231z"/>
	<path style="fill:#F8A73D;" d="M251.998,207.67v213c0,8.28-6.72,15-15,15s-15-6.72-15-15v-213c0-8.29,6.72-15,15-15   S251.998,199.38,251.998,207.67z"/>
	<path style="fill:#F38531;" d="M251.998,207.67v213c0,8.28-6.72,15-15,15v-243C245.278,192.67,251.998,199.38,251.998,207.67z"/>
	<path style="fill:#FFE6B9;" d="M254.898,213.12c-4.94,4.94-11.42,7.41-17.9,7.41s-12.96-2.47-17.9-7.41   c-27.58-27.58-27.58-72.31,0-99.89l10.83-10.83c1.95-1.95,4.51-2.92,7.07-2.92s5.12,0.97,7.07,2.92l10.83,10.83   C282.478,140.81,282.478,185.54,254.898,213.12z"/>
	<path style="fill:#FFCD76;" d="M254.898,213.12c-4.94,4.94-11.42,7.41-17.9,7.41V99.48c2.56,0,5.12,0.97,7.07,2.92l10.83,10.83   C282.478,140.81,282.478,185.54,254.898,213.12z"/>
</g>















</svg>
