<svg height="396pt" viewBox="-56 0 396 396" width="396pt" xmlns="http://www.w3.org/2000/svg"><path d="m6 30h48v336h-48zm0 0" fill="#89aadb"/><path d="m102 30h48v336h-48zm0 0" fill="#4b67b0"/><path d="m54 30h48v336h-48zm0 0" fill="#6287c5"/><path d="m150 372h-144c-3.3125 0-6-2.6875-6-6v-336c0-3.3125 2.6875-6 6-6h144c3.3125 0 6 2.6875 6 6v336c0 3.3125-2.6875 6-6 6zm-138-12h132v-324h-132zm0 0" fill="#1c2d6b"/><path d="m149.996094 30h44v336h-44zm0 0" fill="#89aadb"/><path d="m258 53.996094 20-23.996094h-44l-6.25 23.996094 6.25 23.992187-6.25 23.996094 6.25 23.996094-6.25 24 6.25 23.996093-6.25 24 6.25 24-6.25 23.992188 6.25 23.996094-6.25 24.007812 6.25 23.996094-6.25 24.015625 6.25 24.015625h44l-20-24.015625 20-24.015625-20-23.996094 20-24.007812-20-23.996094 20-23.992188-20-24 20-24-20-23.996093 20-24-20-23.996094 20-23.996094zm0 0" fill="#4b67b0"/><path d="m234 317.96875-6.25-23.996094 6.25-24.007812-6.25-23.996094 6.25-23.992188-6.25-24 6.25-24-6.25-23.996093 6.25-24-6.25-23.996094 6.25-23.996094-6.25-23.992187 6.25-23.996094h-40.003906v336h40.003906l-6.25-24.015625zm0 0" fill="#6287c5"/><path d="m278 372h-128.003906c-3.3125 0-6-2.6875-6-6v-336c0-3.3125 2.6875-6 6-6h128.003906c2.328125 0 4.445312 1.347656 5.433594 3.457031.988281 2.109375.667968 4.597657-.824219 6.386719l-16.796875 20.152344 16.796875 20.152344c1.855469 2.226562 1.855469 5.460937 0 7.6875l-16.796875 20.148437 16.796875 20.15625c1.855469 2.226563 1.855469 5.460937 0 7.683594l-16.796875 20.160156 16.796875 20.152344c1.855469 2.226562 1.855469 5.460937 0 7.683593l-16.796875 20.15625 16.796875 20.160157c1.855469 2.222656 1.855469 5.457031 0 7.679687l-16.796875 20.152344 16.796875 20.15625c1.855469 2.226562 1.855469 5.457031 0 7.683594l-16.796875 20.164062 16.796875 20.15625c1.855469 2.226563 1.855469 5.457032.003906 7.679688l-16.804687 20.175781 16.804687 20.175781c1.488281 1.789063 1.808594 4.277344.820313 6.386719-.988282 2.105469-3.105469 3.453125-5.433594 3.453125zm-122.003906-12h109.199218l-11.804687-14.175781c-1.851563-2.222657-1.851563-5.453125 0-7.679688l16.800781-20.171875-16.800781-20.160156c-1.851563-2.222656-1.851563-5.453125 0-7.679688l16.800781-20.164062-16.800781-20.160156c-1.851563-2.222656-1.851563-5.457032 0-7.679688l16.800781-20.152344-16.800781-20.160156c-1.851563-2.222656-1.851563-5.457031 0-7.679687l16.800781-20.160157-16.800781-20.152343c-1.851563-2.226563-1.851563-5.457031 0-7.683594l16.800781-20.160156-16.800781-20.15625c-1.851563-2.222657-1.851563-5.457031 0-7.683594l16.800781-20.152344-16.800781-20.148437c-1.851563-2.226563-1.851563-5.460938 0-7.6875l11.800781-14.152344h-109.195312zm0 0" fill="#1c2d6b"/><path d="m30 6h31.089844v24h-31.089844zm0 0" fill="#ede49d"/><path d="m94.910156 6h31.089844v24h-31.089844zm0 0" fill="#d3ba2a"/><path d="m61.089844 6h33.820312v24h-33.820312zm0 0" fill="#eee045"/><path d="m30 366h31.089844v24h-31.089844zm0 0" fill="#ede49d"/><path d="m94.910156 366h31.089844v24h-31.089844zm0 0" fill="#d3ba2a"/><path d="m61.089844 366h33.820312v24h-33.820312zm0 0" fill="#eee045"/><g fill="#1c2d6b"><path d="m126 36h-96c-3.3125 0-6-2.6875-6-6v-24c0-3.3125 2.6875-6 6-6h96c3.3125 0 6 2.6875 6 6v24c0 3.3125-2.6875 6-6 6zm-90-12h84v-12h-84zm0 0"/><path d="m126 396h-96c-3.3125 0-6-2.6875-6-6v-24c0-3.3125 2.6875-6 6-6h96c3.3125 0 6 2.6875 6 6v24c0 3.3125-2.6875 6-6 6zm-90-12h84v-12h-84zm0 0"/></g></svg>