<svg height="512pt" viewBox="-43 0 512 512" width="512pt" xmlns="http://www.w3.org/2000/svg"><path d="m97.894531 283.5c0 27.03125-21.914062 48.945312-48.949219 48.945312-27.03125 0-48.945312-21.914062-48.945312-48.945312s21.914062-48.949219 48.945312-48.949219c27.035157 0 48.949219 21.917969 48.949219 48.949219zm0 0" fill="#5a67ad"/><path d="m48.945312 234.550781c-6.5625 0-12.820312 1.304688-18.542968 3.648438 17.835937 7.308593 30.40625 24.832031 30.40625 45.300781s-12.570313 37.992188-30.40625 45.300781c5.722656 2.34375 11.980468 3.644531 18.542968 3.644531 27.035157 0 48.949219-21.914062 48.949219-48.945312 0-27.035156-21.914062-48.949219-48.949219-48.949219zm0 0" fill="#4a558f"/><path d="m425.128906 283.5c0 27.03125-21.914062 48.945312-48.945312 48.945312-27.035156 0-48.949219-21.914062-48.949219-48.945312s21.914063-48.949219 48.949219-48.949219c27.03125 0 48.945312 21.917969 48.945312 48.949219zm0 0" fill="#5a67ad"/><path d="m376.183594 234.550781c-6.566406 0-12.824219 1.304688-18.542969 3.648438 17.835937 7.308593 30.402344 24.832031 30.402344 45.300781s-12.566407 37.992188-30.402344 45.300781c5.71875 2.34375 11.976563 3.644531 18.542969 3.644531 27.03125 0 48.945312-21.914062 48.945312-48.945312 0-27.035156-21.914062-48.949219-48.945312-48.949219zm0 0" fill="#4a558f"/><path d="m151.867188 512h-20.089844c-5.707032 0-10.597656-4.074219-11.632813-9.6875l-8.050781-43.761719h59.453125l-8.050781 43.761719c-1.03125 5.613281-5.925782 9.6875-11.628906 9.6875zm0 0" fill="#bf7b4c"/><path d="m293.355469 512h-20.09375c-5.703125 0-10.597657-4.074219-11.628907-9.6875l-8.050781-43.761719h59.453125l-8.050781 43.761719c-1.03125 5.613281-5.925781 9.6875-11.628906 9.6875zm0 0" fill="#bf7b4c"/><path d="m376.183594 332.445312c-17.980469 0-33.683594-9.699218-42.195313-24.144531-1.183593 14.589844-5.789062 27.460938-13.152343 38.945313-5.410157 8.433594-14.863282 13.402344-24.882813 13.402344h-166.773437c-10.019532 0-19.472657-4.96875-24.882813-13.402344-7.367187-11.484375-11.96875-24.355469-13.15625-38.945313-8.511719 14.445313-24.214844 24.144531-42.195313 24.144531-8.535156 0-16.558593-2.1875-23.546874-6.03125.664062.898438 1.316406 1.800782 1.960937 2.710938 19 26.8125 28.792969 59.070312 28.792969 91.933594 0 20.707031 16.785156 37.488281 37.488281 37.488281h237.847656c20.707031 0 37.492188-16.785156 37.492188-37.488281 0-32.863282 9.789062-65.121094 28.792969-91.933594.640624-.910156 1.296874-1.8125 1.960937-2.710938-6.988281 3.84375-15.011719 6.03125-23.550781 6.03125zm0 0" fill="#68a1d7"/><path d="m363.203125 406.035156c-6.644531 10.507813-18.363281 17.488282-31.714844 17.488282h-237.847656c-15.195313 0-28.28125-9.042969-34.164063-22.039063-2.136718-4.710937-6.992187-24.304687-4.203124 2.570313.585937 5.632812.878906 11.308593.878906 17.003906 0 20.707031 16.785156 37.488281 37.488281 37.488281h237.847656c20.707031 0 37.492188-16.785156 37.492188-37.488281-.003907-32.863282-2.121094-20.8125-5.777344-15.023438zm0 0" fill="#5d8fbf"/><path d="m212.566406 0c-64.527344 0-119.394531 35.832031-147.859375 87.425781-4.878906 8.863281-9.28125 19.410157-13.328125 31.230469-7.78125 24.964844-9.871094 52.21875-4.835937 80.078125l6.511719 36.003906c25.109374 2.085938 44.839843 23.113281 44.839843 48.761719 0 9.054688-2.46875 17.527344-6.753906 24.800781 1.1875 14.589844 5.789063 27.460938 13.15625 38.945313 5.410156 8.433594 14.863281 13.402344 24.882813 13.402344h166.773437c10.019531 0 19.46875-4.96875 24.878906-13.402344 7.367188-11.484375 11.972657-24.355469 13.15625-38.945313-4.285156-7.273437-6.753906-15.746093-6.753906-24.800781 0-25.648438 19.730469-46.675781 44.839844-48.761719l6.511719-36.003906c18.71875-103.515625-60.824219-198.734375-166.019532-198.734375zm0 0" fill="#68a1d7"/><g fill="#5d8fbf"><path d="m330.132812 300.085938c-2.257812 6.9375-5.382812 13.441406-9.300781 19.546874-5.410156 8.433594-14.859375 13.402344-24.878906 13.402344h-166.773437c-10.019532 0-19.472657-4.96875-24.882813-13.402344-3.917969-6.105468-7.042969-12.609374-9.296875-19.546874-1.039062 2.871093-2.332031 5.621093-3.859375 8.214843 1.1875 14.589844 5.789063 27.460938 13.15625 38.945313 5.410156 8.433594 14.863281 13.402344 24.882813 13.402344h166.773437c10.019531 0 19.472656-4.96875 24.882813-13.402344 7.363281-11.484375 11.96875-24.355469 13.152343-38.945313-1.527343-2.59375-2.820312-5.34375-3.855469-8.214843zm0 0"/><path d="m46.632812 199.21875c1.210938-6.5 2.800782-12.882812 4.746094-19.125 4.046875-11.820312 8.449219-22.363281 13.328125-31.230469 28.464844-51.589843 83.332031-87.425781 147.859375-87.425781 83.953125 0 151.566406 60.652344 165.933594 137.765625l.082031-.46875c18.722657-103.515625-60.820312-198.734375-166.015625-198.734375-64.527344 0-119.394531 35.832031-147.859375 87.425781-4.875 8.863281-9.28125 19.410157-13.328125 31.230469-7.78125 24.964844-9.871094 52.21875-4.832031 80.078125zm0 0"/></g></svg>