<?xml version="1.0" encoding="iso-8859-1"?>
<!-- Generator: Adobe Illustrator 19.0.0, SVG Export Plug-In . SVG Version: 6.00 Build 0)  -->
<svg version="1.1" id="Capa_1" xmlns="http://www.w3.org/2000/svg" xmlns:xlink="http://www.w3.org/1999/xlink" x="0px" y="0px"
	 viewBox="0 0 512.001 512.001" style="enable-background:new 0 0 512.001 512.001;" xml:space="preserve">
<polygon style="fill:#CFCFCF;" points="490.496,295.95 452.087,257.138 490.9,218.729 512.001,240.053 494.511,257.36 
	511.819,274.85 "/>
<path style="fill:#FF4F19;" d="M442.449,171.06c-22.858-23.099-53.343-35.913-85.84-36.083l-233.978-1.271l-1.273,243.318
	l233.978,1.271c0.218,0.001,0.436,0.001,0.654,0.001c32.252,0,62.615-12.48,85.558-35.184c23.099-22.858,35.913-53.343,36.083-85.84
	C477.801,224.776,465.307,194.158,442.449,171.06z"/>
<circle style="fill:#FE99A7;" cx="121.665" cy="255.408" r="106.665"/>
<path style="fill:#FD667B;" d="M121.104,362.07c58.907,0.308,106.91-47.196,107.218-106.102
	c0.308-58.907-47.196-106.91-106.102-107.218C122.22,238.112,121.104,323.664,121.104,362.07z"/>
<path style="fill:#FECCD3;" d="M121.68,377.07c-0.22,0-0.435,0-0.655-0.001c-32.495-0.17-62.981-12.984-85.84-36.083
	C12.326,317.887-0.168,287.27,0.002,254.773c0.17-32.495,12.984-62.981,36.083-85.84c22.942-22.704,53.307-35.185,85.558-35.185
	c0.22,0,0.435,0.001,0.655,0.001c32.496,0.17,62.981,12.984,85.84,36.083c22.858,23.099,35.353,53.716,35.183,86.213
	c-0.17,32.495-12.984,62.981-36.083,85.84C184.295,364.59,153.93,377.07,121.68,377.07z M121.649,163.748
	c-24.3,0-47.176,9.403-64.462,26.509c-17.403,17.222-27.058,40.19-27.186,64.674c-0.128,24.484,9.286,47.552,26.508,64.955
	s40.19,27.058,64.674,27.186c0.164,0.001,0.329,0.001,0.493,0.001c24.3,0,47.175-9.403,64.461-26.509
	c17.403-17.222,27.058-40.19,27.186-64.674c0.128-24.484-9.286-47.552-26.508-64.955s-40.19-27.058-64.674-27.186
	C121.977,163.748,121.813,163.748,121.649,163.748z"/>
<rect x="133.192" y="267.218" transform="matrix(-1 -0.0052 0.0052 -1 294.9127 565.202)" style="fill:#FEA6B2;" width="29.998" height="29.999"/>
<rect x="80.147" y="213.61" transform="matrix(-1 -0.0052 0.0052 -1 189.1021 457.7106)" style="fill:#FECCD3;" width="29.999" height="29.999"/>
<path style="fill:#FEA6B2;" d="M208.137,169.834c-22.858-23.099-53.343-35.913-85.84-36.083c-0.214-0.001-0.423-0.001-0.637-0.001
	v29.998c0.16,0,0.32,0.001,0.479,0.001c24.484,0.128,47.452,9.783,64.674,27.186s26.636,40.471,26.508,64.955
	c-0.128,24.484-9.783,47.452-27.186,64.674c-17.286,17.106-40.161,26.509-64.461,26.509c-0.005,0-0.009,0-0.014,0v29.998
	c0.006,0,0.012,0,0.019,0c32.25,0,62.616-12.481,85.557-35.184c23.099-22.858,35.913-53.343,36.083-85.84
	C243.49,223.55,230.996,192.933,208.137,169.834z"/>
<g>
</g>
<g>
</g>
<g>
</g>
<g>
</g>
<g>
</g>
<g>
</g>
<g>
</g>
<g>
</g>
<g>
</g>
<g>
</g>
<g>
</g>
<g>
</g>
<g>
</g>
<g>
</g>
<g>
</g>
</svg>
