<?xml version="1.0" encoding="iso-8859-1"?>
<!-- Generator: Adobe Illustrator 19.0.0, SVG Export Plug-In . SVG Version: 6.00 Build 0)  -->
<svg xmlns="http://www.w3.org/2000/svg" xmlns:xlink="http://www.w3.org/1999/xlink" version="1.1" id="Layer_1" x="0px" y="0px" viewBox="0 0 495.561 495.561" style="enable-background:new 0 0 495.561 495.561;" xml:space="preserve" width="512" height="512">
<g>
	<path style="fill:#F8A73D;" d="M295.221,447.076c0.583,26.611-20.827,48.485-47.439,48.485s-48.022-21.874-47.439-48.485   l6.734-345.615h81.41L295.221,447.076z"/>
	<path style="fill:#F38531;" d="M295.221,447.076c0.583,26.611-20.827,48.485-47.439,48.485v-394.1h40.705L295.221,447.076z"/>
	<rect x="92.098" y="35.717" style="fill:#838383;" width="89.802" height="65.237"/>
	<path style="fill:#BFBFBF;" d="M430.447,112.101v8.385c0,8.935-7.241,16.187-16.187,16.187H180.757   c-8.935,0-16.187-7.252-16.187-16.187V16.188c0-8.936,7.252-16.187,16.187-16.187h137.601   C380.267,0.001,430.447,50.191,430.447,112.101z"/>
	<path style="fill:#ACACAC;" d="M430.447,112.101v8.385c0,8.935-7.241,16.187-16.187,16.187H247.782V0.001h70.575   C380.267,0.001,430.447,50.191,430.447,112.101z"/>
	<path style="fill:#BFBFBF;" d="M108.611,0h-27.31c-8.94,0-16.187,7.247-16.187,16.187v104.296c0,8.94,7.247,16.187,16.187,16.187   h27.31c8.94,0,16.187-7.247,16.187-16.187V16.187C124.798,7.247,117.551,0,108.611,0z"/>
</g>















</svg>
