<svg height="512pt" viewBox="0 -32 512 512" width="512pt" xmlns="http://www.w3.org/2000/svg"><path d="m92.617188 124.613281h-54.113282c-21.265625 0-38.503906 17.242188-38.503906 38.503907 0 21.265624 17.238281 38.503906 38.503906 38.503906h54.113282zm0 0" fill="#c8d2dc"/><path d="m66.601562 124.613281v45.789063c0 5.75-4.660156 10.410156-10.40625 10.410156h-32.261718c-8.398438 0-16.164063-2.699219-22.492188-7.265625 4.546875 16.195313 19.414063 28.078125 37.0625 28.078125h54.113282v-77.007812h-26.015626zm0 0" fill="#b9c3cd"/><path d="m56.195312 257.816406c0 8.621094-6.988281 15.613282-15.609374 15.613282-8.621094 0-15.609376-6.992188-15.609376-15.613282v-94.699218c0-8.621094 6.988282-15.609376 15.609376-15.609376 8.621093 0 15.609374 6.988282 15.609374 15.609376zm0 0" fill="#c8d2dc"/><path d="m40.585938 147.507812c-2.632813 0-5.109376.660157-7.285157 1.808594 4.949219 2.621094 8.324219 7.8125 8.324219 13.800782v94.699218c0 5.988282-3.375 11.183594-8.324219 13.800782 2.175781 1.152343 4.652344 1.8125 7.285157 1.8125 8.621093 0 15.609374-6.992188 15.609374-15.613282v-94.699218c0-8.621094-6.988281-15.609376-15.609374-15.609376zm0 0" fill="#b9c3cd"/><path d="m420.421875 124.613281h53.074219c21.265625 0 38.503906 17.242188 38.503906 38.503907 0 21.265624-17.238281 38.503906-38.503906 38.503906h-53.074219zm0 0" fill="#c8d2dc"/><path d="m502.339844 137.625c.1875 1.535156.292968 3.097656.292968 4.683594 0 21.261718-17.238281 38.503906-38.503906 38.503906h-43.707031v20.8125h53.074219c21.265625 0 38.503906-17.238281 38.503906-38.503906 0-9.78125-3.652344-18.703125-9.660156-25.496094zm0 0" fill="#b9c3cd"/><path d="m256 449.296875h128.863281c10.726563 0 19.691407-8.144531 20.71875-18.820313l29.410157-305.863281v-52.03125c0-5.746093-4.660157-10.40625-10.40625-10.40625h-337.171876c-5.746093 0-10.40625 4.65625-10.40625 10.40625v52.03125l29.410157 305.863281c1.027343 10.675782 9.992187 18.820313 20.71875 18.820313zm0 0" fill="#c8d2dc"/><path d="m403.773438 62.175781v32.261719c0 5.746094-4.660157 10.40625-10.410157 10.40625h-316.355469v19.769531h303.601563c12.371094 0 22.011719 10.730469 20.695313 23.03125l-26.757813 249.757813c-1.136719 10.574218-10.058594 18.59375-20.695313 18.59375h-248.824218l1.390625 14.480468c1.027343 10.675782 9.992187 18.820313 20.71875 18.820313h257.726562c10.726563 0 19.691407-8.144531 20.71875-18.820313l29.410157-305.863281v-52.03125c0-5.746093-4.660157-10.40625-10.40625-10.40625zm0 0" fill="#b9c3cd"/><path d="m455.804688 257.816406c0 8.621094 6.988281 15.613282 15.609374 15.613282 8.621094 0 15.609376-6.992188 15.609376-15.613282v-94.699218c0-8.621094-6.988282-15.609376-15.609376-15.609376-8.621093 0-15.609374 6.988282-15.609374 15.609376zm0 0" fill="#c8d2dc"/><path d="m471.414062 147.507812c-2.632812 0-5.109374.660157-7.285156 1.808594 4.949219 2.621094 8.324219 7.8125 8.324219 13.800782v94.699218c0 5.988282-3.375 11.183594-8.324219 13.800782 2.175782 1.152343 4.652344 1.8125 7.285156 1.8125 8.621094 0 15.609376-6.992188 15.609376-15.613282v-94.699218c0-8.621094-6.988282-15.609376-15.609376-15.609376zm0 0" fill="#b9c3cd"/><path d="m91.578125 62.175781 30.667969-43.53125c1.03125-1.464843 2.511718-2.558593 4.214844-3.117187l46.179687-15.113282c4.566406-1.492187 9.449219 1.179688 10.648437 5.832032l14.433594 55.929687zm0 0" fill="#81b8fd"/><path d="m91.578125 62.175781 30.667969-43.53125c1.03125-1.464843 2.511718-2.558593 4.214844-3.117187l46.179687-15.113282c4.566406-1.492187 9.449219 1.179688 10.648437 5.832032l14.433594 55.929687zm0 0" fill="#81b8fd"/><path d="m172.640625.414062-7.539063 2.46875 8.453126 32.757813c1.699218 6.585937-3.273438 13.007813-10.078126 13.007813h-62.367187l-9.53125 13.527343h106.144531l-14.433594-55.929687c-1.199218-4.652344-6.082031-7.324219-10.648437-5.832032zm0 0" fill="#62a6fd"/><path d="m197.722656 62.175781 17.648438-42.722656c1.285156-3.117187 4.324218-5.148437 7.695312-5.148437h29.203125c3.980469 0 7.40625 2.820312 8.167969 6.726562l8.050781 41.144531zm0 0" fill="#81b8fd"/><path d="m252.269531 14.304688h-7.355469l4.496094 22.976562c1.257813 6.429688-3.664062 12.40625-10.210937 12.40625h-36.316407l-5.160156 12.488281h70.765625l-8.050781-41.144531c-.761719-3.90625-4.1875-6.726562-8.167969-6.726562zm0 0" fill="#62a6fd"/><path d="m349.660156 62.175781 17.644532-42.722656c1.289062-3.117187 4.324218-5.148437 7.695312-5.148437h29.8125l13.359375 14.25c1.445313 1.542968 2.25 3.578124 2.25 5.695312v27.925781zm0 0" fill="#81b8fd"/><path d="m349.660156 62.175781 17.644532-42.722656c1.289062-3.117187 4.324218-5.148437 7.695312-5.148437h26.207031c2.300781 0 4.5.953124 6.074219 2.632812l10.890625 11.617188c1.445313 1.542968 2.253906 3.578124 2.253906 5.691406v27.929687zm0 0" fill="#81b8fd"/><path d="m406.894531 16.527344v21.714844c0 5.746093-4.660156 10.40625-10.40625 10.40625h-41.242187l-5.589844 13.527343h70.765625v-27.925781c0-2.117188-.804687-4.152344-2.25-5.695312zm0 0" fill="#62a6fd"/><path d="m268.488281 62.175781 18.074219-43.757812c1.058594-2.570313 3.335938-4.4375 6.0625-4.984375l39.1875-7.835938c4.628906-.929687 9.101562 2.179688 9.851562 6.839844l7.996094 49.738281zm0 0" fill="#81b8fd"/><path d="m331.8125 5.597656-4.535156.90625 4.832031 30.085938c1.019531 6.324218-3.867187 12.058594-10.273437 12.058594h-47.761719l-5.585938 13.527343h81.167969l-7.992188-49.738281c-.75-4.660156-5.222656-7.769531-9.851562-6.839844zm0 0" fill="#62a6fd"/></svg>