<?xml version="1.0" encoding="iso-8859-1"?>
<!-- Generator: Adobe Illustrator 19.0.0, SVG Export Plug-In . SVG Version: 6.00 Build 0)  -->
<svg xmlns="http://www.w3.org/2000/svg" xmlns:xlink="http://www.w3.org/1999/xlink" version="1.1" id="Layer_1" x="0px" y="0px" viewBox="0 0 490.88 490.88" style="enable-background:new 0 0 490.88 490.88;" xml:space="preserve" width="512" height="512">
<g>
	<path style="fill:#F06570;" d="M349.711,205.65c0,57.592-46.679,104.271-104.271,104.271s-104.271-46.68-104.271-104.271   S187.849,101.38,245.44,101.38S349.711,148.059,349.711,205.65z"/>
	<path style="fill:#ED484B;" d="M349.711,205.65c0,57.592-46.679,104.271-104.271,104.271V101.38   C303.031,101.38,349.711,148.059,349.711,205.65z"/>
	<path style="fill:#F8A73D;" d="M336.018,257.18l-79.792,226.07c-1.798,5.08-6.292,7.63-10.787,7.63s-8.989-2.55-10.787-7.63   l-79.792-226.07H336.018z"/>
	<path style="fill:#F38531;" d="M336.018,257.18l-79.792,226.07c-1.798,5.08-6.292,7.63-10.787,7.63v-233.7H336.018z"/>
	<path style="fill:#FFE6B9;" d="M216.13,202.856c-5.858-5.859-15.355-5.859-21.213-0.002c-5.858,5.857-5.859,15.354-0.001,21.213   l6.835,6.836c5.86,5.861,15.358,5.857,21.213,0.002c5.858-5.857,5.859-15.354,0.001-21.213L216.13,202.856z"/>
	<path style="fill:#FFE6B9;" d="M259.47,188.572c-3.81,3.81-9.15,5.14-14.03,3.99c-2.64-0.6-5.14-1.94-7.19-3.99l-6.83-6.84   c-5.86-5.86-5.86-15.35,0-21.21c3.8-3.81,9.14-5.14,14.02-4c2.64,0.61,5.14,1.95,7.19,4l6.83,6.83   C265.32,173.212,265.32,182.712,259.47,188.572z"/>
	<path style="fill:#FFCD76;" d="M259.47,188.572c-3.81,3.81-9.15,5.14-14.03,3.99v-36.04c2.64,0.61,5.14,1.95,7.19,4l6.83,6.83   C265.32,173.212,265.32,182.712,259.47,188.572z"/>
	<path style="fill:#FFCD76;" d="M298.113,209.692l-6.835-6.836c-5.857-5.859-15.355-5.859-21.213-0.002   c-5.858,5.857-5.859,15.354-0.002,21.213l6.835,6.836c5.856,5.858,15.354,5.861,21.213,0.002   C303.969,225.048,303.97,215.551,298.113,209.692z"/>
	<path style="fill:#F8A73D;" d="M260.44,15v41.06c0,8.28-6.72,15-15,15s-15-6.72-15-15V15c0-8.28,6.72-15,15-15   S260.44,6.72,260.44,15z"/>
	<path style="fill:#F38531;" d="M260.44,15v41.06c0,8.28-6.72,15-15,15V0C253.72,0,260.44,6.72,260.44,15z"/>
	<circle style="fill:#ED484B;" cx="245.44" cy="90.81" r="44.2"/>
	<path style="fill:#D92E2F;" d="M289.64,90.81c0,24.41-19.79,44.2-44.2,44.2v-88.4C269.85,46.61,289.64,66.4,289.64,90.81z"/>
</g>















</svg>
