<?xml version="1.0" encoding="iso-8859-1"?>
<!-- Generator: Adobe Illustrator 19.0.0, SVG Export Plug-In . SVG Version: 6.00 Build 0)  -->
<svg xmlns="http://www.w3.org/2000/svg" xmlns:xlink="http://www.w3.org/1999/xlink" version="1.1" id="Layer_1" x="0px" y="0px" viewBox="0 0 489 489" style="enable-background:new 0 0 489 489;" xml:space="preserve" width="512" height="512">
<g>
	<path style="fill:#4B90BF;" d="M277.31,15v60.94h-65.62V15c0-8.28,6.72-15,15-15h35.62C270.59,0,277.31,6.72,277.31,15z"/>
	<path style="fill:#2E77A6;" d="M277.31,15v60.94H244.5V0h17.81C270.59,0,277.31,6.72,277.31,15z"/>
	<path style="fill:#FFE6B9;" d="M332.69,122.17v47.07H156.31v-47.07c0-30.56,24.78-55.34,55.34-55.34h65.7   C307.91,66.83,332.69,91.61,332.69,122.17z"/>
	<path style="fill:#FFCD76;" d="M332.69,122.17v47.07H244.5V66.83h32.85C307.91,66.83,332.69,91.61,332.69,122.17z"/>
	<path style="fill:#4B90BF;" d="M355.99,166.91V474c0,8.28-6.72,15-15,15H148.01c-8.28,0-15-6.72-15-15V166.91c0-8.29,6.72-15,15-15   h192.98C349.27,151.91,355.99,158.62,355.99,166.91z"/>
	<path style="fill:#2E77A6;" d="M355.99,166.91V474c0,8.28-6.72,15-15,15H244.5V151.91h96.49   C349.27,151.91,355.99,158.62,355.99,166.91z"/>
	<rect x="133.01" y="258.68" style="fill:#FFE6B9;" width="222.98" height="136.55"/>
	<rect x="244.5" y="258.68" style="fill:#FFCD76;" width="111.49" height="136.55"/>
	<path style="fill:#4B90BF;" d="M304.45,326.95c0,8.29-6.72,15-15,15h-89.9c-8.28,0-15-6.71-15-15c0-8.28,6.72-15,15-15h89.9   C297.73,311.95,304.45,318.67,304.45,326.95z"/>
	<path style="fill:#2E77A6;" d="M304.45,326.95c0,8.29-6.72,15-15,15H244.5v-30h44.95C297.73,311.95,304.45,318.67,304.45,326.95z"/>
</g>















</svg>
