<?xml version="1.0" encoding="iso-8859-1"?>
<!-- Generator: Adobe Illustrator 19.0.0, SVG Export Plug-In . SVG Version: 6.00 Build 0)  -->
<svg xmlns="http://www.w3.org/2000/svg" xmlns:xlink="http://www.w3.org/1999/xlink" version="1.1" id="Layer_1" x="0px" y="0px" viewBox="0 0 492.1 492.1" style="enable-background:new 0 0 492.1 492.1;" xml:space="preserve" width="512" height="512">
<g>
	<path style="fill:#FFCD76;" d="M370.44,16.18v84.4H121.66v-84.4c0-8.94,7.25-16.18,16.18-16.18h216.42   C363.19,0,370.44,7.24,370.44,16.18z"/>
	<path style="fill:#F8A73D;" d="M370.44,16.18v84.4H246.05V0h108.21C363.19,0,370.44,7.24,370.44,16.18z"/>
	<path style="fill:#F06570;" d="M411.05,199.96v259.78c0,17.88-14.49,32.36-32.35,32.36H113.4c-17.86,0-32.35-14.48-32.35-32.36   V199.96c0-32.79,8.63-65,25.03-93.39l15.58-26.96h248.78l15.58,26.96C402.42,134.96,411.05,167.17,411.05,199.96z"/>
	<path style="fill:#ED484B;" d="M411.05,199.96v259.78c0,17.88-14.49,32.36-32.35,32.36H246.05V79.61h124.39l15.58,26.96   C402.42,134.96,411.05,167.17,411.05,199.96z"/>
	<rect x="81.05" y="209.74" style="fill:#FFE6B9;" width="330" height="205.42"/>
	<rect x="246.05" y="209.74" style="fill:#FFCD76;" width="165" height="205.42"/>
	<path style="fill:#F8A73D;" d="M308.49,247.394c-5.857-5.857-15.355-5.857-21.213,0l-23.414,23.414   c-5.858,5.857-5.858,15.355,0,21.213c5.858,5.858,15.355,5.858,21.213,0l23.414-23.414   C314.348,262.749,314.348,253.251,308.49,247.394z"/>
	<path style="fill:#ED484B;" d="M288.81,355.75c-9.99,9.99-25.97,18.96-42.76,24.06c-22.03,6.69-45.45,6.71-58.56-6.4   c-23.1-23.11-5.45-78.22,17.65-101.32c12.93-12.93,26.99-15.26,40.91-10.75c10.96,3.54,21.84,11.32,32.01,21.49   C301.17,305.94,311.91,332.65,288.81,355.75z"/>
	<path style="fill:#D92E2F;" d="M288.81,355.75c-9.99,9.99-25.97,18.96-42.76,24.06V261.34c10.96,3.54,21.84,11.32,32.01,21.49   C301.17,305.94,311.91,332.65,288.81,355.75z"/>
</g>















</svg>
