<?xml version="1.0" encoding="iso-8859-1"?>
<!-- Generator: Adobe Illustrator 19.0.0, SVG Export Plug-In . SVG Version: 6.00 Build 0)  -->
<svg xmlns="http://www.w3.org/2000/svg" xmlns:xlink="http://www.w3.org/1999/xlink" version="1.1" id="Layer_1" x="0px" y="0px" viewBox="0 0 496.66 496.66" style="enable-background:new 0 0 496.66 496.66;" xml:space="preserve" width="512" height="512">
<g>
	<path style="fill:#FFCD76;" d="M371.29,146.8v334.01c0,8.75-7.09,15.85-15.85,15.85H141.22c-8.76,0-15.85-7.1-15.85-15.85V146.8   c0-1.61,0.24-3.21,0.73-4.75l26.1-83.06c0.49-1.54,0.73-3.14,0.73-4.75V15.85c0-8.75,7.1-15.85,15.86-15.85h159.08   c8.76,0,15.86,7.1,15.86,15.85v38.39c0,1.61,0.24,3.21,0.73,4.75l26.1,83.06C371.05,143.59,371.29,145.19,371.29,146.8z"/>
	<path style="fill:#F8A73D;" d="M371.29,146.8v334.01c0,8.75-7.09,15.85-15.85,15.85H248.33V0h79.54c8.76,0,15.86,7.1,15.86,15.85   v38.39c0,1.61,0.24,3.21,0.73,4.75l26.1,83.06C371.05,143.59,371.29,145.19,371.29,146.8z"/>
	<polygon style="fill:#F8A73D;" points="371.29,144.37 125.37,144.37 152.93,56.67 343.73,56.67  "/>
	<polygon style="fill:#F38531;" points="371.29,144.37 248.33,144.37 248.33,56.67 343.73,56.67  "/>
	<rect x="125.37" y="244.9" style="fill:#F8A73D;" width="245.92" height="130.44"/>
	<rect x="248.33" y="244.9" style="fill:#F38531;" width="122.96" height="130.44"/>
	<path style="fill:#FFE6B9;" d="M324.63,310.12c0,8.28-6.72,15-15,15H186.3c-8.28,0-15-6.72-15-15c0-8.29,6.72-15,15-15h123.33   C317.91,295.12,324.63,301.83,324.63,310.12z"/>
	<path style="fill:#FFCD76;" d="M324.63,310.12c0,8.28-6.72,15-15,15h-61.3v-30h61.3C317.91,295.12,324.63,301.83,324.63,310.12z"/>
</g>















</svg>
