<svg height="512pt" viewBox="-160 0 512 512" width="512pt" xmlns="http://www.w3.org/2000/svg"><path d="m158.90625 187.992188c-20.324219-12.484376-32.707031-34.628907-32.707031-58.480469v-72.335938h-60.78125v72.335938c0 18.109375-7.148438 35.230469-19.480469 47.894531l-22.960938 17.832031c-14.46875 12.898438-22.976562 31.480469-22.976562 51.238281v229.210938c0 20.054688 16.257812 36.3125 36.316406 36.3125h118.984375c20.054688 0 36.3125-16.257812 36.3125-36.3125v-229.210938c0-23.851562-12.382812-45.996093-32.707031-58.484374zm0 0" fill="#f94530"/><path d="m158.90625 187.992188c-20.324219-12.484376-32.707031-34.628907-32.707031-58.480469v-72.335938h-30.390625v72.335938c0 23.851562 12.382812 45.996093 32.707031 58.480469 20.324219 12.488281 32.707031 34.632812 32.707031 58.484374v229.207032c0 20.058594-16.257812 36.316406-36.3125 36.316406h30.390625c20.054688 0 36.3125-16.257812 36.3125-36.316406v-229.207032c0-23.851562-12.382812-45.996093-32.707031-58.484374zm0 0" fill="#d93c2a"/><path d="m0 267.976562v142.207032h191.613281v-142.207032zm0 0" fill="#f9b9b1"/><path d="m161.222656 267.976562h30.390625v142.207032h-30.390625zm0 0" fill="#dba39c"/><path d="m132.863281 57.175781h-74.113281c-4.140625 0-7.5-3.359375-7.5-7.5v-42.175781c0-4.140625 3.359375-7.5 7.5-7.5h74.113281c4.140625 0 7.5 3.359375 7.5 7.5v42.175781c0 4.140625-3.359375 7.5-7.5 7.5zm0 0" fill="#f9b9b1"/><path d="m132.636719 0h-30.390625c4.265625 0 7.726562 3.460938 7.726562 7.726562v41.722657c0 4.265625-3.460937 7.726562-7.726562 7.726562h30.390625c4.265625 0 7.726562-3.460937 7.726562-7.726562v-41.722657c0-4.265624-3.460937-7.726562-7.726562-7.726562zm0 0" fill="#dba39c"/><path d="m65.417969 57.175781h60.78125v70.050781h-60.78125zm0 0" fill="#f9b9b1"/><path d="m95.808594 57.175781h30.386718v70.050781h-30.386718zm0 0" fill="#dba39c"/><path d="m128.6875 346.019531c0 18.160157-14.722656 32.882813-32.878906 32.882813-18.160156 0-32.882813-14.722656-32.882813-32.882813 0-18.15625 14.722657-32.878906 32.882813-32.878906 18.15625 0 32.878906 14.722656 32.878906 32.878906zm0 0" fill="#c73726"/><path d="m113.476562 298.808594c-2.738281-2.738282-7.015624-2.980469-10.039062-.75-1.316406-8.714844-13.945312-8.714844-15.261719 0-3.023437-2.230469-7.300781-1.988282-10.039062.75-3.015625 3.019531-3.015625 7.910156 0 10.929687l12.207031 12.203125c2.386719 2.390625 6.085938 2.964844 9.101562 1.351563 1.4375-.769531.691407-.242188 14.03125-13.554688 3.015626-3.019531 3.015626-7.910156 0-10.929687zm0 0" fill="#60a159"/></svg>