<?xml version="1.0" encoding="iso-8859-1"?>
<!-- Generator: Adobe Illustrator 19.0.0, SVG Export Plug-In . SVG Version: 6.00 Build 0)  -->
<svg xmlns="http://www.w3.org/2000/svg" xmlns:xlink="http://www.w3.org/1999/xlink" version="1.1" id="Layer_1" x="0px" y="0px" viewBox="0 0 494 494" style="enable-background:new 0 0 494 494;" xml:space="preserve" width="512" height="512">
<g>
	<path style="fill:#F06570;" d="M183.268,21.625v168.634H79.455V50.932c0-8.278,4.737-15.838,12.19-19.443l39.711-19.2   l20.912-10.108C166.606-4.754,183.268,5.691,183.268,21.625z"/>
	<path style="fill:#ED484B;" d="M183.268,21.625v168.634h-51.912V12.289l20.912-10.108C166.606-4.754,183.268,5.691,183.268,21.625z   "/>
	<path style="fill:#FFCD76;" d="M198.102,160.486v168.951H64.622V160.486c0-8.765,7.094-15.859,15.859-15.859h101.762   C190.997,144.627,198.102,151.721,198.102,160.486z"/>
	<path style="fill:#F8A73D;" d="M198.102,160.486v168.951h-66.745v-184.81h50.886C190.997,144.627,198.102,151.721,198.102,160.486z   "/>
	<path style="fill:#F8A73D;" d="M218.063,264.013v198.269c0,17.519-14.199,31.718-31.718,31.718H76.379   c-17.519,0-31.718-14.199-31.718-31.718V264.013c0-8.754,7.094-15.859,15.859-15.859h141.684   C210.958,248.154,218.063,255.259,218.063,264.013z"/>
	<path style="fill:#F38531;" d="M218.063,264.013v198.269c0,17.519-14.199,31.718-31.718,31.718h-54.988V248.154h70.847   C210.958,248.154,218.063,255.259,218.063,264.013z"/>
	<path style="fill:#FFCD76;" d="M449.339,242.678v235.463c0,8.765-7.094,15.859-15.859,15.859H291.796   c-8.754,0-15.859-7.094-15.859-15.859V242.678c0-17.519,14.199-31.718,31.718-31.718h109.966   C435.14,210.96,449.339,225.158,449.339,242.678z"/>
	<path style="fill:#F8A73D;" d="M449.339,242.678v235.463c0,8.765-7.094,15.859-15.859,15.859h-70.837V210.96h54.978   C435.14,210.96,449.339,225.158,449.339,242.678z"/>
</g>















</svg>
