<?xml version="1.0" encoding="iso-8859-1"?>
<!-- Generator: Adobe Illustrator 19.0.0, SVG Export Plug-In . SVG Version: 6.00 Build 0)  -->
<svg xmlns="http://www.w3.org/2000/svg" xmlns:xlink="http://www.w3.org/1999/xlink" version="1.1" id="Layer_1" x="0px" y="0px" viewBox="0 0 492 492" style="enable-background:new 0 0 492 492;" xml:space="preserve" width="512" height="512">
<g>
	<path style="fill:#FFE6B9;" d="M492,160.38c0,26.4-10.09,51.29-28.41,70.09C444.4,250.16,417.83,261,388.78,261   c-43,0-79.88,32.12-85.78,74.71c-3.71,26.77-16.97,51.28-37.34,69.02c-6.09,5.3-12.68,9.89-19.66,13.7   c-16.38,9.01-34.88,13.82-53.83,13.82h-69.98C54.81,432.25,0,377.43,0,310.06V199.29C0,122.37,62.57,59.78,139.48,59.75h251.9   C446.86,59.75,492,104.89,492,160.38z"/>
	<path style="fill:#FFCD76;" d="M492,160.38c0,26.4-10.09,51.29-28.41,70.09C444.4,250.16,417.83,261,388.78,261   c-43,0-79.88,32.12-85.78,74.71c-3.71,26.77-16.97,51.28-37.34,69.02c-6.09,5.3-12.68,9.89-19.66,13.7V59.75h145.38   C446.86,59.75,492,104.89,492,160.38z"/>
	<path style="fill:#ED484B;" d="M462,160.38c0,34.23-25.66,70.62-73.22,70.62c-28.15,0-55.35,10.18-76.58,28.67   c-21.23,18.5-35.05,44.04-38.92,71.93c-2.78,20.08-12.84,37.7-27.28,50.32c-14.51,12.69-33.44,20.33-53.83,20.33h-69.98   c-50.83,0-92.19-41.36-92.19-92.19V199.29c0-60.4,49.14-109.54,109.54-109.54h251.84C430.32,89.75,462,121.44,462,160.38z"/>
	<path style="fill:#D92E2F;" d="M462,160.38c0,34.23-25.66,70.62-73.22,70.62c-28.15,0-55.35,10.18-76.58,28.67   c-21.23,18.5-35.05,44.04-38.92,71.93c-2.78,20.08-12.84,37.7-27.28,50.32V89.75h145.38C430.32,89.75,462,121.44,462,160.38z"/>
	<path style="fill:#FFE6B9;" d="M107.345,308.229c-30.032,0-54.465-24.433-54.465-54.466c0-30.032,24.433-54.465,54.465-54.465   s54.466,24.433,54.466,54.465C161.811,283.795,137.377,308.229,107.345,308.229z M107.345,229.297   c-13.49,0-24.465,10.975-24.465,24.465c0,13.491,10.975,24.466,24.465,24.466s24.466-10.975,24.466-24.466   C131.811,240.272,120.835,229.297,107.345,229.297z"/>
	<path style="fill:#FFE6B9;" d="M207.09,120.5c-8.284,0-15,6.716-15,15v187.598c0,8.284,6.716,15,15,15s15-6.716,15-15V135.5   C222.09,127.216,215.374,120.5,207.09,120.5z"/>
	<path style="fill:#FFCD76;" d="M274.964,120.5c-8.284,0-15,6.716-15,15v97.066c0,8.284,6.716,15,15,15s15-6.716,15-15V135.5   C289.964,127.216,283.248,120.5,274.964,120.5z"/>
	<path style="fill:#FFCD76;" d="M342.838,123.768c-8.284,0-15,6.716-15,15v70.587c0,8.284,6.716,15,15,15s15-6.716,15-15v-70.587   C357.838,130.483,351.122,123.768,342.838,123.768z"/>
	<path style="fill:#FFCD76;" d="M410.712,130.686c-8.284,0-15,6.716-15,15v44.668c0,8.284,6.716,15,15,15s15-6.716,15-15v-44.668   C425.712,137.401,418.996,130.686,410.712,130.686z"/>
</g>















</svg>
