<?xml version="1.0" encoding="iso-8859-1"?>
<!-- Generator: Adobe Illustrator 19.0.0, SVG Export Plug-In . SVG Version: 6.00 Build 0)  -->
<svg xmlns="http://www.w3.org/2000/svg" xmlns:xlink="http://www.w3.org/1999/xlink" version="1.1" id="Layer_1" x="0px" y="0px" viewBox="0 0 491.35 491.35" style="enable-background:new 0 0 491.35 491.35;" xml:space="preserve" width="512" height="512">
<g>
	<path style="fill:#C2E5E6;" d="M461.675,196.17v279.29c0,8.77-7.11,15.89-15.89,15.89H45.565c-8.78,0-15.89-7.12-15.89-15.89   V196.17c0-1.72,0.28-3.4,0.8-5.01c0.49-1.45,1.18-2.83,2.07-4.1l72.72-103.86h-0.68V31.78c0-17.55,14.22-31.78,31.77-31.78h218.64   c17.55,0,31.77,14.23,31.77,31.78V83.2h-0.68l72.72,103.86c0.89,1.27,1.58,2.65,2.07,4.1   C461.395,192.77,461.675,194.45,461.675,196.17z"/>
	<path style="fill:#98D5D2;" d="M461.675,196.17v279.29c0,8.77-7.11,15.89-15.89,15.89h-200.11V0h109.32   c17.55,0,31.77,14.23,31.77,31.78V83.2h-0.68l72.72,103.86c0.89,1.27,1.58,2.65,2.07,4.1   C461.395,192.77,461.675,194.45,461.675,196.17z"/>
	<path style="fill:#6AA5D5;" d="M460.875,191.16h-430.4c0.49-1.45,1.18-2.83,2.07-4.1l72.72-103.86h280.82l72.72,103.86   C459.695,188.33,460.385,189.71,460.875,191.16z"/>
	<path style="fill:#4B90BF;" d="M460.875,191.16h-215.2V83.2h140.41l72.72,103.86C459.695,188.33,460.385,189.71,460.875,191.16z"/>
	<path style="fill:#6AA5D5;" d="M138.698,283.288l-21.39,24.22l-21.391-24.221c-9.118-10.322-26.243-3.86-26.243,9.93v85.491   c0,8.284,6.716,15,15,15s15-6.716,15-15v-45.847l6.391,7.236c5.969,6.758,16.518,6.757,22.486,0l6.39-7.235v45.846   c0,8.284,6.716,15,15,15s15-6.716,15-15v-85.491C164.942,279.444,147.828,272.952,138.698,283.288z"/>
	<path style="fill:#6AA5D5;" d="M200.035,278.217c-8.284,0-15,6.716-15,15v85.491c0,8.284,6.716,15,15,15s15-6.716,15-15v-85.491   C215.035,284.933,208.319,278.217,200.035,278.217z"/>
	<path style="fill:#6AA5D5;" d="M310.075,378.91c0,8.28-6.71,15-15,15h-45.14c-1.48,0-2.91-0.21-4.26-0.61   c-6.21-1.84-10.74-7.59-10.74-14.39v-85.5c0-6.8,4.53-12.55,10.74-14.39c1.35-0.4,2.78-0.61,4.26-0.61c8.28,0,15,6.72,15,15v70.5   h30.14C303.365,363.91,310.075,370.62,310.075,378.91z"/>
	<path style="fill:#4B90BF;" d="M310.075,378.91c0,8.28-6.71,15-15,15h-45.14c-1.48,0-2.91-0.21-4.26-0.61V279.02   c1.35-0.4,2.78-0.61,4.26-0.61c8.28,0,15,6.72,15,15v70.5h30.14C303.365,363.91,310.075,370.62,310.075,378.91z"/>
	<path style="fill:#4B90BF;" d="M418.65,369.675l-33.3-44.144l20.868-22.367c5.651-6.058,5.322-15.549-0.735-21.201   c-6.057-5.651-15.549-5.322-21.2,0.735l-30.67,32.873v-22.354c0-8.284-6.716-15-15-15s-15,6.716-15,15v85.491   c0,8.284,6.716,15,15,15s15-6.716,15-15v-19.16l10.959-11.747l30.128,39.94c4.988,6.614,14.395,7.931,21.008,2.942   C422.321,385.695,423.639,376.289,418.65,369.675z"/>
</g>















</svg>
