<svg height="512pt" viewBox="-126 0 512 512" width="512pt" xmlns="http://www.w3.org/2000/svg"><path d="m187.691406 10.789062v43.261719c0 5.949219-4.832031 10.777344-10.792968 10.777344h-93.796876c-5.960937 0-10.792968-4.828125-10.792968-10.777344v-43.261719c0-5.960937 4.832031-10.789062 10.792968-10.789062h93.796876c5.960937 0 10.792968 4.828125 10.792968 10.789062zm0 0" fill="#fdbb46"/><path d="m177.15625 0h-30.902344c5.816406 0 10.53125 4.945312 10.53125 11.046875v42.738281c0 6.101563-4.714844 11.050782-10.53125 11.050782h30.902344c5.820312 0 10.535156-4.949219 10.535156-11.050782v-42.738281c0-6.101563-4.714844-11.046875-10.535156-11.046875zm0 0" fill="#fc9d2a"/><g fill="#eb7c0c"><path d="m108.648438 34.578125v30.25h-15v-30.25c0-4.136719 3.363281-7.5 7.5-7.5 4.152343 0 7.5 3.363281 7.5 7.5zm0 0"/><path d="m166.351562 34.578125v30.25h-15v-30.25c0-4.136719 3.347657-7.5 7.5-7.5 4.136719 0 7.5 3.363281 7.5 7.5zm0 0"/><path d="m137.5 34.578125v30.25h-15v-30.25c0-4.136719 3.359375-7.5 7.5-7.5s7.5 3.363281 7.5 7.5zm0 0"/></g><path d="m226.820312 512h-193.640624c-9.207032 0-16.671876-7.464844-16.671876-16.671875v-416.847656c0-9.207031 7.464844-16.667969 16.671876-16.667969h193.640624c9.207032 0 16.671876 7.460938 16.671876 16.667969v416.847656c0 9.207031-7.464844 16.671875-16.671876 16.671875zm0 0" fill="#ffe491"/><path d="m226.808594 61.8125h-30.949219c9.210937 0 16.679687 7.457031 16.679687 16.65625v416.875c0 9.199219-7.46875 16.65625-16.679687 16.65625h30.949219c9.214844 0 16.683594-7.457031 16.683594-16.65625v-416.875c0-9.199219-7.46875-16.65625-16.683594-16.65625zm0 0" fill="#ffd659"/><path d="m249.691406 155.042969h-239.382812c-5.691406 0-10.308594-4.617188-10.308594-10.3125v-41.191407c0-5.691406 4.617188-10.308593 10.308594-10.308593h239.382812c5.691406 0 10.308594 4.617187 10.308594 10.308593v41.191407c0 5.695312-4.617188 10.3125-10.308594 10.3125zm0 0" fill="#ffd659"/><path d="m249.683594 93.230469h-30.953125c5.699219 0 10.316406 4.613281 10.316406 10.300781v41.207031c0 5.691407-4.617187 10.304688-10.316406 10.304688h30.953125c5.695312 0 10.316406-4.613281 10.316406-10.304688v-41.207031c0-5.6875-4.617188-10.300781-10.316406-10.300781zm0 0" fill="#ffbd54"/><path d="m249.691406 258.058594h-239.382812c-5.691406 0-10.308594-4.613282-10.308594-10.308594v-41.191406c0-5.695313 4.617188-10.3125 10.308594-10.3125h239.382812c5.691406 0 10.308594 4.617187 10.308594 10.3125v41.191406c0 5.695312-4.617188 10.308594-10.308594 10.308594zm0 0" fill="#ffd659"/><path d="m249.683594 196.25h-30.953125c5.699219 0 10.316406 4.609375 10.316406 10.300781v41.207031c0 5.691407-4.617187 10.300782-10.316406 10.300782h30.953125c5.695312 0 10.316406-4.609375 10.316406-10.300782v-41.207031c0-5.6875-4.617188-10.300781-10.316406-10.300781zm0 0" fill="#ffbd54"/><path d="m249.691406 361.078125h-239.382812c-5.691406 0-10.308594-4.617187-10.308594-10.308594v-41.195312c0-5.691407 4.617188-10.308594 10.308594-10.308594h239.382812c5.691406 0 10.308594 4.617187 10.308594 10.308594v41.195312c0 5.695313-4.617188 10.308594-10.308594 10.308594zm0 0" fill="#ffd659"/><path d="m249.683594 299.269531h-30.953125c5.699219 0 10.316406 4.609375 10.316406 10.300781v41.207032c0 5.691406-4.617187 10.300781-10.316406 10.300781h30.953125c5.695312 0 10.316406-4.609375 10.316406-10.300781v-41.207032c0-5.691406-4.617188-10.300781-10.316406-10.300781zm0 0" fill="#ffbd54"/><path d="m249.691406 464.097656h-239.382812c-5.691406 0-10.308594-4.617187-10.308594-10.3125v-41.191406c0-5.691406 4.617188-10.308594 10.308594-10.308594h239.382812c5.691406 0 10.308594 4.617188 10.308594 10.308594v41.191406c0 5.695313-4.617188 10.3125-10.308594 10.3125zm0 0" fill="#ffd659"/><path d="m249.683594 402.285156h-30.953125c5.699219 0 10.316406 4.613282 10.316406 10.304688v41.207031c0 5.6875-4.617187 10.300781-10.316406 10.300781h30.953125c5.695312 0 10.316406-4.613281 10.316406-10.300781v-41.207031c0-5.691406-4.617188-10.304688-10.316406-10.304688zm0 0" fill="#ffbd54"/><path d="m196.960938 279.695312c0-56.898437-29.980469-103.019531-66.960938-103.019531s-66.960938 46.121094-66.960938 103.019531c0 56.894532 29.980469 103.015626 66.960938 103.015626s66.960938-46.121094 66.960938-103.015626zm0 0" fill="#3bd387"/><path d="m156.785156 288.421875c0 22.1875-11.992187 31.449219-26.785156 31.449219s-26.785156-9.257813-26.785156-31.449219 26.785156-48.90625 26.785156-48.90625 26.785156 26.714844 26.785156 48.90625zm0 0" fill="#ffd659"/><path d="m130 239.515625s-6.355469 6.347656-12.871094 15.410156c6.863282 9.546875 13.910156 22.113281 13.910156 33.496094 0 15.1875-5.617187 24.316406-13.910156 28.566406 3.820313 1.957031 8.207032 2.882813 12.871094 2.882813 14.792969 0 26.785156-9.261719 26.785156-31.449219 0-22.191406-26.785156-48.90625-26.785156-48.90625zm0 0" fill="#ffbd54"/></svg>