<?xml version="1.0" encoding="iso-8859-1"?>
<!-- Generator: Adobe Illustrator 19.0.0, SVG Export Plug-In . SVG Version: 6.00 Build 0)  -->
<svg xmlns="http://www.w3.org/2000/svg" xmlns:xlink="http://www.w3.org/1999/xlink" version="1.1" id="Layer_1" x="0px" y="0px" viewBox="0 0 501.333 501.333" style="enable-background:new 0 0 501.333 501.333;" xml:space="preserve" width="512" height="512">
<g>
	<path style="fill:#4B90BF;" d="M399.351,106.458l-5.922,46.785h-50.364l-5.922-46.785c-1.203-9.5,6.202-17.901,15.785-17.901   h30.648C393.149,88.556,400.554,96.957,399.351,106.458z"/>
	<path style="fill:#2E77A6;" d="M399.351,106.458l-5.922,46.785h-25.182V88.556h15.329   C393.149,88.556,400.554,96.957,399.351,106.458z"/>
	<path style="fill:#4B90BF;" d="M31.813,276.585H252.66v-63.626H31.813C14.243,212.958,0,227.202,0,244.771v0   C0,262.341,14.243,276.585,31.813,276.585z"/>
	<path style="fill:#F8A73D;" d="M501.333,208.118v179.208c0,14.053-11.398,25.451-25.451,25.451H260.613   c-14.053,0-25.451-11.398-25.451-25.451V208.118H501.333z"/>
	<path style="fill:#F38531;" d="M501.333,208.118v179.208c0,14.053-11.398,25.451-25.451,25.451H368.248V208.118H501.333z"/>
	<path style="fill:#FFCD76;" d="M501.333,176.897v36.061H235.161v-36.061c0-17.569,14.24-31.809,31.819-31.809h202.543   C487.093,145.088,501.333,159.328,501.333,176.897z"/>
	<path style="fill:#F8A73D;" d="M501.333,176.897v36.061H368.248v-67.87h101.277C487.093,145.088,501.333,159.328,501.333,176.897z"/>
</g>















</svg>
