<?xml version="1.0" encoding="iso-8859-1"?>
<!-- Generator: Adobe Illustrator 19.0.0, SVG Export Plug-In . SVG Version: 6.00 Build 0)  -->
<svg xmlns="http://www.w3.org/2000/svg" xmlns:xlink="http://www.w3.org/1999/xlink" version="1.1" id="Layer_1" x="0px" y="0px" viewBox="0 0 489.28 489.28" style="enable-background:new 0 0 489.28 489.28;" xml:space="preserve" width="512" height="512">
<g>
	<path style="fill:#4B90BF;" d="M390.72,31.7v425.88c0,17.5-14.19,31.7-31.7,31.7H130.26c-17.51,0-31.7-14.2-31.7-31.7V31.7   c0-17.5,14.19-31.7,31.7-31.7h228.76C376.53,0,390.72,14.2,390.72,31.7z"/>
	<path style="fill:#2E77A6;" d="M390.72,31.7v425.88c0,17.5-14.19,31.7-31.7,31.7H244.64V0h114.38C376.53,0,390.72,14.2,390.72,31.7   z"/>
	<rect x="98.56" y="83.91" style="fill:#C2E5E6;" width="292.16" height="321.46"/>
	<rect x="244.64" y="83.91" style="fill:#98D5D2;" width="146.08" height="321.46"/>
	<path style="fill:#C2E5E6;" d="M290.02,448.03c0,8.29-6.72,15-15,15h-60.76c-8.28,0-15-6.71-15-15c0-8.28,6.72-15,15-15h60.76   C283.3,433.03,290.02,439.75,290.02,448.03z"/>
	<path style="fill:#98D5D2;" d="M290.02,448.03c0,8.29-6.72,15-15,15h-30.38v-30h30.38C283.3,433.03,290.02,439.75,290.02,448.03z"/>
	<path style="fill:#C2E5E6;" d="M313.89,43.89c0,8.28-6.72,15-15,15h-57.5c-8.28,0-15-6.72-15-15c0-8.28,6.72-15,15-15h57.5   C307.17,28.89,313.89,35.61,313.89,43.89z"/>
	<path style="fill:#98D5D2;" d="M313.89,43.89c0,8.28-6.72,15-15,15h-54.25v-30h54.25C307.17,28.89,313.89,35.61,313.89,43.89z"/>
	<path style="fill:#C2E5E6;" d="M197.14,28.89h-6.75c-8.284,0-15,6.716-15,15s6.716,15,15,15h6.75c8.284,0,15-6.716,15-15   S205.424,28.89,197.14,28.89z"/>
</g>















</svg>
