<?xml version="1.0" encoding="iso-8859-1"?>
<!-- Generator: Adobe Illustrator 19.0.0, SVG Export Plug-In . SVG Version: 6.00 Build 0)  -->
<svg version="1.1" id="Capa_1" xmlns="http://www.w3.org/2000/svg" xmlns:xlink="http://www.w3.org/1999/xlink" x="0px" y="0px"
	 viewBox="0 0 512 512" style="enable-background:new 0 0 512 512;" xml:space="preserve">
<path style="fill:#585A60;" d="M256.001,0.028c-15.199,0-27.519,12.32-27.519,27.517v358.277h55.037V27.545
	C283.518,12.348,271.198,0.028,256.001,0.028z"/>
<path style="fill:#494B51;" d="M269.759,3.718C251.51-6.84,228.481,6.331,228.481,27.545v358.277h27.518V27.545
	C255.999,17.362,261.536,8.477,269.759,3.718z"/>
<rect x="228.48" y="278.87" style="fill:#BABABA;" width="55.04" height="102.85"/>
<rect x="228.48" y="278.87" style="fill:#ADADAD;" width="27.518" height="102.85"/>
<path style="fill:#F76666;" d="M275.113,377.58h-38.227c-50.286,7.946-90.321,48.751-100.15,98.387H375.26
	C365.434,426.331,325.399,385.526,275.113,377.58z"/>
<path style="fill:#C95050;" d="M264.406,377.58h-27.519c-50.286,7.946-90.321,48.751-100.15,98.387h27.519
	C174.085,426.331,214.119,385.526,264.406,377.58z"/>
<path style="fill:#BC4242;" d="M393.822,492.954c0-10.519-8.528-19.046-19.046-19.046c-6.275,0-222.981,0-237.55,0
	c-10.518,0-19.046,8.527-19.046,19.046S126.707,512,137.225,512c7.098,0,222.324,0,237.55,0
	C385.293,512,393.822,503.473,393.822,492.954z"/>
<path style="fill:#A03A3A;" d="M150.457,492.954c0-10.519,8.528-19.046,19.046-19.046h-32.279c-10.518,0-19.046,8.527-19.046,19.046
	S126.707,512,137.225,512h32.279C158.986,512,150.457,503.473,150.457,492.954z"/>
<g>
</g>
<g>
</g>
<g>
</g>
<g>
</g>
<g>
</g>
<g>
</g>
<g>
</g>
<g>
</g>
<g>
</g>
<g>
</g>
<g>
</g>
<g>
</g>
<g>
</g>
<g>
</g>
<g>
</g>
</svg>
