<?xml version="1.0" encoding="iso-8859-1"?>
<!-- Generator: Adobe Illustrator 19.0.0, SVG Export Plug-In . SVG Version: 6.00 Build 0)  -->
<svg xmlns="http://www.w3.org/2000/svg" xmlns:xlink="http://www.w3.org/1999/xlink" version="1.1" id="Layer_1" x="0px" y="0px" viewBox="0 0 494.88 494.88" style="enable-background:new 0 0 494.88 494.88;" xml:space="preserve" width="512" height="512">
<g>
	<path style="fill:#FFE6B9;" d="M479.94,87.07c-13.38,13.38-110.69,73.58-121.07,70.79L157.86,358.87   c2.79,10.38-57.41,107.69-70.79,121.07c-19.92,19.92-52.21,19.92-72.13,0s-19.92-52.21,0-72.13   c13.38-13.38,110.69-73.58,121.07-70.79l201.01-201.01c-2.79-10.38,57.41-107.69,70.79-121.07c19.92-19.92,52.21-19.92,72.13,0   S499.86,67.15,479.94,87.07z"/>
	<path style="fill:#FFCD76;" d="M479.94,87.07c-13.38,13.38-110.69,73.58-121.07,70.79L157.86,358.87   c2.79,10.38-57.41,107.69-70.79,121.07c-19.92,19.92-52.21,19.92-72.13,0l465-465C499.86,34.86,499.86,67.15,479.94,87.07z"/>
	<path style="fill:#F8A73D;" d="M412.857,191.018L191.018,412.857c-8.852,8.852-23.205,8.852-32.058,0l-76.938-76.938   c-8.852-8.852-8.852-23.205,0-32.058L303.861,82.022c8.852-8.852,23.205-8.852,32.058,0l76.938,76.938   C421.71,167.813,421.71,182.166,412.857,191.018z"/>
	<path style="fill:#F38531;" d="M412.86,191.02L191.02,412.86c-8.85,8.85-23.21,8.85-32.06,0l-38.47-38.47l253.9-253.9l38.47,38.47   C421.71,167.81,421.71,182.17,412.86,191.02z"/>
</g>















</svg>
