<svg height="512pt" viewBox="-58 0 512 512.001" width="512pt" xmlns="http://www.w3.org/2000/svg"><path d="m185.640625 247.800781v243.597657c0 11.378906-9.234375 20.601562-20.628906 20.601562h-144.382813c-11.394531 0-20.628906-9.222656-20.628906-20.601562v-243.597657c0-29.820312 10.496094-58.691406 29.652344-81.5625 19.152344-22.871093 29.648437-51.742187 29.648437-81.5625v-49.496093h67.039063v49.496093c0 29.816407 10.496094 58.6875 29.652344 81.5625 19.152343 22.871094 29.648437 51.742188 29.648437 81.5625zm0 0" fill="#fe5555"/><path d="m155.988281 166.238281c-19.152343-22.875-29.648437-51.746093-29.648437-81.566406v-49.492187h-30.941406v49.496093c0 29.816407 10.496093 58.6875 29.652343 81.5625 19.152344 22.871094 29.648438 51.742188 29.648438 81.5625v243.59375c0 11.378907-9.234375 20.605469-20.625 20.605469h30.9375c11.394531 0 20.628906-9.226562 20.628906-20.605469v-243.59375c0-29.820312-10.496094-58.691406-29.652344-81.5625zm0 0" fill="#e84141"/><path d="m395 309.578125v171.515625c0 17.070312-13.851562 30.90625-30.941406 30.90625h-123.757813c-17.089843 0-30.941406-13.835938-30.941406-30.90625v-171.515625c0-15.53125 5.476563-30.5625 15.472656-42.460937 9.992188-11.894532 15.46875-26.929688 15.46875-42.457032v-11.414062h123.757813v11.414062c0 15.527344 5.480468 30.5625 15.472656 42.457032 9.992188 11.898437 15.46875 26.929687 15.46875 42.460937zm0 0" fill="#3bd387"/><path d="m379.53125 267.117188c-9.992188-11.894532-15.472656-26.929688-15.472656-42.457032v-11.414062h-30.9375v11.414062c0 15.527344 5.476562 30.5625 15.46875 42.457032 9.992187 11.898437 15.46875 26.929687 15.46875 42.460937v171.515625c0 17.070312-13.851563 30.90625-30.9375 30.90625h30.9375c17.089844 0 30.941406-13.835938 30.941406-30.90625v-171.515625c0-15.53125-5.476562-30.5625-15.46875-42.460937zm0 0" fill="#37c487"/><path d="m0 268.363281h185.640625v158.648438h-185.640625zm0 0" fill="#3bd387"/><path d="m154.699219 268.363281h30.941406v158.648438h-30.941406zm0 0" fill="#37c487"/><path d="m209.359375 315.75h185.640625v158.648438h-185.640625zm0 0" fill="#ffd659"/><path d="m364.058594 315.75h30.941406v158.648438h-30.941406zm0 0" fill="#ffbd54"/><path d="m140.476562 302.296875c-2.929687-2.929687-7.675781-2.933594-10.609374-.003906l-14.476563 14.460937c-2.929687 2.925782-2.933594 7.675782-.003906 10.605469 1.464843 1.464844 3.386719 2.199219 5.304687 2.199219 1.917969 0 3.835938-.730469 5.300782-2.195313l14.476562-14.460937c2.929688-2.925782 2.933594-7.671875.007812-10.605469zm0 0" fill="#804d36"/><path d="m374.371094 132.378906v94.769532c0 2.28125-1.839844 4.132812-4.121094 4.132812h-136.140625c-2.277344 0-4.117187-1.851562-4.117187-4.132812v-94.769532c0-2.277344 1.839843-4.117187 4.117187-4.117187h136.140625c2.28125 0 4.121094 1.839843 4.121094 4.117187zm0 0" fill="#fe5555"/><path d="m370.25 128.257812h-30.941406c2.277344 0 4.125 1.84375 4.125 4.121094v94.777344c0 2.277344-1.847656 4.121094-4.125 4.121094h30.941406c2.277344 0 4.125-1.84375 4.125-4.121094v-94.777344c0-2.277344-1.847656-4.121094-4.125-4.121094zm0 0" fill="#e84141"/><path d="m129.949219 61.8125h-74.257813c-2.277344 0-4.125-1.847656-4.125-4.125v-53.566406c0-2.273438 1.847656-4.121094 4.125-4.121094h74.257813c2.277343 0 4.125 1.847656 4.125 4.121094v53.566406c0 2.277344-1.847657 4.125-4.125 4.125zm0 0" fill="#4c779f"/><path d="m129.949219 0h-30.941407c2.277344 0 4.125 1.84375 4.125 4.121094v53.570312c0 2.273438-1.847656 4.121094-4.125 4.121094h30.941407c2.277343 0 4.125-1.847656 4.125-4.121094v-53.570312c0-2.277344-1.847657-4.121094-4.125-4.121094zm0 0" fill="#3a5c7a"/><path d="m346.785156 345.621094c-2.929687-2.929688-7.679687-2.929688-10.609375-.003906l-14.476562 14.460937c-2.929688 2.925781-2.933594 7.675781-.003907 10.605469 1.464844 1.464844 3.382813 2.199218 5.304688 2.199218 1.917969 0 3.835938-.730468 5.300781-2.195312l14.476563-14.457031c2.929687-2.929688 2.933594-7.675781.007812-10.609375zm0 0" fill="#804d36"/><g fill="#cc3939"><path d="m309.679688 200.371094v30.910156h-15v-30.910156c0-4.140625 3.359374-7.5 7.5-7.5 4.140624 0 7.5 3.359375 7.5 7.5zm0 0"/><path d="m268.429688 200.371094v30.910156h-15v-30.910156c0-4.140625 3.351562-7.5 7.5-7.5 4.140624 0 7.5 3.359375 7.5 7.5zm0 0"/><path d="m350.929688 200.371094v30.910156h-15v-30.910156c0-4.140625 3.359374-7.5 7.5-7.5 4.152343 0 7.5 3.359375 7.5 7.5zm0 0"/></g><path d="m327 365.382812c8.660156 8.648438 6.46875 24.859376-8.75 40.066407-18.328125 18.304687-55.488281 28.34375-60.894531 22.945312-4.15625-4.152343 15.179687-22.433593 27.328125-49.4375 12.070312-26.832031 33.65625-22.222656 42.316406-13.574219zm0 0" fill="#fe5555"/><path d="m120.691406 322.058594c8.660156 8.652344 6.46875 24.859375-8.75 40.066406-18.328125 18.304688-55.488281 28.34375-60.894531 22.945312-4.15625-4.152343 15.179687-22.433593 27.328125-49.4375 12.074219-26.832031 33.65625-22.222656 42.316406-13.574218zm0 0" fill="#fe5555"/></svg>