<svg height="512pt" viewBox="-65 0 512 512" width="512pt" xmlns="http://www.w3.org/2000/svg"><path d="m330.433594 512h-278.867188c-28.480468 0-51.566406-23.085938-51.566406-51.566406v-408.867188c0-28.480468 23.085938-51.566406 51.566406-51.566406h278.867188c28.480468 0 51.566406 23.085938 51.566406 51.566406v408.867188c0 28.480468-23.085938 51.566406-51.566406 51.566406zm0 0" fill="#bbeded"/><path d="m330.378906 0h-30.972656c28.507812 0 51.621094 23.0625 51.621094 51.507812v408.984376c0 28.445312-23.113282 51.507812-51.621094 51.507812h30.972656c28.507813 0 51.621094-23.0625 51.621094-51.507812v-408.984376c0-28.445312-23.113281-51.507812-51.621094-51.507812zm0 0" fill="#ace0e0"/><path d="m30.972656 460.46875v-408.9375c0-11.390625 9.234375-20.625 20.625-20.625h278.804688c11.390625 0 20.625 9.234375 20.625 20.625v408.9375c0 11.390625-9.234375 20.625-20.625 20.625h-278.804688c-11.390625 0-20.625-9.234375-20.625-20.625zm0 0" fill="#d1ffff"/><path d="m54.375 104.867188h-23.082031c-4.140625 0-7.5 3.359374-7.5 7.5 0 4.144531 3.359375 7.5 7.5 7.5h23.082031c4.140625 0 7.5-3.355469 7.5-7.5 0-4.140626-3.359375-7.5-7.5-7.5zm0 0" fill="#bbeded"/><path d="m332.726562 207.058594h18.542969c4.140625 0 7.5-3.359375 7.5-7.5 0-4.144532-3.359375-7.5-7.5-7.5h-18.542969c-4.144531 0-7.5 3.355468-7.5 7.5 0 4.140625 3.355469 7.5 7.5 7.5zm0 0" fill="#ace0e0"/><path d="m30.949219 304.707031h18.089843c4.144532 0 7.5-3.355469 7.5-7.5s-3.355468-7.5-7.5-7.5h-18.089843c-4.140625 0-7.5 3.355469-7.5 7.5s3.359375 7.5 7.5 7.5zm0 0" fill="#bbeded"/><path d="m54.375 426.207031h-23.082031c-4.140625 0-7.5 3.355469-7.5 7.5 0 4.140625 3.359375 7.5 7.5 7.5h23.082031c4.140625 0 7.5-3.359375 7.5-7.5 0-4.144531-3.359375-7.5-7.5-7.5zm0 0" fill="#bbeded"/><path d="m350.75 373.128906h-26.359375c-4.144531 0-7.5 3.355469-7.5 7.5 0 4.140625 3.355469 7.5 7.5 7.5h26.359375c4.140625 0 7.5-3.359375 7.5-7.5 0-4.144531-3.359375-7.5-7.5-7.5zm0 0" fill="#ace0e0"/><path d="m108.277344 462.035156c-17.070313 0-30.90625-13.835937-30.90625-30.902344v-350.265624c0-17.066407 13.839844-30.902344 30.90625-30.902344 17.070312 0 30.90625 13.835937 30.90625 30.902344v350.265624c0 17.066407-13.835938 30.902344-30.90625 30.902344zm0 0" fill="#fd825e"/><path d="m108.277344 49.964844c-5.632813 0-10.90625 1.511718-15.453125 4.144531 9.234375 5.34375 15.453125 15.324219 15.453125 26.761719v350.261718c0 11.4375-6.21875 21.414063-15.453125 26.761719 4.546875 2.628907 9.820312 4.144531 15.453125 4.144531 17.070312 0 30.90625-13.839843 30.90625-30.90625v-350.265624c0-17.066407-13.835938-30.902344-30.90625-30.902344zm0 0" fill="#eb6044"/><path d="m191 462.035156c-17.070312 0-30.90625-13.835937-30.90625-30.902344v-350.265624c0-17.066407 13.839844-30.902344 30.90625-30.902344 17.070312 0 30.90625 13.835937 30.90625 30.902344v350.265624c0 17.066407-13.835938 30.902344-30.90625 30.902344zm0 0" fill="#fd825e"/><path d="m191 49.964844c-5.632812 0-10.90625 1.511718-15.453125 4.144531 9.234375 5.34375 15.453125 15.324219 15.453125 26.757813v350.265624c0 11.433594-6.21875 21.414063-15.453125 26.757813 4.546875 2.632813 9.820313 4.144531 15.453125 4.144531 17.070312 0 30.90625-13.835937 30.90625-30.902344v-350.265624c0-17.066407-13.835938-30.902344-30.90625-30.902344zm0 0" fill="#eb6044"/><path d="m273.722656 462.035156c-17.070312 0-30.90625-13.835937-30.90625-30.902344v-350.265624c0-17.066407 13.839844-30.902344 30.90625-30.902344 17.070313 0 30.90625 13.835937 30.90625 30.902344v350.265624c0 17.066407-13.839844 30.902344-30.90625 30.902344zm0 0" fill="#fd825e"/><path d="m273.722656 49.964844c-5.628906 0-10.90625 1.511718-15.453125 4.144531 9.234375 5.34375 15.453125 15.324219 15.453125 26.761719v350.261718c0 11.4375-6.21875 21.414063-15.453125 26.761719 4.546875 2.628907 9.824219 4.144531 15.453125 4.144531 17.070313 0 30.90625-13.839843 30.90625-30.90625v-350.265624c0-17.066407-13.839844-30.902344-30.90625-30.902344zm0 0" fill="#eb6044"/></svg>