<?xml version="1.0" encoding="iso-8859-1"?>
<!-- Generator: Adobe Illustrator 21.0.0, SVG Export Plug-In . SVG Version: 6.00 Build 0)  -->
<svg version="1.1" id="Capa_1" xmlns="http://www.w3.org/2000/svg" xmlns:xlink="http://www.w3.org/1999/xlink" x="0px" y="0px"
	 viewBox="0 0 512 512" style="enable-background:new 0 0 512 512;" xml:space="preserve">
<path style="fill:#5A5555;" d="M382.374,214.914c-179.932,137.14-234.502,181.239-267.325,194.557l-81.596,33.115
	c-9.682,3.925-20.956,1.426-27.65-6.59c-0.239-0.281-0.468-0.573-0.697-0.864c-4.56-5.996-5.996-13.377-4.57-20.217
	c1.176-5.674,4.331-10.962,9.296-14.751c4.011-3.056,321.727-245.162,329.745-251.272
	C349.007,173.523,363.601,196.055,382.374,214.914z"/>
<path style="fill:#736E6E;" d="M357.837,184.63C187.785,314.216,537.087,48.018,160.708,334.85
	c-14.647,11.16-54.321,38.31-71.383,45.233L7.73,413.198c-2.342,0.947-4.768,1.52-7.193,1.718
	c1.176-5.674,4.331-10.962,9.296-14.751c20.561-15.668,289.92-220.926,329.745-251.272
	C344.407,161.509,350.56,173.481,357.837,184.63z"/>
<g>
	<path style="fill:#9B9696;" d="M379.979,295.271c-18.462,19.233-32.635,42.014-41.641,66.896
		C265,306.281,79.313,164.778,9.832,111.832C-1.163,103.457-3.548,87.386,5.804,76c6.815-8.16,18.278-10.457,27.65-6.579
		l81.596,33.115c36.03,14.619,117.351,80.997,148.69,104.144C437.525,339.122,340.219,264.965,379.979,295.271z"/>
	<path style="fill:#9B9696;" d="M408.431,316.945c-4.164,0.489-8.266,1.457-12.222,2.894c1.27-2.977,2.832-5.871,4.674-8.641
		L408.431,316.945z"/>
</g>
<path style="fill:#B4AAAA;" d="M379.979,295.271c-8.214,8.557-15.636,17.885-22.153,27.858
	c-0.107-0.082-200.751-152.977-316.43-241.133c-4.435-3.373-7.412-7.943-8.849-12.909c0.621,0.193-4.734-1.95,82.501,33.448
	c17.062,6.923,56.736,34.073,71.383,45.233C194.179,153.671,167.268,133.162,379.979,295.271z"/>
<circle style="fill:#DCD2CD;" cx="265.503" cy="255.946" r="14.484"/>
<g>
	<path style="fill:#F95F00;" d="M492.098,81.944c-32.542-42.672-93.515-50.885-136.187-18.353
		c-56.858,43.357-47.989,129.355,11.972,162.369c32.678,18.01,74.277,16.25,105.862-7.829
		C516.416,185.599,524.63,124.626,492.098,81.944z M408.451,195.051c-48.624-5.746-65.509-68.024-26.702-97.586
		c23.975-18.27,58.214-13.648,76.474,10.327C487.379,146.036,455.967,200.671,408.451,195.051z"/>
	<path style="fill:#F95F00;" d="M473.724,293.855c-31.574-24.058-73.174-25.817-105.841-7.808
		c-60.033,32.994-68.747,119.084-11.951,162.379c42.682,32.522,103.655,24.287,136.176-18.395
		C524.64,387.349,516.406,326.376,473.724,293.855z M458.223,404.214c-29.326,38.488-90.206,22.256-97.325-24.86
		c-7.448-48.512,48.284-81.114,86.998-51.614C471.871,346,476.493,380.239,458.223,404.214z"/>
	<path style="fill:#F95F00;" d="M408.431,316.945c-4.164,0.489-8.266,1.457-12.222,2.894c1.27-2.977,2.832-5.871,4.674-8.641
		L408.431,316.945z"/>
</g>
<g>
</g>
<g>
</g>
<g>
</g>
<g>
</g>
<g>
</g>
<g>
</g>
<g>
</g>
<g>
</g>
<g>
</g>
<g>
</g>
<g>
</g>
<g>
</g>
<g>
</g>
<g>
</g>
<g>
</g>
</svg>
