<?xml version="1.0" encoding="iso-8859-1"?>
<!-- Generator: Adobe Illustrator 19.0.0, SVG Export Plug-In . SVG Version: 6.00 Build 0)  -->
<svg xmlns="http://www.w3.org/2000/svg" xmlns:xlink="http://www.w3.org/1999/xlink" version="1.1" id="Layer_1" x="0px" y="0px" viewBox="0 0 493.48 493.48" style="enable-background:new 0 0 493.48 493.48;" xml:space="preserve" width="512" height="512">
<g>
	<path style="fill:#FFCD76;" d="M389.7,251.71c-6.676,4.902-16.064,3.438-20.96-3.24l-122-166.67l-122,166.67   c-4.89,6.68-14.28,8.13-20.96,3.24c-6.69-4.89-8.14-14.28-3.25-20.96L234.64,47.54c2.82-3.85,7.32-6.14,12.1-6.14   s9.28,2.29,12.1,6.14l134.11,183.21C397.84,237.43,396.39,246.82,389.7,251.71z"/>
	<path style="fill:#F8A73D;" d="M389.7,251.71c-6.676,4.902-16.064,3.438-20.96-3.24l-122-166.67V41.4c4.78,0,9.28,2.29,12.1,6.14   l134.11,183.21C397.84,237.43,396.39,246.82,389.7,251.71z"/>
	<path style="fill:#4B90BF;" d="M493.48,251.93v192.46c0,24.81-20.19,45-45,45H45c-24.81,0-45-20.19-45-45V251.93   c0-24.82,20.19-45,45-45h403.48C473.29,206.93,493.48,227.11,493.48,251.93z"/>
	<path style="fill:#2E77A6;" d="M493.48,251.93v192.46c0,24.81-20.19,45-45,45H246.74V206.93h201.74   C473.29,206.93,493.48,227.11,493.48,251.93z"/>
	<path style="fill:#C2E5E6;" d="M463.48,251.92v192.46c0,8.27-6.73,15-15,15H45c-8.27,0-15-6.73-15-15V251.92c0-8.27,6.73-15,15-15   h403.48C456.75,236.92,463.48,243.65,463.48,251.92z"/>
	<path style="fill:#98D5D2;" d="M463.48,251.92v192.46c0,8.27-6.73,15-15,15H246.74V236.92h201.74   C456.75,236.92,463.48,243.65,463.48,251.92z"/>
	<path style="fill:#4B90BF;" d="M89.089,293.482c-24.041,0-43.599,19.559-43.599,43.599v22.15c0,24.041,19.559,43.599,43.599,43.599   s43.599-19.559,43.599-43.599v-22.15C132.688,313.041,113.13,293.482,89.089,293.482z M102.688,359.231   c0,7.499-6.101,13.599-13.599,13.599S75.49,366.73,75.49,359.231v-22.15c0-7.499,6.101-13.599,13.599-13.599   s13.599,6.101,13.599,13.599V359.231z"/>
	<path style="fill:#2E77A6;" d="M327.889,323.482c8.284,0,15-6.716,15-15s-6.716-15-15-15h-57.198c-8.284,0-15,6.716-15,15v79.348   c0,8.284,6.716,15,15,15h57.198c8.284,0,15-6.716,15-15s-6.716-15-15-15h-42.198v-9.674h25.049c8.284,0,15-6.716,15-15   s-6.716-15-15-15h-25.049v-9.674H327.889z"/>
	<path style="fill:#2E77A6;" d="M432.99,293.482c-8.284,0-15,6.716-15,15v32.888l-30.03-41.659   c-8.476-11.759-27.168-5.765-27.168,8.771v79.348c0,8.284,6.716,15,15,15s15-6.716,15-15v-32.888l30.03,41.659   c8.5,11.793,27.168,5.766,27.168-8.771v-79.348C447.99,300.198,441.274,293.482,432.99,293.482z"/>
	<path style="fill:#4B90BF;" d="M202.952,293.482h-37.361c-8.284,0-15,6.716-15,15c0,24.657,0,54.73,0,79.348   c0,8.284,6.716,15,15,15s15-6.716,15-15v-24.674h22.361c19.209,0,34.837-15.628,34.837-34.837   C237.789,309.11,222.161,293.482,202.952,293.482z M202.952,333.156h-22.361v-9.674h22.361c2.667,0,4.837,2.17,4.837,4.837   C207.789,330.986,205.619,333.156,202.952,333.156z"/>
	<path style="fill:#4B90BF;" d="M302.41,59.76c0,30.74-24.93,55.67-55.67,55.67s-55.67-24.93-55.67-55.67   c0-30.74,24.93-55.67,55.67-55.67S302.41,29.02,302.41,59.76z"/>
	<path style="fill:#2E77A6;" d="M302.41,59.76c0,30.74-24.93,55.67-55.67,55.67V4.09C277.48,4.09,302.41,29.02,302.41,59.76z"/>
</g>















</svg>
