<?xml version="1.0" encoding="iso-8859-1"?>
<!-- Generator: Adobe Illustrator 19.0.0, SVG Export Plug-In . SVG Version: 6.00 Build 0)  -->
<svg xmlns="http://www.w3.org/2000/svg" xmlns:xlink="http://www.w3.org/1999/xlink" version="1.1" id="Layer_1" x="0px" y="0px" viewBox="0 0 487.569 487.569" style="enable-background:new 0 0 487.569 487.569;" xml:space="preserve" width="512" height="512">
<g>
	<path style="fill:#F8A73D;" d="M391.125,4.394l92.051,92.051c5.862,5.862,5.855,15.358,0,21.213L117.658,483.176   c-5.855,5.855-15.351,5.862-21.213,0L4.394,391.125c-5.862-5.862-5.855-15.358,0-21.213L369.911,4.394   C375.766-1.461,385.263-1.468,391.125,4.394z"/>
	<path style="fill:#F38531;" d="M437.002,50.271l46.174,46.174c5.862,5.862,5.855,15.358,0,21.213L117.658,483.176   c-5.855,5.855-15.351,5.862-21.213,0l-46.174-46.174L437.002,50.271z"/>
	<path style="fill:#FFE6B9;" d="M346.4,27.41l113.455,113.455l-11.604,67.889c-0.262,1.449-0.707,2.857-1.358,4.158   c-0.721,1.442-1.669,2.772-2.822,3.924L216.837,444.073c-1.153,1.153-2.482,2.1-3.924,2.822c-1.301,0.651-2.708,1.096-4.158,1.358   l-67.889,11.604L27.41,346.4l11.611-67.882c0.262-1.45,0.707-2.857,1.358-4.158c0.721-1.443,1.669-2.772,2.821-3.924L270.436,43.2   c1.153-1.153,2.482-2.1,3.924-2.821c1.301-0.651,2.708-1.096,4.158-1.358L346.4,27.41z"/>
	<path style="fill:#FFCD76;" d="M403.131,84.141l56.724,56.724l-11.604,67.889c-0.262,1.449-0.707,2.857-1.358,4.158   c-0.721,1.442-1.669,2.772-2.822,3.924L216.837,444.073c-1.153,1.153-2.482,2.1-3.924,2.822c-1.301,0.651-2.708,1.096-4.158,1.358   l-67.889,11.604l-56.724-56.724L403.131,84.141z"/>
	<path style="fill:#A8D384;" d="M274.36,40.378l172.534,172.534c-0.721,1.442-1.669,2.772-2.822,3.924L216.837,444.073   c-1.153,1.153-2.482,2.1-3.924,2.822L40.378,274.36c0.721-1.443,1.669-2.772,2.821-3.924L270.436,43.2   C271.588,42.047,272.918,41.1,274.36,40.378z"/>
	<path style="fill:#80C469;" d="M360.627,126.646l86.267,86.267c-0.721,1.442-1.669,2.772-2.822,3.924L216.837,444.073   c-1.153,1.153-2.482,2.1-3.924,2.822l-86.267-86.267L360.627,126.646z"/>
	<path style="fill:#FFE6B9;" d="M324.706,228.568c0.445,3.373,0.686,6.809,0.679,10.31c0,43.105-35.447,77.93-78.786,76.905   c-20.449-0.481-38.962-9.065-52.488-22.62c-14.036-14.064-22.698-33.474-22.592-54.709c0.149-28.178,15.45-52.771,38.17-66.058   c5.162-3.012,11.879-0.99,14.319,4.462c8.655,19.276,24.996,34.344,45.128,41.281c7.856,2.708,16.299,4.179,25.081,4.179   c6.286,0.007,12.403-0.75,18.243-2.164C318.229,218.753,323.914,222.685,324.706,228.568z"/>
	<path style="fill:#FFCD76;" d="M324.706,228.568c0.445,3.373,0.686,6.809,0.679,10.31c0,43.105-35.447,77.93-78.786,76.905   c-20.449-0.481-38.962-9.065-52.488-22.62l75.024-75.024c7.856,2.708,16.299,4.179,25.081,4.179   c6.286,0.007,12.403-0.75,18.243-2.164C318.229,218.753,323.914,222.685,324.706,228.568z"/>
</g>















</svg>
