<?xml version="1.0" encoding="iso-8859-1"?>
<!-- Generator: Adobe Illustrator 19.0.0, SVG Export Plug-In . SVG Version: 6.00 Build 0)  -->
<svg xmlns="http://www.w3.org/2000/svg" xmlns:xlink="http://www.w3.org/1999/xlink" version="1.1" id="Layer_1" x="0px" y="0px" viewBox="0 0 489.27 489.27" style="enable-background:new 0 0 489.27 489.27;" xml:space="preserve" width="512" height="512">
<g>
	<path style="fill:#FFE6B9;" d="M256.313,34.1v76c0,8.29-6.72,15-15,15s-15-6.71-15-15v-76c0-8.28,6.72-15,15-15   S256.313,25.82,256.313,34.1z"/>
	<path style="fill:#FFCD76;" d="M256.313,34.1v76c0,8.29-6.72,15-15,15v-106C249.593,19.1,256.313,25.82,256.313,34.1z"/>
	<path style="fill:#4B90BF;" d="M295.423,130.56v38.17h-108.22v-38.17c0-11.42,9.26-20.68,20.68-20.68h66.86   C286.163,109.88,295.423,119.14,295.423,130.56z"/>
	<path style="fill:#2E77A6;" d="M295.423,130.56v38.17h-54.11v-58.85h33.43C286.163,109.88,295.423,119.14,295.423,130.56z"/>
	<path style="fill:#FFCD76;" d="M361.689,46.298L349.243,28.63c-6.702-9.514-17.65-15.193-29.287-15.193h-69.031   c-8.284,0-15,6.716-15,15s6.716,15,15,15h69.031c1.892,0,3.671,0.923,4.76,2.47l12.446,17.668   c4.772,6.774,14.13,8.395,20.901,3.625C364.836,62.429,366.459,53.071,361.689,46.298z"/>
	<path style="fill:#A8D384;" d="M357.783,256.85v217.42c0,8.28-6.72,15-15,15h-202.94c-8.28,0-15-6.72-15-15V256.85   c0-53.02,42.98-96,96-96h40.94C314.803,160.85,357.783,203.83,357.783,256.85z"/>
	<path style="fill:#80C469;" d="M357.783,256.85v217.42c0,8.28-6.72,15-15,15h-101.47V160.85h20.47   C314.803,160.85,357.783,203.83,357.783,256.85z"/>
	<path style="fill:#A8D384;" d="M295.423,21.84v13.34c0,12.06-9.77,21.84-21.84,21.84h-64.54c-12.07,0-21.84-9.78-21.84-21.84V21.84   c0-12.06,9.77-21.84,21.84-21.84h64.54C285.653,0,295.423,9.78,295.423,21.84z"/>
	<path style="fill:#80C469;" d="M295.423,21.84v13.34c0,12.06-9.77,21.84-21.84,21.84h-32.27V0h32.27   C285.653,0,295.423,9.78,295.423,21.84z"/>
	<rect x="124.843" y="271.06" style="fill:#4B90BF;" width="232.94" height="108"/>
	<rect x="241.313" y="271.06" style="fill:#2E77A6;" width="116.47" height="108"/>
	<path style="fill:#FFE6B9;" d="M294.815,325.065c0,8.28-6.72,15-15,15h-77c-8.29,0-15-6.72-15-15c0-8.29,6.71-15,15-15h77   C288.095,310.065,294.815,316.775,294.815,325.065z"/>
	<path style="fill:#FFCD76;" d="M294.815,325.065c0,8.28-6.72,15-15,15h-38.5v-30h38.5   C288.095,310.065,294.815,316.775,294.815,325.065z"/>
</g>















</svg>
