<svg height="512pt" viewBox="-163 0 512 512" width="512pt" xmlns="http://www.w3.org/2000/svg"><path d="m186 196.222656v266.914063c0 26.988281-21.941406 48.863281-49.011719 48.863281h-87.976562c-27.070313 0-49.011719-21.875-49.011719-48.859375v-266.917969c0-22.210937 7.832031-43.710937 22.125-60.746094l15.167969-18.074218c14.292969-17.035156 22.125-38.535156 22.125-60.742188v-21.480468h67.167969v21.480468c0 22.207032 7.828124 43.707032 22.125 60.742188l15.164062 18.074218c14.292969 17.035157 22.125 38.535157 22.125 60.746094zm0 0" fill="#bdf9ff"/><path d="m163.875 135.476562-15.167969-18.074218c-14.292969-17.035156-22.125-38.535156-22.125-60.742188v-21.480468h-31v21.480468c0 22.207032 7.832031 43.707032 22.125 60.742188l15.167969 18.074218c14.292969 17.035157 22.125 38.535157 22.125 60.746094v266.917969c0 26.984375-21.941406 48.859375-49.011719 48.859375h31c27.070313 0 49.011719-21.875 49.011719-48.859375v-266.917969c0-22.210937-7.832031-43.710937-22.125-60.746094zm0 0" fill="#8cf2ff"/><path d="m148.707031 117.402344c-.15625-.1875-.304687-.386719-.460937-.578125h-110.492188c-.15625.191406-.304687.390625-.460937.578125l-15.167969 18.074218c-14.292969 17.035157-22.125 38.535157-22.125 60.746094v266.917969c0 26.984375 21.941406 48.859375 49.011719 48.859375h87.976562c27.070313 0 49.011719-21.875 49.011719-48.859375v-266.917969c0-22.210937-7.832031-43.710937-22.125-60.746094zm0 0" fill="#804d36"/><path d="m163.875 135.476562-15.167969-18.074218c-.15625-.1875-.304687-.386719-.460937-.578125h-31c.15625.191406.304687.390625.460937.578125l15.167969 18.074218c14.292969 17.035157 22.125 38.535157 22.125 60.746094v266.917969c0 26.984375-21.941406 48.859375-49.011719 48.859375h31c27.070313 0 49.011719-21.875 49.011719-48.859375v-266.917969c0-22.210937-7.832031-43.710937-22.125-60.746094zm0 0" fill="#663b29"/><path d="m0 202.429688h186v247.246093h-186zm0 0" fill="#fe5555"/><path d="m155 202.429688h31v247.246093h-31zm0 0" fill="#e84141"/><path d="m130.085938 61.8125h-74.171876c-2.277343 0-4.121093-1.847656-4.121093-4.121094v-53.570312c0-2.277344 1.84375-4.121094 4.121093-4.121094h74.171876c2.277343 0 4.121093 1.84375 4.121093 4.121094v53.570312c0 2.273438-1.84375 4.121094-4.121093 4.121094zm0 0" fill="#fe5555"/><path d="m130.085938 0h-30.902344c2.273437 0 4.121094 1.84375 4.121094 4.121094v53.570312c0 2.273438-1.847657 4.121094-4.121094 4.121094h30.902344c2.277343 0 4.121093-1.847656 4.121093-4.121094v-53.570312c0-2.277344-1.84375-4.121094-4.121093-4.121094zm0 0" fill="#e84141"/><path d="m144.667969 325.023438c0-36.984376-23.132813-66.964844-51.667969-66.964844s-51.667969 29.980468-51.667969 66.964844c0 36.980468 23.132813 66.960937 51.667969 66.960937s51.667969-29.980469 51.667969-66.960937zm0 0" fill="#fff0d0"/></svg>