<svg height="464pt" viewBox="0 0 464 464.56862" width="464pt" xmlns="http://www.w3.org/2000/svg"><path d="m463.902344 368.570312c.144531-28.324218-12.292969-55.253906-33.945313-73.511718-21.65625-18.257813-50.296875-25.960938-78.191406-21.035156-2.503906-64.097657-55.722656-114.472657-119.863281-113.453126-65.160156-1.085937-118.875 50.839844-120 116 .003906 4.007813.21875 8.011719.648437 12-.214843 0-.429687 0-.648437 0-35.34375 0-64 28.652344-64 64v.628907c-28.894532 4.375-49.566406 30.234375-47.472656 59.382812 2.09375 29.148438 26.25 51.789063 55.472656 51.988281h320v-.402343c49.71875-4.15625 87.964844-45.707031 88-95.597657zm0 0" fill="#806749"/><path d="m331.34375 268.96875-16 27.679688-110.878906-64 16-27.679688 41.597656 24 27.679688 16zm0 0" fill="#898890"/><path d="m204.464844 232.648438-32 55.441406c-7.632813 14.570312-8.078125 31.855468-1.203125 46.796875 10.765625 28.460937 39.664062 45.808593 69.839843 41.921875 17.234376-.980469 32.945313-10.175782 42.242188-24.71875l32-55.441406zm0 0" fill="#e0e0e2"/><path d="m263.902344 327.046875c-.027344 6.996094-1.875 13.859375-5.359375 19.921875l-17.441407 29.839844c-30.175781 3.886718-59.074218-13.460938-69.839843-41.921875l18-27.917969c9.0625-15.691406 27.535156-23.332031 45.03125-18.625 17.5 4.707031 29.644531 20.585938 29.609375 38.703125zm0 0" fill="#c6c5ca"/><path d="m435.34375 88.808594c-13.28125 22.941406-42.621094 30.8125-65.601562 17.601562l-27.679688-16c-11.039062-6.363281-19.09375-16.847656-22.394531-29.152344-3.304688-12.304687-1.578125-25.417968 4.796875-36.449218l12-20.800782c2.226562-3.820312 7.109375-5.136718 10.957031-2.960937l96.960937 56c3.820313 2.230469 5.140626 7.113281 2.960938 10.960937zm0 0" fill="#3e3d42"/><path d="m262.058594 228.984375 80-138.5625 27.6875 15.984375-80.003906 138.5625zm0 0" fill="#c6c5ca"/><path d="m413.503906 94.65625-13.855468-8 8-13.855469-55.425782-32-8 13.855469-13.855468-8 12-20.800781c2.222656-3.792969 7.085937-5.082031 10.894531-2.886719l69.28125 40c3.828125 2.210938 5.136719 7.101562 2.929687 10.929688zm0 0" fill="#787680"/><g fill="#5f4d37"><path d="m367.902344 416.570312h16v16h-16zm0 0"/><path d="m367.902344 328.570312h16v16h-16zm0 0"/><path d="m407.902344 360.570312h16v16h-16zm0 0"/><path d="m287.902344 392.570312h16v16h-16zm0 0"/><path d="m151.902344 224.570312h16v16h-16zm0 0"/><path d="m119.902344 344.570312h16v16h-16zm0 0"/><path d="m143.902344 376.570312h16v16h-16zm0 0"/><path d="m63.902344 416.570312h16v16h-16zm0 0"/><path d="m191.902344 432.570312h16v16h-16zm0 0"/><path d="m31.902344 384.570312h16v16h-16zm0 0"/></g></svg>