<svg height="512pt" viewBox="-43 0 512 512" width="512pt" xmlns="http://www.w3.org/2000/svg"><path d="m323.1875 0c-31.292969 0-63.308594 17.863281-95.160156 53.097656-48.441406 53.582032-28.761719 64.617188-116.023438 114.464844-41.429687 23.667969-88.386718 50.492188-107.71875 122.964844-23.289062 87.335937 47.890625 221.472656 224.296875 221.472656 75.710938 0 138.3125-31.113281 172.5625-99.253906 23.808594-47.363282 24.082031-94.515625 24.082031-96.5v-191.003906c0-40.78125-6.828124-69.269532-21.492187-89.65625-16.980469-23.613282-44.078125-35.585938-80.546875-35.585938zm0 0" fill="#f97a7a"/><path d="m35.195312 290.527344c19.328126-72.472656 66.285157-99.296875 107.71875-122.964844 87.257813-49.847656 67.578126-60.882812 116.019532-114.464844 27.421875-30.332031 54.964844-47.777344 82.0625-52.046875-5.664063-.695312-11.597656-1.050781-17.808594-1.050781-31.292969 0-63.308594 17.863281-95.160156 53.097656-48.441406 53.582032-28.761719 64.617188-116.023438 114.464844-41.429687 23.667969-88.386718 50.492188-107.71875 122.964844-23.289062 87.335937 47.890625 221.472656 224.296875 221.472656 4.890625 0 9.730469-.136719 14.511719-.398438-164.410156-8.027343-230.453125-136.496093-207.898438-221.074218zm0 0" fill="#f25c5c"/><path d="m379.285156 319.261719c-.023437 1.703125-.816406 40.550781-20.203125 77.875-24.878906 47.902343-67.300781 71.1875-129.691406 71.1875-146.441406 0-196.078125-104.429688-180.898437-161.335938 14.203124-53.253906 44.535156-70.585937 86.523437-94.570312 103.15625-58.929688 93.097656-84.167969 136.027344-131.652344 21.621093-23.917969 42.171875-37.089844 57.855469-37.089844 27.800781 0 50.390624 2.679688 50.390624 74.796875v200.789063zm0 0" fill="#f25c5c"/><path d="m79.398438 306.988281c14.203124-53.253906 44.535156-70.585937 86.523437-94.570312 103.15625-58.929688 93.097656-84.164063 136.027344-131.648438 17.070312-18.882812 33.46875-31.0625 47.332031-35.359375-6.234375-1.550781-13.132812-1.734375-20.382812-1.734375-15.6875 0-36.234376 13.171875-57.859376 37.089844-42.925781 47.488281-32.871093 72.722656-136.027343 131.652344-41.984375 23.984375-72.316407 41.3125-86.519531 94.570312-15.179688 56.910157 34.457031 161.335938 180.894531 161.335938 4.996093 0 9.847656-.167969 14.589843-.464844-133.796874-7.449219-179.175781-106.132813-164.578124-160.871094zm0 0" fill="#d83f3f"/><path d="m257.128906 337.054688c0 24.585937-19.929687 44.515624-44.515625 44.515624-24.585937 0-44.515625-19.929687-44.515625-44.515624 0-24.585938 19.929688-44.515626 44.515625-44.515626 24.585938 0 44.515625 19.929688 44.515625 44.515626zm0 0" fill="#f7b594"/><path d="m199.003906 337.054688c0-19.152344 12.097656-35.476563 29.0625-41.757813-4.8125-1.78125-10.019531-2.757813-15.453125-2.757813-24.585937 0-44.515625 19.929688-44.515625 44.515626 0 24.585937 19.929688 44.519531 44.515625 44.519531 5.433594 0 10.640625-.976563 15.453125-2.761719-16.96875-6.28125-29.0625-22.605469-29.0625-41.757812zm0 0" fill="#f0a479"/></svg>