<svg height="512pt" viewBox="-59 0 511 512" width="512pt" xmlns="http://www.w3.org/2000/svg"><path d="m392.5 139.746094v331.066406c0 22.746094-18.464844 41.1875-41.242188 41.1875h-154.675781v-401.667969c0-50.945312 41.355469-92.242187 92.367188-92.242187h37.335937c.082032 11.074218 3.734375 21.851562 10.429688 30.6875l45.351562 59.90625c6.769532 8.945312 10.433594 19.851562 10.433594 31.0625zm0 0" fill="#fff0d0"/><path d="m382.066406 108.683594-45.351562-59.90625c-6.695313-8.835938-10.347656-19.613282-10.429688-30.6875h-30.949218c.085937 11.074218 3.734374 21.851562 10.429687 30.6875l45.351563 59.90625c6.773437 8.945312 10.4375 19.851562 10.4375 31.0625v331.066406c0 22.746094-18.464844 41.1875-41.246094 41.1875h30.949218c22.777344 0 41.242188-18.441406 41.242188-41.1875v-331.066406c0-11.210938-3.664062-22.117188-10.433594-31.0625zm0 0" fill="#edcfb2"/><path d="m326.28125 16.113281v1.976563c0 10.980468-3.515625 21.675781-10.035156 30.523437l-44.382813 60.234375c-6.515625 8.847656-10.03125 19.542969-10.03125 30.527344v331.4375c0 22.746094 18.464844 41.1875 41.253907 41.1875h-261.34375c-22.777344 0-41.242188-18.441406-41.242188-41.1875v-331.4375c0-10.984375 3.515625-21.679688 10.035156-30.527344l44.378906-60.234375c6.523438-8.847656 10.039063-19.542969 10.039063-30.523437v-1.976563c0-8.898437 7.222656-16.113281 16.132813-16.113281h229.0625c8.910156 0 16.132812 7.214844 16.132812 16.113281zm0 0" fill="#ffd659"/><path d="m310.148438 0h-30.945313c8.910156 0 16.132813 7.214844 16.132813 16.113281v1.976563c0 10.980468-3.519532 21.675781-10.035157 30.523437l-44.382812 60.234375c-6.519531 8.847656-10.035157 19.542969-10.035157 30.527344v331.4375c0 22.746094 18.464844 41.1875 41.253907 41.1875h30.949219c-22.789063 0-41.253907-18.441406-41.253907-41.1875v-331.4375c0-10.984375 3.515625-21.679688 10.03125-30.527344l44.382813-60.234375c6.519531-8.847656 10.035156-19.542969 10.035156-30.523437v-1.976563c0-8.898437-7.222656-16.113281-16.132812-16.113281zm0 0" fill="#ffbd54"/><path d="m326.105469 130.710938c-4.140625 0-7.5 3.355468-7.5 7.5v315.234374c0 4.140626 3.359375 7.5 7.5 7.5 4.144531 0 7.5-3.359374 7.5-7.5v-315.234374c0-4.144532-3.355469-7.5-7.5-7.5zm0 0" fill="#cfb49b"/><path d="m248.007812 25.980469h-123.621093c-4.140625 0-7.5 3.355469-7.5 7.5 0 4.140625 3.359375 7.5 7.5 7.5h123.621093c4.144532 0 7.5-3.359375 7.5-7.5 0-4.144531-3.355468-7.5-7.5-7.5zm0 0" fill="#fff0d0"/><path d="m148.082031 287.238281h-61.8125c-5.691406 0-10.300781-4.609375-10.300781-10.300781v-61.8125c0-5.6875 4.609375-10.300781 10.300781-10.300781h61.8125c5.6875 0 10.300781 4.613281 10.300781 10.300781v61.8125c0 5.691406-4.613281 10.300781-10.300781 10.300781zm0 0" fill="#bdf9ff"/><path d="m148.082031 204.824219h-30.90625c5.691407 0 10.300781 4.613281 10.300781 10.304687v61.808594c0 5.691406-4.609374 10.300781-10.300781 10.300781h30.90625c5.6875 0 10.300781-4.609375 10.300781-10.300781v-61.808594c0-5.691406-4.613281-10.304687-10.300781-10.304687zm0 0" fill="#8cf2ff"/><path d="m106.875 355.230469h-61.8125c-5.691406 0-10.300781-4.613281-10.300781-10.300781v-61.8125c0-5.6875 4.609375-10.300782 10.300781-10.300782h61.8125c5.6875 0 10.300781 4.613282 10.300781 10.300782v61.8125c0 5.6875-4.613281 10.300781-10.300781 10.300781zm0 0" fill="#bdf9ff"/><path d="m106.875 272.816406h-30.90625c5.691406 0 10.300781 4.613282 10.300781 10.300782v61.8125c0 5.691406-4.609375 10.300781-10.300781 10.300781h30.90625c5.6875 0 10.300781-4.609375 10.300781-10.300781v-61.8125c0-5.6875-4.613281-10.300782-10.300781-10.300782zm0 0" fill="#8cf2ff"/><path d="m189.289062 355.230469h-61.8125c-5.6875 0-10.300781-4.613281-10.300781-10.300781v-61.8125c0-5.6875 4.613281-10.300782 10.300781-10.300782h61.8125c5.691407 0 10.300782 4.613282 10.300782 10.300782v61.8125c0 5.6875-4.613282 10.300781-10.300782 10.300781zm0 0" fill="#bdf9ff"/><path d="m189.289062 272.816406h-30.90625c5.691407 0 10.304688 4.613282 10.304688 10.300782v61.8125c0 5.691406-4.613281 10.300781-10.304688 10.300781h30.90625c5.691407 0 10.300782-4.609375 10.300782-10.300781v-61.8125c0-5.6875-4.613282-10.300782-10.300782-10.300782zm0 0" fill="#8cf2ff"/></svg>