<svg xmlns="http://www.w3.org/2000/svg" height="590pt" version="1.1" viewBox="-122 0 590 590.45901" width="590pt">
<g id="surface1">
<path d="M 284.960938 467.929688 L 61.167969 467.929688 L 0.132812 61.035156 L 345.996094 61.035156 Z M 284.960938 467.929688 " style=" stroke:none;fill-rule:nonzero;fill:rgb(92.941176%,35.294118%,17.647059%);fill-opacity:1;" />
<path d="M 0.132812 0 L 345.996094 0 L 345.996094 61.035156 L 0.132812 61.035156 Z M 0.132812 0 " style=" stroke:none;fill-rule:nonzero;fill:rgb(87.843137%,30.588235%,17.647059%);fill-opacity:1;" />
<path d="M 283.804688 61.035156 C 238.597656 248.5 134.695312 361.640625 54.578125 423.957031 L 61.167969 467.933594 L 284.960938 467.933594 L 345.996094 61.035156 Z M 283.804688 61.035156 " style=" stroke:none;fill-rule:nonzero;fill:rgb(87.843137%,30.588235%,17.647059%);fill-opacity:1;" />
<path d="M 61.167969 467.929688 L 284.960938 467.929688 L 284.960938 590 L 61.167969 590 Z M 61.167969 467.929688 " style=" stroke:none;fill-rule:nonzero;fill:rgb(98.039216%,70.196078%,28.627451%);fill-opacity:1;" />
<path d="M 234.097656 549.3125 L 112.03125 549.3125 L 112.03125 528.964844 C 112.03125 517.726562 121.136719 508.621094 132.375 508.621094 L 213.757812 508.621094 C 224.996094 508.621094 234.101562 517.722656 234.101562 528.964844 L 234.101562 549.3125 Z M 234.097656 549.3125 " style=" stroke:none;fill-rule:nonzero;fill:rgb(94.117647%,64.313725%,20.784314%);fill-opacity:1;" />
<path d="M 61.167969 539.136719 L 284.960938 539.136719 L 284.960938 559.484375 L 61.167969 559.484375 Z M 61.167969 539.136719 " style=" stroke:none;fill-rule:nonzero;fill:rgb(94.117647%,59.607843%,9.411765%);fill-opacity:1;" />
<path d="M 234.101562 254.308594 C 234.101562 288.019531 206.773438 315.34375 173.066406 315.34375 C 139.359375 315.34375 112.03125 288.019531 112.03125 254.308594 C 112.03125 220.601562 139.359375 193.277344 173.066406 193.277344 C 206.773438 193.277344 234.101562 220.601562 234.101562 254.308594 Z M 234.101562 254.308594 " style=" stroke:none;fill-rule:nonzero;fill:rgb(98.039216%,70.196078%,28.627451%);fill-opacity:1;" />
<path d="M 162.894531 142.414062 L 183.238281 142.414062 L 183.238281 162.757812 L 162.894531 162.757812 Z M 162.894531 142.414062 " style=" stroke:none;fill-rule:nonzero;fill:rgb(98.039216%,70.196078%,28.627451%);fill-opacity:1;" />
<path d="M 162.894531 345.863281 L 183.238281 345.863281 L 183.238281 366.207031 L 162.894531 366.207031 Z M 162.894531 345.863281 " style=" stroke:none;fill-rule:nonzero;fill:rgb(98.039216%,70.196078%,28.627451%);fill-opacity:1;" />
<path d="M 162.894531 142.414062 L 183.238281 142.414062 L 183.238281 162.757812 L 162.894531 162.757812 Z M 162.894531 142.414062 " style=" stroke:none;fill-rule:nonzero;fill:rgb(98.039216%,70.196078%,28.627451%);fill-opacity:1;" />
<path d="M 162.894531 345.863281 L 183.238281 345.863281 L 183.238281 366.207031 L 162.894531 366.207031 Z M 162.894531 345.863281 " style=" stroke:none;fill-rule:nonzero;fill:rgb(98.039216%,70.196078%,28.627451%);fill-opacity:1;" />
<path d="M 86.746094 182.394531 L 101.128906 168.003906 L 115.515625 182.386719 L 101.132812 196.777344 Z M 86.746094 182.394531 " style=" stroke:none;fill-rule:nonzero;fill:rgb(98.039216%,70.196078%,28.627451%);fill-opacity:1;" />
<path d="M 230.597656 326.257812 L 244.980469 311.871094 L 259.367188 326.253906 L 244.984375 340.640625 Z M 230.597656 326.257812 " style=" stroke:none;fill-rule:nonzero;fill:rgb(98.039216%,70.196078%,28.627451%);fill-opacity:1;" />
<path d="M 86.746094 182.394531 L 101.128906 168.003906 L 115.515625 182.386719 L 101.132812 196.777344 Z M 86.746094 182.394531 " style=" stroke:none;fill-rule:nonzero;fill:rgb(98.039216%,70.196078%,28.627451%);fill-opacity:1;" />
<path d="M 230.597656 326.257812 L 244.980469 311.871094 L 259.367188 326.253906 L 244.984375 340.640625 Z M 230.597656 326.257812 " style=" stroke:none;fill-rule:nonzero;fill:rgb(98.039216%,70.196078%,28.627451%);fill-opacity:1;" />
<path d="M 86.730469 326.242188 L 101.117188 311.855469 L 115.5 326.242188 L 101.117188 340.628906 Z M 86.730469 326.242188 " style=" stroke:none;fill-rule:nonzero;fill:rgb(98.039216%,70.196078%,28.627451%);fill-opacity:1;" />
<path d="M 230.605469 182.386719 L 244.992188 168 L 259.375 182.386719 L 244.992188 196.769531 Z M 230.605469 182.386719 " style=" stroke:none;fill-rule:nonzero;fill:rgb(98.039216%,70.196078%,28.627451%);fill-opacity:1;" />
<path d="M 86.730469 326.242188 L 101.117188 311.855469 L 115.5 326.242188 L 101.117188 340.628906 Z M 86.730469 326.242188 " style=" stroke:none;fill-rule:nonzero;fill:rgb(98.039216%,70.196078%,28.627451%);fill-opacity:1;" />
<path d="M 230.605469 182.386719 L 244.992188 168 L 259.375 182.386719 L 244.992188 196.769531 Z M 230.605469 182.386719 " style=" stroke:none;fill-rule:nonzero;fill:rgb(98.039216%,70.196078%,28.627451%);fill-opacity:1;" />
<path d="M 61.167969 244.136719 L 81.515625 244.136719 L 81.515625 264.484375 L 61.167969 264.484375 Z M 61.167969 244.136719 " style=" stroke:none;fill-rule:nonzero;fill:rgb(98.039216%,70.196078%,28.627451%);fill-opacity:1;" />
<path d="M 264.617188 244.136719 L 284.960938 244.136719 L 284.960938 264.484375 L 264.617188 264.484375 Z M 264.617188 244.136719 " style=" stroke:none;fill-rule:nonzero;fill:rgb(98.039216%,70.196078%,28.627451%);fill-opacity:1;" />
</g>
</svg>