<?xml version="1.0" encoding="iso-8859-1"?>
<!-- Generator: Adobe Illustrator 21.0.0, SVG Export Plug-In . SVG Version: 6.00 Build 0)  -->
<svg xmlns="http://www.w3.org/2000/svg" xmlns:xlink="http://www.w3.org/1999/xlink" version="1.1" id="Capa_1" x="0px" y="0px" viewBox="0 0 512 512" style="enable-background:new 0 0 512 512;" xml:space="preserve" width="512" height="512">
<g>
	<path style="fill:#FF4747;" d="M512,333H0v-94.136c0-2.209,1.791-4,4-4h504c2.209,0,4,1.791,4,4V333z"/>
	<path style="fill:#ED4242;" d="M481.095,234.864V333H512v-94.136c0-2.209-1.791-4-4-4H481.095z"/>
	<path style="fill:#ED4242;" d="M508,455.5H4c-2.209,0-4-1.791-4-4V318.376h512V451.5C512,453.709,510.209,455.5,508,455.5z"/>
	<path style="fill:#DB3D3D;" d="M481.095,318.376V455.5H508c2.209,0,4-1.791,4-4V318.376H481.095z"/>
	<path style="fill:#DED9C6;" d="M428.555,277.136H205.006V62.5c0-3.314,2.686-6,6-6h211.549c3.314,0,6,2.686,6,6V277.136z"/>
	<path style="fill:#E8E5D8;" d="M390.439,277.136H166.889V62.5c0-3.314,2.686-6,6-6h211.549c3.314,0,6,2.686,6,6V277.136z"/>
	<path style="fill:#DED9C6;" d="M352.322,277.136H128.773V62.5c0-3.314,2.686-6,6-6h211.549c3.314,0,6,2.686,6,6V277.136z"/>
	<path style="fill:#E8E5D8;" d="M314.205,277.136H90.656V62.5c0-3.314,2.686-6,6-6h211.549c3.314,0,6,2.686,6,6V277.136z"/>
	<path style="fill:#63D4DB;" d="M369.312,370.957H142.688c-11.384,0-20.612-9.228-20.612-20.612v-31.97h267.847v31.97   C389.924,361.729,380.695,370.957,369.312,370.957z"/>
	<path style="fill:#594F69;" d="M459.976,269.636H52.024c-4.142,0-7.5,3.357-7.5,7.5s3.358,7.5,7.5,7.5h407.952   c4.142,0,7.5-3.357,7.5-7.5S464.118,269.636,459.976,269.636z"/>
</g>















</svg>
