<?xml version="1.0" encoding="iso-8859-1"?>
<!-- Generator: Adobe Illustrator 19.0.0, SVG Export Plug-In . SVG Version: 6.00 Build 0)  -->
<svg version="1.1" id="Capa_1" xmlns="http://www.w3.org/2000/svg" xmlns:xlink="http://www.w3.org/1999/xlink" x="0px" y="0px"
	 viewBox="0 0 512.001 512.001" style="enable-background:new 0 0 512.001 512.001;" xml:space="preserve">
<path style="fill:#E5D0A8;" d="M489.879,362.678c12.992,0,11.15-9.917,11.15-9.917l0.004,0.001
	c-18.523-85.667,21.677-125.351,7.336-181.921c-9.883-38.981-2.998-63.869,2.746-76.204h-0.004c0,0,0.043-0.08,0.111-0.225
	c0.001-0.002,0.001-0.003,0.002-0.004c0.662-1.43,3.608-9.052-8.872-9.052H134.607c74.335,0,132.518,24.339,132.518,54.374v222.947
	L489.879,362.678L489.879,362.678z"/>
<rect x="369.64" y="85.361" style="fill:#EDE2C3;" width="15.591" height="277.32"/>
<path style="fill:#DDC49B;" d="M291.383,362.678c0.045-0.219,0.088-0.439,0.127-0.658V121.679
	c-2.522-14.37-18.856-27.195-43.676-36.322H134.607c74.335,0,132.518,24.339,132.518,54.374v222.947H291.383z"/>
<path style="fill:#EDE2C3;" d="M134.607,194.106C60.267,194.106,0,169.763,0,139.731V372.27c0,30.037,60.267,54.375,134.607,54.375
	c74.335,0,134.596-24.338,134.596-54.375V139.731C269.203,169.763,208.941,194.106,134.607,194.106z"/>
<path style="fill:#E5D0A8;" d="M20.788,393.014V168.768C7.625,160.367,0,150.41,0,139.731V372.27
	c0,11.175,8.348,21.561,22.655,30.199C21.432,399.391,20.788,396.233,20.788,393.014z"/>
<path style="fill:#C1AD85;" d="M269.203,139.731c0,30.032-60.262,55.414-134.596,55.414C60.267,195.145,0,169.763,0,139.731
	c0-30.035,60.267-54.374,134.607-54.374C208.941,85.357,269.203,109.696,269.203,139.731z"/>
<path style="fill:#EDE2C3;" d="M170.586,136.005c0,8.552-19.253,15.485-43.012,15.485c-23.766,0-43.018-6.933-43.018-15.485
	c0-8.553,19.252-15.487,43.018-15.487C151.333,120.518,170.586,127.452,170.586,136.005z"/>
<path style="fill:#E5D0A8;" d="M104.304,141.291c0-8.553,19.252-15.487,43.018-15.487c5.167,0,10.121,0.329,14.711,0.93
	c-7.843-3.774-20.357-6.217-34.459-6.217c-23.766,0-43.018,6.934-43.018,15.487c0,6.691,11.786,12.39,28.297,14.554
	C107.484,147.975,104.304,144.767,104.304,141.291z"/>
<g>
</g>
<g>
</g>
<g>
</g>
<g>
</g>
<g>
</g>
<g>
</g>
<g>
</g>
<g>
</g>
<g>
</g>
<g>
</g>
<g>
</g>
<g>
</g>
<g>
</g>
<g>
</g>
<g>
</g>
</svg>
