<svg height="512pt" viewBox="-44 0 512 512" width="512pt" xmlns="http://www.w3.org/2000/svg"><path d="m35.308594 0h353.105468c19.5 0 35.308594 15.808594 35.308594 35.308594v123.589844c0 19.5-15.808594 35.308593-35.308594 35.308593h-353.105468c-19.5 0-35.308594-15.808593-35.308594-35.308593v-123.589844c0-19.5 15.808594-35.308594 35.308594-35.308594zm0 0" fill="#67b9cc"/><path d="m391.148438 185.46875c9.957031 31.371094 14.992187 64.097656 14.921874 97.015625 0 126.761719-86.953124 229.515625-194.207031 229.515625-107.257812 0-194.207031-102.753906-194.207031-229.515625-.070312-32.917969 4.960938-65.644531 14.917969-97.015625v-.089844" fill="#67b9cc"/><path d="m364.757812 229.515625c4.007813 17.371094 6.023438 35.140625 6 52.96875 0 107.078125-71.238281 194.207031-158.894531 194.207031-87.660156 0-158.898437-87.128906-158.898437-194.207031-.019532-17.828125 1.992187-35.597656 6.003906-52.96875" fill="#9fc9d3"/><path d="m158.898438 211.863281h105.929687v88.273438c0 29.253906-23.714844 52.964843-52.964844 52.964843-29.253906 0-52.964843-23.710937-52.964843-52.964843zm0 0" fill="#4482c3"/><path d="m247.171875 97.101562c0 19.503907-15.808594 35.3125-35.308594 35.3125-19.503906 0-35.3125-15.808593-35.3125-35.3125 0-19.5 15.808594-35.308593 35.3125-35.308593 19.5 0 35.308594 15.808593 35.308594 35.308593zm0 0" fill="#547580"/><path d="m35.308594 52.964844c-4.875 0-8.824219-3.953125-8.824219-8.828125v-8.828125c0-4.875 3.949219-8.824219 8.824219-8.824219 4.878906 0 8.828125 3.949219 8.828125 8.824219v8.828125c0 4.875-3.949219 8.828125-8.828125 8.828125zm0 0" fill="#9fc9d3"/><path d="m35.308594 167.722656c-4.875 0-8.824219-3.949218-8.824219-8.824218v-79.449219c0-4.875 3.949219-8.828125 8.824219-8.828125 4.878906 0 8.828125 3.953125 8.828125 8.828125v79.449219c0 4.875-3.949219 8.824218-8.828125 8.824218zm0 0" fill="#9fc9d3"/><path d="m44.136719 194.207031h335.449219c9.75 0 17.65625 7.90625 17.65625 17.65625s-7.90625 17.652344-17.65625 17.652344h-335.449219c-9.75 0-17.652344-7.902344-17.652344-17.652344s7.902344-17.65625 17.652344-17.65625zm0 0" fill="#41767f"/></svg>