<?xml version="1.0" encoding="iso-8859-1"?>
<!-- Generator: Adobe Illustrator 19.0.0, SVG Export Plug-In . SVG Version: 6.00 Build 0)  -->
<svg version="1.1" id="Capa_1" xmlns="http://www.w3.org/2000/svg" xmlns:xlink="http://www.w3.org/1999/xlink" x="0px" y="0px"
	 viewBox="0 0 512 512" style="enable-background:new 0 0 512 512;" xml:space="preserve">
<path style="fill:#B1CC5C;" d="M232.476,16.898l-48.024-16.21c-6.818-2.302-14.214,1.361-16.516,8.183l-30.787,91.202
	c-2.302,6.821,1.361,14.217,8.18,16.518l48.023,16.212c6.82,2.301,14.214-1.362,16.516-8.184l30.787-91.202
	C242.957,26.597,239.295,19.201,232.476,16.898z"/>
<path style="fill:#8AC439;" d="M156.819,109.075l32.688-96.835c1.151-3.41,3.509-6.063,6.429-7.676l-11.484-3.876
	c-6.818-2.302-14.214,1.361-16.516,8.183l-30.787,91.202c-2.302,6.821,1.361,14.217,8.18,16.518l12.956,4.374
	C156.101,117.55,155.422,113.215,156.819,109.075z"/>
<path style="fill:#E5E5E5;" d="M118.448,245.746c-4.047-1.363-6.223-5.75-4.859-9.797l13.269-39.385
	c1.483-4.401,0.091-2.75,60.711-30.09L236.27,20.795c1.354-4.051,5.734-6.237,9.786-4.882c4.05,1.354,6.236,5.735,4.882,9.786
	c-53.487,159.998-49.524,151.496-53.927,153.483l-56.572,25.515l-12.193,36.191C126.882,244.933,122.496,247.11,118.448,245.746z"/>
<path style="fill:#4DADE2;" d="M208.267,488.79c0-12.819-10.392-23.21-23.211-23.21H73.438c-12.818,0-23.211,10.392-23.211,23.21
	S60.619,512,73.438,512h111.618C197.875,512,208.267,501.608,208.267,488.79z"/>
<path style="fill:#91CBF2;" d="M211.869,236.566H46.625c-9.414,0-17.046,7.626-17.056,17.039v182.316
	c0,16.38,13.277,29.658,29.656,29.658H199.27c16.379,0,29.656-13.278,29.656-29.658V253.606
	C228.916,244.192,221.283,236.566,211.869,236.566z"/>
<path style="fill:#2794C4;" d="M70.887,488.79c0-12.819,10.392-23.21,23.211-23.21h-20.66c-12.818,0-23.211,10.392-23.211,23.21
	S60.619,512,73.438,512h20.659C81.279,512,70.887,501.608,70.887,488.79z"/>
<path style="fill:#70BDE8;" d="M50.228,435.922V253.606c0.01-9.413,7.642-17.039,17.056-17.039H46.625
	c-9.414,0-17.046,7.626-17.056,17.039v182.316c0,16.38,13.277,29.658,29.656,29.658h20.659
	C63.505,465.579,50.228,452.301,50.228,435.922z"/>
<path style="fill:#E5E5E5;" d="M439.408,457.845c0-12.819-10.392-23.21-23.21-23.21h-58.024c-12.819,0-23.21,10.392-23.21,23.21
	v30.944c0,12.818,10.392,23.21,23.21,23.21h58.024c12.819,0,23.21-10.392,23.21-23.21V457.845z"/>
<path style="fill:#D9DBDB;" d="M355.585,488.79v-30.944c0-12.819,10.392-23.21,23.21-23.21h-20.621
	c-12.819,0-23.21,10.392-23.21,23.21v30.944c0,12.818,10.392,23.21,23.21,23.21h20.621C365.976,512,355.585,501.608,355.585,488.79z
	"/>
<path style="fill:#51BCAA;" d="M293.847,46.404l23.265,374.623c0.476,7.649,6.816,13.608,14.479,13.608h111.191
	c7.662,0,14.003-5.959,14.478-13.608l23.265-374.623C480.525,46.404,293.847,46.404,293.847,46.404z"/>
<path style="fill:#3FA592;" d="M337.743,421.027L314.478,46.404h-20.631l23.265,374.623c0.476,7.649,6.816,13.608,14.479,13.608
	h20.631C344.559,434.635,338.219,428.676,337.743,421.027z"/>
<path style="fill:#E5E5E5;" d="M467.925,0.745H306.447c-8.35,0-14.996,7.048-14.479,15.406l1.966,31.659h186.504l1.965-31.659
	C482.922,7.786,476.265,0.745,467.925,0.745z"/>
<path style="fill:#D9DBDB;" d="M314.565,47.811l-1.966-31.659c-0.517-8.367,6.139-15.406,14.479-15.406h-20.631
	c-8.35,0-14.996,7.048-14.479,15.406l1.966,31.659H314.565z"/>
<polygon style="fill:#B1CC5C;" points="311.39,328.903 462.98,328.903 472.11,181.908 302.261,181.908 "/>
<polygon style="fill:#8AC439;" points="322.893,181.908 302.262,181.908 310.726,318.198 311.39,328.903 332.022,328.903 "/>
<g>
</g>
<g>
</g>
<g>
</g>
<g>
</g>
<g>
</g>
<g>
</g>
<g>
</g>
<g>
</g>
<g>
</g>
<g>
</g>
<g>
</g>
<g>
</g>
<g>
</g>
<g>
</g>
<g>
</g>
</svg>
