<?xml version="1.0" encoding="iso-8859-1"?>
<!-- Generator: Adobe Illustrator 19.0.0, SVG Export Plug-In . SVG Version: 6.00 Build 0)  -->
<svg version="1.1" id="Capa_1" xmlns="http://www.w3.org/2000/svg" xmlns:xlink="http://www.w3.org/1999/xlink" x="0px" y="0px"
	 viewBox="0 0 512.001 512.001" style="enable-background:new 0 0 512.001 512.001;" xml:space="preserve">
<path style="fill:#51BCAA;" d="M73.208,309.092V194.301c0-12.899-10.457-23.357-23.357-23.357s-23.357,10.458-23.357,23.357v114.791
	L73.208,309.092L73.208,309.092z"/>
<path style="fill:#3FA592;" d="M61.53,174.078c-15.47-8.954-35.035,2.202-35.035,20.224v114.791h23.357V194.301
	C49.852,185.658,54.55,178.117,61.53,174.078z"/>
<path style="fill:#B1CC5C;" d="M119.921,309.092V194.301c0-12.899-10.457-23.357-23.356-23.357c-12.9,0-23.357,10.458-23.357,23.357
	v114.791L119.921,309.092L119.921,309.092z"/>
<path style="fill:#8AC439;" d="M108.243,174.078c-15.47-8.955-35.035,2.202-35.035,20.224v114.791h23.357V194.301
	C96.565,185.658,101.264,178.117,108.243,174.078z"/>
<path style="fill:#51BCAA;" d="M166.634,309.092V194.301c0-12.899-10.457-23.357-23.357-23.357s-23.357,10.458-23.357,23.357
	v114.791L166.634,309.092L166.634,309.092z"/>
<path style="fill:#B1CC5C;" d="M213.348,309.092V194.301c0-12.899-10.457-23.357-23.357-23.357
	c-12.899,0-23.356,10.458-23.356,23.357v114.791L213.348,309.092L213.348,309.092z"/>
<path style="fill:#51BCAA;" d="M260.062,309.607v-114.79c0-12.899-10.458-23.357-23.357-23.357
	c-12.901,0-23.358,10.458-23.358,23.357v114.791h46.715V309.607z"/>
<path style="fill:#8AC439;" d="M201.669,174.078c-15.47-8.955-35.035,2.202-35.035,20.224v114.791h23.357V194.301
	C189.991,185.658,194.69,178.117,201.669,174.078z"/>
<g>
	<path style="fill:#3FA592;" d="M154.956,174.078c-15.47-8.954-35.035,2.202-35.035,20.224v114.791h23.357V194.301
		C143.278,185.658,147.977,178.117,154.956,174.078z"/>
	<path style="fill:#3FA592;" d="M248.382,174.593c-15.47-8.954-35.035,2.202-35.035,20.224v114.791h23.357V194.817
		C236.704,186.174,241.403,178.632,248.382,174.593z"/>
</g>
<path style="fill:#E5E5E5;" d="M417.831,240.734c-55.257,0-55.641-1.035-62.967,3.517l-93.371,63.811H23.38
	c-12.899,0-23.357,10.458-23.357,23.356c0,12.9,10.457,23.357,23.357,23.357c266.246,0,249.082,1.466,257.102-3.517l93.372-63.811
	h43.976L417.831,240.734L417.831,240.734z"/>
<path style="fill:#D9DBDB;" d="M364.583,264.491l-93.372,63.811c-8.075,5.018,7.293,3.517-247.831,3.517
	c-8.726,0-16.329-4.789-20.339-11.879c-8.758,15.488,2.436,34.835,20.339,34.835c266.246,0,249.082,1.466,257.102-3.517
	l93.372-63.811h43.976v-22.956H364.583z"/>
<path style="fill:#F76666;" d="M128.391,115.733c-34.175-16.922-65.324,0.462-65.63,0.64c-11.433,6.767-26.185,2.975-32.946-8.461
	s-2.973-26.185,8.461-32.945c2.162-1.28,53.618-30.987,111.46-2.343c47.953,23.738,64.769,3.659,71.101-3.902
	c8.529-10.182,23.699-11.526,33.883-2.996c10.184,8.528,11.526,23.698,2.998,33.882C223.92,139.961,175.469,139.043,128.391,115.733
	z"/>
<path style="fill:#C95050;" d="M255.371,66.328c-0.882,3.046-2.361,5.962-4.468,8.554c-32.627,40.14-79.5,39.601-125.516,16.125
	c-33.168-16.922-63.399,0.462-63.695,0.64c-11.03,6.726-25.24,3.016-31.855-8.262c-12.638,21.32,11.579,45.621,32.924,32.987
	c0.306-0.178,31.455-17.562,65.63-0.64c47.081,23.312,95.531,24.226,129.328-16.125C266.055,89.652,264.937,74.951,255.371,66.328z"
	/>
<path style="fill:#585A60;" d="M489.844,407.576h-3.076c-2.096,0-459.733,0-464.59,0c-12.237,0-22.156,9.92-22.156,22.155
	c0,12.236,9.919,22.156,22.156,22.156c4.819,0,465.187,0,467.666,0c12.236,0,22.156-9.921,22.156-22.156
	C512,417.496,502.08,407.576,489.844,407.576z"/>
<path style="fill:#494B51;" d="M489.844,429.732h-3.076c-2.096,0-459.733,0-464.59,0c-8.196,0-15.335-4.462-19.167-11.078
	c-1.889,3.262-2.988,7.037-2.988,11.078c0,12.236,9.919,22.156,22.156,22.156c4.819,0,465.187,0,467.666,0
	c12.236,0,22.156-9.921,22.156-22.156c0-4.04-1.099-7.816-2.988-11.078C505.179,425.27,498.04,429.732,489.844,429.732z"/>
<path style="fill:#BABABA;" d="M512,290.837c0,10.84-8.787,19.627-19.628,19.627h-56.974c-10.841,0-19.628-8.787-19.628-19.627
	v-53.431c0-10.84,8.787-19.628,19.628-19.628h56.974c10.84,0,19.628,8.788,19.628,19.628V290.837z"/>
<path style="fill:#ADADAD;" d="M438.435,290.837v-53.431c0-10.84,8.787-19.628,19.628-19.628h-22.664
	c-10.841,0-19.628,8.788-19.628,19.628v53.431c0,10.84,8.787,19.627,19.628,19.627h22.664
	C447.222,310.464,438.435,301.677,438.435,290.837z"/>
<g>
</g>
<g>
</g>
<g>
</g>
<g>
</g>
<g>
</g>
<g>
</g>
<g>
</g>
<g>
</g>
<g>
</g>
<g>
</g>
<g>
</g>
<g>
</g>
<g>
</g>
<g>
</g>
<g>
</g>
</svg>
