<?xml version="1.0" encoding="iso-8859-1"?>
<!-- Generator: Adobe Illustrator 19.0.0, SVG Export Plug-In . SVG Version: 6.00 Build 0)  -->
<svg version="1.1" id="Capa_1" xmlns="http://www.w3.org/2000/svg" xmlns:xlink="http://www.w3.org/1999/xlink" x="0px" y="0px"
	 viewBox="0 0 511.999 511.999" style="enable-background:new 0 0 511.999 511.999;" xml:space="preserve">
<path style="fill:#D9DBDB;" d="M470.845,252.316L263.043,129.925v-27.722c24.736-3.688,43.77-25.07,43.77-50.815
	C306.813,23.053,283.763,0,255.431,0c-19.214,0-36.677,10.586-45.572,27.627c-1.946,3.727-0.502,8.325,3.225,10.27
	c3.726,1.945,8.325,0.501,10.27-3.225c6.262-11.996,18.554-19.448,32.077-19.448c19.937,0,36.158,16.223,36.158,36.165
	c0,19.935-16.22,36.154-36.158,36.154c-4.204,0-7.612,3.408-7.612,7.612v34.764L41.238,251.585
	c-4.724,2.784-3.749,7.325-3.749,14.73c0,4.204,3.408,7.612,7.612,7.612h421.881c4.204,0,7.612-3.408,7.612-7.612v-7.441
	C474.594,256.178,473.168,253.684,470.845,252.316z M255.425,143.106l24.057,14.169h-48.115L255.425,143.106z M59.151,258.704
	l146.523-86.296c0.952,0.141,99.077,0.115,99.654,0.09l146.365,86.206H59.151z"/>
<path style="fill:#FF8828;" d="M391.294,499.82c0,6.726-5.453,12.179-12.179,12.179H131.742c-6.726,0-12.179-5.453-12.179-12.179
	V256.879c0-6.726,5.453-12.179,12.179-12.179h247.373c6.726,0,12.179,5.453,12.179,12.179L391.294,499.82L391.294,499.82z"/>
<path style="fill:#F77014;" d="M139.861,499.82V256.879c0-6.726,5.453-12.179,12.179-12.179h-20.299
	c-6.726,0-12.179,5.453-12.179,12.179V499.82c0,6.726,5.453,12.179,12.179,12.179h20.299
	C145.314,511.999,139.861,506.546,139.861,499.82z"/>
<rect x="119.56" y="442.51" style="fill:#FFA92C;" width="271.73" height="34.744"/>
<rect x="119.56" y="442.51" style="fill:#F79719;" width="20.299" height="34.744"/>
<g>
</g>
<g>
</g>
<g>
</g>
<g>
</g>
<g>
</g>
<g>
</g>
<g>
</g>
<g>
</g>
<g>
</g>
<g>
</g>
<g>
</g>
<g>
</g>
<g>
</g>
<g>
</g>
<g>
</g>
</svg>
