<svg height="464pt" viewBox="0 -16 464 464" width="464pt" xmlns="http://www.w3.org/2000/svg"><path d="m0 304h240v128h-240zm0 0" fill="#55b56a"/><path d="m0 176h240v128h-240zm0 0" fill="#2d75bb"/><path d="m0 48h240v128h-240zm0 0" fill="#dd3e46"/><path d="m272 160h144v272h-144zm0 0" fill="#fcf05a"/><path d="m416 336h48v80h-48zm0 0" fill="#f9c05d"/><path d="m416 176h48v80h-48zm0 0" fill="#f9c05d"/><path d="m16 0h64v48h-64zm0 0" fill="#ed7782"/><path d="m160 0h64v48h-64zm0 0" fill="#ed7782"/><g fill="#fff"><path d="m24 72h64v16h-64zm0 0"/><path d="m104 72h16v16h-16zm0 0"/><path d="m24 200h64v16h-64zm0 0"/><path d="m104 200h16v16h-16zm0 0"/><path d="m24 328h64v16h-64zm0 0"/><path d="m104 328h16v16h-16zm0 0"/><path d="m376 184h16v80h-16zm0 0"/><path d="m376 280h16v16h-16zm0 0"/></g></svg>