<svg height="512pt" viewBox="0 -78 512 512" width="512pt" xmlns="http://www.w3.org/2000/svg"><path d="m461.792969 128.390625h-411.585938c-27.730469 0-50.207031-22.480469-50.207031-50.207031v227.003906c0 27.726562 22.476562 50.207031 50.207031 50.207031h411.585938c27.730469 0 50.207031-22.480469 50.207031-50.207031v-227.003906c0 27.726562-22.476562 50.207031-50.207031 50.207031zm0 0" fill="#68a1d7"/><path d="m461.792969 128.390625h-33.898438v176.796875c0 27.726562-22.480469 50.207031-50.207031 50.207031h84.105469c27.730469 0 50.207031-22.480469 50.207031-50.207031v-227.003906c0 27.726562-22.476562 50.207031-50.207031 50.207031zm0 0" fill="#5d8fbf"/><path d="m137.695312 128.390625h236.609376v227.003906h-236.609376zm0 0" fill="#eeedee"/><path d="m291.378906 241.019531c0 21.050781-19.640625 38.113281-43.871094 38.113281-24.230468 0-66.367187-17.0625-66.367187-38.113281s42.140625-38.113281 66.367187-38.113281c24.226563 0 43.871094 17.0625 43.871094 38.113281zm0 0" fill="#68a1d7"/><path d="m289.9375 231.316406c.9375 3.097656 1.441406 6.347656 1.441406 9.703125 0 3.351563-.503906 6.605469-1.441406 9.703125l31.929688 18.433594c3.996093 2.308594 8.992187-.578125 8.992187-5.191406v-45.890625c0-4.617188-4.996094-7.5-8.992187-5.191407zm0 0" fill="#68a1d7"/><path d="m461.792969 0h-411.585938c-27.730469 0-50.207031 22.476562-50.207031 50.207031v27.976563c0 27.730468 22.476562 50.207031 50.207031 50.207031h411.585938c27.730469 0 50.207031-22.476563 50.207031-50.207031v-27.976563c0-27.730469-22.476562-50.207031-50.207031-50.207031zm0 0" fill="#b0b0b0"/><path d="m461.792969 0h-411.585938c-27.730469 0-50.207031 22.476562-50.207031 50.207031v27.976563c0 27.730468 22.476562 50.207031 50.207031 50.207031h411.585938c27.730469 0 50.207031-22.476563 50.207031-50.207031v-27.976563c0-27.730469-22.476562-50.207031-50.207031-50.207031zm0 0" fill="#bdbdbd"/><g fill="#a6a6a6"><path d="m461.792969 0h-40.558594c27.726563 0 50.203125 22.476562 50.203125 50.207031v27.976563.460937c-.1875 20.964844-17.5 37.746094-38.464844 37.746094h-382.765625c-27.730469 0-50.207031-22.480469-50.207031-50.207031v12c0 27.726562 22.476562 50.207031 50.207031 50.207031h411.585938c3.46875 0 6.851562-.351563 10.117187-1.019531.820313-.167969 1.628906-.355469 2.429688-.5625 1.605468-.414063 3.179687-.902344 4.714844-1.464844 6.152343-2.253906 11.742187-5.675781 16.496093-9.996094 1.1875-1.082031 2.324219-2.21875 3.40625-3.40625 8.105469-8.917968 13.042969-20.761718 13.042969-33.757812v-27.980469c0-27.726563-22.476562-50.203125-50.207031-50.203125zm0 0"/><path d="m166.019531 53.539062h-16.40625c-7.902343 0-15.726562-1.757812-22.777343-5.320312-7.054688-3.566406-16.476563-5.746094-26.824219-5.746094-21.875 0-39.609375 9.726563-39.609375 21.722656 0 11.996094 17.734375 21.722657 39.609375 21.722657 10.351562 0 19.769531-2.179688 26.824219-5.746094 7.050781-3.5625 14.875-5.320313 22.777343-5.320313h16.40625c5.886719 0 10.65625-4.773437 10.65625-10.65625 0-5.886718-4.769531-10.65625-10.65625-10.65625zm0 0"/></g></svg>