<?xml version="1.0" encoding="iso-8859-1"?>
<!-- Generator: Adobe Illustrator 19.0.0, SVG Export Plug-In . SVG Version: 6.00 Build 0)  -->
<svg xmlns="http://www.w3.org/2000/svg" xmlns:xlink="http://www.w3.org/1999/xlink" version="1.1" id="Layer_1" x="0px" y="0px" viewBox="0 0 500 500" style="enable-background:new 0 0 500 500;" xml:space="preserve" width="512" height="512">
<g>
	<path style="fill:#C2E5E6;" d="M357.01,188.66V485c0,8.28-6.71,15-15,15H157.99c-8.29,0-15-6.72-15-15V188.66   c0-42.62,24.92-79.42,60.98-96.63c5.48-2.61,8.99-8.12,8.99-14.19V29.39h74.08v48.45c0,6.07,3.51,11.58,8.99,14.19   C332.09,109.24,357.01,146.04,357.01,188.66z"/>
	<path style="fill:#98D5D2;" d="M357.01,188.66V485c0,8.28-6.71,15-15,15H250V29.39h37.04v48.45c0,6.07,3.51,11.58,8.99,14.19   C332.09,109.24,357.01,146.04,357.01,188.66z"/>
	<path style="fill:#4B90BF;" d="M262.73,225.91c-2.94-4.7-7.84-7.05-12.73-7.05c-4.9,0-9.8,2.35-12.73,7.05   c-11.84,18.99-41.88,70.22-41.88,93.32c0,30.12,24.5,54.61,54.61,54.61s54.61-24.49,54.61-54.61   C304.61,296.1,274.71,245.13,262.73,225.91z M250,343.84c-13.57,0-24.61-11.04-24.61-24.61c0-8.27,11.28-32.23,24.6-55.92   c0,0.01,0.01,0.01,0.01,0.02c13.36,23.8,24.61,47.87,24.61,55.9C274.61,332.8,263.57,343.84,250,343.84z"/>
	<path style="fill:#2E77A6;" d="M304.61,319.23c0,30.12-24.5,54.61-54.61,54.61v-30c13.57,0,24.61-11.04,24.61-24.61   c0-8.03-11.25-32.1-24.61-55.9v-44.47c4.89,0,9.79,2.35,12.73,7.05C274.71,245.13,304.61,296.1,304.61,319.23z"/>
	<path style="fill:#4B90BF;" d="M303.77,15v28.79c0,8.28-6.72,15-15,15h-77.54c-8.28,0-15-6.72-15-15V15c0-8.28,6.72-15,15-15h77.54   C297.05,0,303.77,6.72,303.77,15z"/>
	<path style="fill:#2E77A6;" d="M303.77,15v28.79c0,8.28-6.72,15-15,15H250V0h38.77C297.05,0,303.77,6.72,303.77,15z"/>
</g>















</svg>
