<?xml version="1.0" encoding="iso-8859-1"?>
<!-- Generator: Adobe Illustrator 19.0.0, SVG Export Plug-In . SVG Version: 6.00 Build 0)  -->
<svg xmlns="http://www.w3.org/2000/svg" xmlns:xlink="http://www.w3.org/1999/xlink" version="1.1" id="Layer_1" x="0px" y="0px" viewBox="0 0 491.98 491.98" style="enable-background:new 0 0 491.98 491.98;" xml:space="preserve" width="512" height="512">
<g>
	<path style="fill:#A8D384;" d="M486.335,418.518c-57.43,50.921-130.094,75.381-202.157,73.346   c-72.063-2.035-143.508-30.548-198.507-85.547C-24.328,296.318-28.398,120.504,73.461,5.644c6.413-7.237,17.61-7.554,24.443-0.721   l389.151,389.151C493.889,400.908,493.571,412.104,486.335,418.518z"/>
	<path style="fill:#6AC186;" d="M486.335,418.518c-57.43,50.921-130.094,75.381-202.157,73.346   c-72.063-2.035-143.508-30.548-198.507-85.547l206.813-206.813l194.572,194.572C493.889,400.908,493.571,412.104,486.335,418.518z"/>
	<path style="fill:#ED484B;" d="M461.559,368.578c-46.693,46.693-107.884,70.036-169.076,70.036   c-61.191,0-122.39-23.35-169.075-70.036c-93.378-93.378-93.378-244.773,0-338.151L461.559,368.578z"/>
	<path style="fill:#D92E2F;" d="M461.559,368.578c-46.693,46.693-107.884,70.036-169.076,70.036   c-61.191,0-122.39-23.35-169.075-70.036l169.076-169.076L461.559,368.578z"/>
	<g>
		<path style="fill:#FFE6B9;" d="M186.939,191.093c6.56-6.559,6.56-17.195,0-23.754c-6.559-6.559-17.195-6.559-23.754,0    l-4.897,4.897c-6.56,6.559-6.56,17.195,0,23.754c6.56,6.56,17.195,6.559,23.754,0L186.939,191.093z"/>
		<path style="fill:#FFCD76;" d="M324.642,305.043c-6.559-6.559-17.195-6.559-23.754,0l-4.897,4.897    c-6.56,6.559-6.56,17.195,0,23.754c6.56,6.56,17.195,6.559,23.754,0l4.897-4.897C331.202,322.238,331.202,311.602,324.642,305.043    z"/>
		<path style="fill:#FFE6B9;" d="M214.173,301.567l-4.893,4.893c-6.564,6.564-17.198,6.556-23.754,0    c-6.564-6.564-6.564-17.19,0-23.754l4.893-4.893c6.564-6.564,17.19-6.564,23.754,0    C220.73,284.369,220.737,295.003,214.173,301.567z"/>
		<path style="fill:#FFCD76;" d="M214.173,301.567l-4.893,4.893c-6.564,6.564-17.198,6.556-23.754,0l28.647-28.647    C220.73,284.369,220.737,295.003,214.173,301.567z"/>
	</g>
</g>















</svg>
