<?xml version="1.0" encoding="iso-8859-1"?>
<!-- Generator: Adobe Illustrator 19.0.0, SVG Export Plug-In . SVG Version: 6.00 Build 0)  -->
<svg xmlns="http://www.w3.org/2000/svg" xmlns:xlink="http://www.w3.org/1999/xlink" version="1.1" id="Layer_1" x="0px" y="0px" viewBox="0 0 489.244 489.244" style="enable-background:new 0 0 489.244 489.244;" xml:space="preserve" width="512" height="512">
<g>
	<path style="fill:#C2E5E6;" d="M259.001,52.082c0,1.86-0.2,3.75-0.6,5.66l-7.22,34.17h-38.63l-7.22-34.17   c-3.56-16.86,9.3-32.72,26.54-32.72C247.151,25.022,259.001,37.502,259.001,52.082z"/>
	<path style="fill:#98D5D2;" d="M259.001,52.082c0,1.86-0.2,3.75-0.6,5.66l-7.22,34.17h-19.31v-66.89   C247.151,25.022,259.001,37.502,259.001,52.082z"/>
	<path style="fill:#2E77A6;" d="M479.848,259.061L314.412,443.459V322.111l150.786-121.54c9.665-7.79,24.046-0.911,24.046,11.503   v22.445C489.244,243.578,485.898,252.318,479.848,259.061z"/>
	<path style="fill:#4B90BF;" d="M167.07,341.902H80.738C52.761,341.902,30,319.142,30,291.164s22.761-50.738,50.738-50.738h86.332   c8.284,0,15-6.716,15-15s-6.716-15-15-15H80.738C36.219,210.426,0,246.646,0,291.165c0,44.519,36.219,80.737,80.738,80.737h86.332   c8.284,0,15-6.716,15-15S175.354,341.902,167.07,341.902z"/>
	<path style="fill:#C2E5E6;" d="M318.561,464.222h-173.39c-25.51,0-45.4-22.09-42.75-47.46l24.68-235.57h209.53l24.68,235.57   C363.961,442.132,344.071,464.222,318.561,464.222z"/>
	<path style="fill:#98D5D2;" d="M318.561,464.222h-86.69v-283.03h104.76l24.68,235.57   C363.961,442.132,344.071,464.222,318.561,464.222z"/>
	<path style="fill:#4B90BF;" d="M336.631,181.192h-209.53c0-51.72,41.93-93.65,93.66-93.65h22.21c25.86,0,49.28,10.48,66.23,27.43   C326.151,131.922,336.631,155.332,336.631,181.192z"/>
	<path style="fill:#2E77A6;" d="M336.631,181.192h-104.76v-93.65h11.1c25.86,0,49.28,10.48,66.23,27.43   C326.151,131.922,336.631,155.332,336.631,181.192z"/>
</g>















</svg>
