<?xml version="1.0" encoding="iso-8859-1"?>
<!-- Generator: Adobe Illustrator 19.0.0, SVG Export Plug-In . SVG Version: 6.00 Build 0)  -->
<svg xmlns="http://www.w3.org/2000/svg" xmlns:xlink="http://www.w3.org/1999/xlink" version="1.1" id="Layer_1" x="0px" y="0px" viewBox="0 0 493.52 493.52" style="enable-background:new 0 0 493.52 493.52;" xml:space="preserve" width="512" height="512">
<g>
	<path style="fill:#F8A73D;" d="M317.193,424.468H246.76v0c0-48.85,39.601-88.451,88.451-88.451h59.794   c6.038,0,10.688,5.31,9.924,11.299C399.382,390.809,362.239,424.468,317.193,424.468z"/>
	<path style="fill:#FFCD76;" d="M158.309,336.017H98.515c-6.038,0-10.688,5.31-9.924,11.299   c5.547,43.493,42.69,77.152,87.736,77.152h70.433v0C246.76,375.617,207.159,336.017,158.309,336.017z"/>
	<path style="fill:#F8A73D;" d="M308.148,274.682H246.76v0c0-42.577,34.515-77.092,77.092-77.092h50.645   c6.154,0,10.796,5.498,9.879,11.582C378.789,246.237,346.808,274.682,308.148,274.682z"/>
	<path style="fill:#FFCD76;" d="M169.668,197.59h-50.645c-6.154,0-10.796,5.498-9.879,11.582   c5.586,37.064,37.567,65.509,76.227,65.509h61.388v0C246.76,232.105,212.245,197.59,169.668,197.59z"/>
	<path style="fill:#F8A73D;" d="M261.92,151.91v326.45c0,8.37-6.79,15.16-15.16,15.16s-15.16-6.79-15.16-15.16V151.91   c0-8.38,6.79-15.17,15.16-15.17S261.92,143.53,261.92,151.91z"/>
	<path style="fill:#F38531;" d="M261.92,151.91v326.45c0,8.37-6.79,15.16-15.16,15.16V136.74   C255.13,136.74,261.92,143.53,261.92,151.91z"/>
	<path style="fill:#FFCD76;" d="M270.17,149.95c-6.47,6.47-14.94,9.7-23.41,9.7s-16.94-3.23-23.41-9.7   c-36.09-36.09-36.09-94.59,0-130.68l16.34-16.34C241.64,0.98,244.2,0,246.76,0s5.12,0.98,7.07,2.93l16.34,16.34   C306.26,55.36,306.26,113.86,270.17,149.95z"/>
	<path style="fill:#F8A73D;" d="M270.17,149.95c-6.47,6.47-14.94,9.7-23.41,9.7V0c2.56,0,5.12,0.98,7.07,2.93l16.34,16.34   C306.26,55.36,306.26,113.86,270.17,149.95z"/>
</g>















</svg>
