<svg height="512pt" viewBox="-106 0 512 512" width="512pt" xmlns="http://www.w3.org/2000/svg"><path d="m191.480469 40.585938h-83.253907v-30.179688c0-5.746094 4.660157-10.40625 10.40625-10.40625h62.441407c5.746093 0 10.40625 4.660156 10.40625 10.40625zm0 0" fill="#495959"/><path d="m175.871094 0v13.527344c0 5.746094-4.660156 10.40625-10.40625 10.40625h-57.238282v16.652344h83.253907v-30.179688c0-5.746094-4.660157-10.40625-10.40625-10.40625zm0 0" fill="#3f4a4a"/><path d="m191.480469 40.585938v14.566406c11.496093 0 20.8125 9.320312 20.8125 20.816406 0 11.492188-9.316407 20.8125-20.8125 20.8125v58.078125c0 8.328125 4.960937 15.851563 12.613281 19.132813l24.34375 10.433593c30.609375 13.117188 50.457031 43.214844 50.457031 76.519531v196.941407c5.746094 0 10.40625 4.660156 10.40625 10.40625v10.40625c5.746094 0 10.40625 4.65625 10.40625 10.40625v12.488281c0 5.746094-4.660156 10.402344-10.40625 10.402344h-278.894531c-5.746094 0-10.40625-4.65625-10.40625-10.402344v-12.488281c0-5.75 4.660156-10.40625 10.40625-10.40625v-10.40625c0-5.746094 4.660156-10.40625 10.40625-10.40625v-196.941407c0-33.304687 19.847656-63.402343 50.457031-76.519531l24.34375-10.433593c7.652344-3.28125 12.613281-10.804688 12.613281-19.132813v-58.078125c-11.496093 0-20.8125-9.320312-20.8125-20.8125 0-11.496094 9.316407-20.816406 20.8125-20.816406v-14.566406zm0 0" fill="#ddf5ff"/><path d="m289.300781 478.699219v-10.40625c0-5.746094-4.660156-10.40625-10.40625-10.40625v-196.941407c0-33.304687-19.847656-63.402343-50.457031-76.519531l-24.34375-10.433593c-7.652344-3.28125-12.613281-10.804688-12.613281-19.128907v-58.082031c11.496093 0 20.8125-9.320312 20.8125-20.8125 0-11.496094-9.316407-20.816406-20.8125-20.816406v-14.566406h-27.058594v18.730468c0 6.898438 5.59375 12.488282 12.488281 12.488282h14.386719c2.171875 0 4.113281 1.585937 4.324219 3.746093.242187 2.480469-1.707032 4.582031-4.140625 4.582031h-14.570313c-6.894531 0-12.488281 5.589844-12.488281 12.484376v62.246093c0 15.007813 8.914063 28.523438 22.707031 34.433594l24.34375 10.429687c24.488282 10.496094 40.363282 34.578126 40.363282 61.21875v213.589844h10.40625v37.464844h27.058593c5.746094 0 10.40625-4.660156 10.40625-10.40625v-12.488281c0-5.746094-4.65625-10.40625-10.40625-10.40625zm0 0" fill="#c1e9f4"/><path d="m108.226562 154.015625v.84375c0 8.328125-4.960937 15.851563-12.613281 19.132813l-24.34375 10.433593c-30.609375 13.117188-50.457031 43.214844-50.457031 76.519531v196.941407c-5.746094 0-10.40625 4.660156-10.40625 10.40625v10.40625c-5.746094 0-10.40625 4.660156-10.40625 10.40625v12.488281c0 5.746094 4.660156 10.40625 10.40625 10.40625h278.894531c5.746094 0 10.40625-4.660156 10.40625-10.40625v-12.488281c0-5.746094-4.65625-10.40625-10.40625-10.40625v-10.40625c0-5.746094-4.660156-10.40625-10.40625-10.40625v-196.941407c0-33.304687-19.847656-63.402343-50.457031-76.519531l-24.34375-10.433593c-7.652344-3.28125-12.613281-10.804688-12.613281-19.132813v-.84375zm0 0" fill="#fa9a0f"/><path d="m289.300781 478.699219v-10.40625c0-5.746094-4.660156-10.40625-10.40625-10.40625v-196.941407c0-33.304687-19.847656-63.402343-50.457031-76.519531l-24.34375-10.433593c-7.652344-3.28125-12.613281-10.804688-12.613281-19.128907v-.847656h-27.058594v.847656c0 15.007813 8.914063 28.523438 22.707031 34.433594l24.34375 10.429687c24.488282 10.496094 40.363282 34.578126 40.363282 61.21875v208.386719c0 2.875 2.332031 5.203125 5.203124 5.203125 2.875 0 5.203126 2.332032 5.203126 5.203125v32.261719h27.058593c5.746094 0 10.40625-4.660156 10.40625-10.40625v-12.488281c0-5.746094-4.65625-10.40625-10.40625-10.40625zm0 0" fill="#f97606"/><path d="m149.855469 447.480469h45.789062c22.988281 0 41.625-18.636719 41.625-41.625v-108.230469c0-22.988281-18.636719-41.625-41.625-41.625h-91.578125c-22.992187 0-41.628906 18.636719-41.628906 41.625v108.230469c0 22.988281 18.636719 41.625 41.628906 41.625zm0 0" fill="#495959"/><path d="m195.644531 256h-22.894531c22.988281 0 41.625 18.636719 41.625 41.625v108.230469c0 22.988281-18.636719 41.625-41.625 41.625h22.894531c22.988281 0 41.625-18.636719 41.625-41.625v-108.230469c0-22.988281-18.636719-41.625-41.625-41.625zm0 0" fill="#3f4a4a"/></svg>