<?xml version="1.0" encoding="iso-8859-1"?>
<!-- Generator: Adobe Illustrator 19.0.0, SVG Export Plug-In . SVG Version: 6.00 Build 0)  -->
<svg version="1.1" id="Capa_1" xmlns="http://www.w3.org/2000/svg" xmlns:xlink="http://www.w3.org/1999/xlink" x="0px" y="0px"
	 viewBox="0 0 512 512" style="enable-background:new 0 0 512 512;" xml:space="preserve">
<path style="fill:#00B571;" d="M401.668,143.188V30h16.44V0H274.895v30h16.439v113.188c-36.56,7.031-64.267,39.263-64.267,77.843
	V512h238.866l0.001-290.969C465.935,182.451,438.228,150.219,401.668,143.188z"/>
<path style="fill:#00935C;" d="M401.668,143.188V30h16.44V0h-71.605v512h119.433l0.001-290.969
	C465.935,182.451,438.228,150.219,401.668,143.188z"/>
<rect x="226.816" y="251.67" style="fill:#FFE7C3;" width="239.25" height="179.33"/>
<rect x="346.506" y="251.67" style="fill:#FFCF87;" width="119.56" height="179.33"/>
<rect x="286.786" y="326.33" style="fill:#FFAE33;" width="119.43" height="30"/>
<rect x="346.506" y="326.33" style="fill:#FF7700;" width="59.717" height="30"/>
<path id="SVGCleanerId_0" style="fill:#E5E5E5;" d="M45.934,123.666V240c0,53.173,39.482,97.29,90.667,104.597V482H76.934v30
	h149.878v-30h-60.211V344.597c51.185-7.306,90.666-51.424,90.666-104.597V123.666H45.934z"/>
<g>
	<path id="SVGCleanerId_0_1_" style="fill:#E5E5E5;" d="M45.934,123.666V240c0,53.173,39.482,97.29,90.667,104.597V482H76.934v30
		h149.878v-30h-60.211V344.597c51.185-7.306,90.666-51.424,90.666-104.597V123.666H45.934z"/>
</g>
<path style="fill:#CFCFCF;" d="M257.267,240V123.666H151.601V512h75.211v-30h-60.211V344.597
	C217.787,337.29,257.267,293.173,257.267,240z"/>
<path style="fill:#E30020;" d="M151.601,345.246L151.601,345.246c58.358,0,105.667-47.308,105.667-105.666v-51.75l-13.447,7.153
	l-14.068,6.409C174.969,226.347,116.668,239,56.469,239l-10.534-0.402v0.982C45.934,297.938,93.243,345.246,151.601,345.246z"/>
<path style="fill:#AA0018;" d="M243.82,194.983l-14.068,6.409c-25.35,11.547-51.455,20.455-78.151,26.7v117.155
	c58.358,0,105.667-47.308,105.667-105.666v-51.75L243.82,194.983z"/>
<g>
</g>
<g>
</g>
<g>
</g>
<g>
</g>
<g>
</g>
<g>
</g>
<g>
</g>
<g>
</g>
<g>
</g>
<g>
</g>
<g>
</g>
<g>
</g>
<g>
</g>
<g>
</g>
<g>
</g>
</svg>
