<svg height="511pt" viewBox="-85 0 511 511.99992" width="511pt" xmlns="http://www.w3.org/2000/svg"><path d="m36.5625 473.5h267.878906v38.5h-267.878906zm0 0" fill="#fff0d0"/><path d="m273.53125 473.5h30.90625v38.5h-30.90625zm0 0" fill="#edcfb2"/><path d="m270.242188 1.996094c-6.296876-3.882813-14.546876-1.9257815-18.429688 4.367187-38.03125 61.671875-155.03125 68.796875-156.207031 68.863281-7.382813.398438-13.042969 6.707032-12.648438 14.089844.386719 7.140625 6.296875 12.671875 13.363281 12.671875.242188 0 .484376-.003906.730469-.015625 5.375-.289062 132.15625-7.921875 177.558594-81.546875 3.882813-6.296875 1.925781-14.550781-4.367187-18.429687zm0 0" fill="#edcfb2"/><path d="m304.4375 481.09375h-267.875l-20.609375-380.152344h309.09375zm0 0" fill="#60d9fe"/><path d="m294.136719 100.941406-20.605469 380.152344h30.90625l20.609375-380.152344zm0 0" fill="#40ccf7"/><path d="m325.046875 106.109375h-309.09375c-8.535156 0-15.453125-6.917969-15.453125-15.453125s6.917969-15.453125 15.453125-15.453125h309.09375c8.535156 0 15.453125 6.917969 15.453125 15.453125s-6.917969 15.453125-15.453125 15.453125zm0 0" fill="#fff0d0"/><path d="m325.046875 75.203125h-30.910156c8.535156 0 15.453125 6.917969 15.453125 15.453125s-6.917969 15.453125-15.453125 15.453125h30.910156c8.53125 0 15.453125-6.917969 15.453125-15.453125s-6.917969-15.453125-15.453125-15.453125zm0 0" fill="#edcfb2"/><path d="m316.699219 254.988281-3.964844 73.105469h-284.46875l-3.964844-73.105469zm0 0" fill="#edcfb2"/><path d="m285.789062 254.988281-3.964843 73.105469h30.910156l3.964844-73.105469zm0 0" fill="#cfb49b"/><path d="m257.035156 291.539062c0-60.5625-38.742187-109.65625-86.535156-109.65625s-86.535156 49.09375-86.535156 109.65625c0 60.566407 38.742187 109.660157 86.535156 109.660157s86.535156-49.09375 86.535156-109.660157zm0 0" fill="#fff0d0"/></svg>